<svg width="89" height="94" viewBox="0 0 89 94" fill="none" xmlns="http://www.w3.org/2000/svg">
<path d="M87.6184 17.5761C86.6894 16.4415 85.2989 15.782 83.8324 15.782H20.0649L17.8921 8.31763V8.3191C16.8946 4.9821 14.1576 2.45383 10.7534 1.72442L2.95693 0.054998C1.63818 -0.228654 0.338332 0.612939 0.054496 1.93316C-0.227504 3.2532 0.612621 4.55323 1.9345 4.83523L9.72787 6.5063C11.3861 6.86155 12.7204 8.09292 13.2068 9.72029L27.4531 58.6567C27.1322 58.8063 26.8219 58.9684 26.5227 59.1476C24.9874 60.0626 23.7559 61.347 22.9301 62.8464C22.1397 64.2711 21.7204 65.8858 21.68 67.5521H21.6738V67.8061H21.68C21.7112 69.1077 21.9886 70.3562 22.4702 71.4956C23.2417 73.3177 24.523 74.8592 26.1377 75.9503C27.7511 77.0428 29.7133 77.6834 31.8021 77.6819H77.6212C78.9726 77.6819 80.0667 76.5877 80.0667 75.2379C80.0667 73.8881 78.9725 72.7939 77.6212 72.7939L31.8021 72.7925C31.0725 72.7925 30.3899 72.646 29.7633 72.3825C28.8266 71.9867 28.0206 71.3195 27.4564 70.4808C26.9141 69.6749 26.593 68.7257 26.568 67.6847C26.5959 66.4423 26.9919 65.3637 27.687 64.5017C28.047 64.0574 28.4911 63.6678 29.0305 63.3451C29.5637 63.0271 30.192 62.7747 30.9291 62.6157L76.9819 55.1199C79.9903 54.629 82.3844 52.3284 82.9922 49.3402L88.6253 21.6471V21.6442C88.6906 21.323 88.722 20.9957 88.722 20.6715C88.722 19.5525 88.3383 18.4584 87.6184 17.5761ZM78.2008 48.3662C77.9981 49.3639 77.2 50.1307 76.1963 50.2929L32.1946 57.4567L21.4865 20.6717H83.8324H83.834L78.2008 48.3662Z" fill="#FA8507"/>
<path d="M37.46 81.6598C36.386 80.9333 35.0784 80.5048 33.6879 80.5065C32.7604 80.5065 31.8674 80.6948 31.0599 81.038C29.8473 81.5508 28.8217 82.4032 28.0938 83.4803C27.366 84.5543 26.9388 85.8621 26.9419 87.2524C26.9404 88.1783 27.129 89.0715 27.4719 89.8789C27.9862 91.0932 28.8371 92.1188 29.9128 92.8451C30.9883 93.5747 32.2975 94.0003 33.6879 94.0003C34.6137 94.0003 35.5055 93.8115 36.3127 93.4687C37.527 92.956 38.5526 92.1017 39.2805 91.0262C40.0068 89.9522 40.4338 88.643 40.4338 87.2526C40.4338 86.3269 40.2436 85.4354 39.9023 84.6263C39.3881 83.4117 38.5355 82.3861 37.46 81.6598ZM36.1943 88.3107C35.9887 88.797 35.6409 89.2163 35.2062 89.5094C34.7696 89.8024 34.2585 89.9722 33.6879 89.9739C33.306 89.9722 32.9522 89.8975 32.6295 89.7587C32.1448 89.5562 31.7238 89.207 31.4308 88.7737C31.1378 88.3356 30.9679 87.8229 30.9663 87.2523C30.9679 86.8719 31.0441 86.5197 31.1798 86.194C31.384 85.7093 31.7332 85.29 32.1679 84.9955C32.6045 84.7025 33.1173 84.534 33.6877 84.5325C34.0681 84.5325 34.4202 84.6091 34.7445 84.746C35.2308 84.9502 35.6485 85.2979 35.9415 85.7343C36.2362 86.1707 36.406 86.682 36.406 87.2523C36.4064 87.6341 36.33 87.9865 36.1943 88.3107Z" fill="#FA8507"/>
<path d="M74.4598 81.6598C73.3843 80.9333 72.0768 80.5048 70.6864 80.5065C69.7605 80.5065 68.8674 80.6948 68.0599 81.038C66.8458 81.5508 65.8201 82.4032 65.0923 83.4803C64.366 84.5543 63.939 85.8621 63.939 87.2524C63.939 88.1783 64.1292 89.0715 64.4705 89.8789C64.9832 91.0932 65.8375 92.1188 66.913 92.8467C67.987 93.5747 69.2962 94.0003 70.6866 94.0003C71.6123 94.0003 72.5055 93.8115 73.3129 93.4687C74.5255 92.956 75.5511 92.1017 76.279 91.0262C77.0068 89.9522 77.4338 88.643 77.4324 87.2526C77.4324 86.3269 77.2438 85.4354 76.9009 84.6263C76.3863 83.4117 75.5353 82.3861 74.4598 81.6598ZM73.1926 88.3107C72.9883 88.797 72.6393 89.2163 72.206 89.5094C71.7696 89.8024 71.2552 89.9722 70.6864 89.9739C70.3045 89.9722 69.9522 89.8975 69.628 89.7587C69.1416 89.5562 68.724 89.207 68.431 88.7737C68.1348 88.3356 67.9665 87.8229 67.9665 87.2523C67.9665 86.8719 68.0414 86.5197 68.1785 86.194C68.3841 85.7093 68.7317 85.29 69.1666 84.9955C69.603 84.7025 70.1158 84.534 70.6864 84.5325C71.0683 84.5325 71.4204 84.6091 71.7446 84.746C72.2295 84.9502 72.6488 85.2979 72.9417 85.7343C73.2347 86.1707 73.4047 86.682 73.4063 87.2523C73.4062 87.6341 73.3298 87.9865 73.1926 88.3107Z" fill="#FA8507"/>
<path d="M35.8639 26.0741C35.4649 24.7008 34.0278 23.9135 32.6545 24.3141C31.2814 24.7147 30.4958 26.1519 30.8949 27.5235L37.6003 50.4829C38.0024 51.8545 39.4396 52.6432 40.8112 52.2411C42.1828 51.842 42.9715 50.4034 42.5695 49.0303L35.8639 26.0741Z" fill="#FA8507"/>
<path d="M47.1862 26.0304C46.7872 24.6573 45.3501 23.87 43.977 24.2692C42.6037 24.6712 41.8166 26.1084 42.2172 27.48L48.4363 48.7747C48.8383 50.148 50.2755 50.9351 51.6472 50.5345C53.0188 50.1339 53.8075 48.6969 53.4054 47.3236L47.1862 26.0304Z" fill="#FA8507"/>
<path d="M58.5099 25.9868C58.1093 24.6136 56.6721 23.8263 55.3007 24.2286C53.9274 24.6277 53.1404 26.0663 53.541 27.4378L59.2878 47.1177C59.6884 48.491 61.127 49.2781 62.4987 48.8777C63.8703 48.4771 64.659 47.0382 64.2568 45.6666L58.5099 25.9868Z" fill="#FA8507"/>
<path d="M69.8306 25.9413C69.4316 24.5682 67.993 23.7827 66.6197 24.1818C65.2481 24.584 64.461 26.021 64.8614 27.3927L70.1049 45.3503C70.5071 46.7236 71.9441 47.5107 73.3157 47.1101C74.6874 46.708 75.4761 45.2725 75.0755 43.8992L69.8306 25.9413Z" fill="#FA8507"/>
</svg>
