<svg width="94" height="94" viewBox="0 0 94 94" fill="none" xmlns="http://www.w3.org/2000/svg">
<path d="M74.4629 0.948569C75.1208 0.237143 76.2224 0.191245 76.9338 0.849122C77.6452 1.507 77.6911 2.60856 77.0332 3.31999L62.7129 18.8184L62.69 18.849C60.9382 20.9679 59.7372 22.9263 59.2017 24.7163C58.7274 26.2998 58.7962 27.738 59.5 28.9925C59.8749 29.6657 59.7525 30.4919 59.2552 31.035L52.4546 38.394C51.7891 37.6673 51.2613 37.0783 50.9094 36.6958C50.7487 36.4816 50.5651 36.2751 50.3739 36.0762L50.3586 36.0915C50.2668 35.992 50.1673 35.9002 50.0679 35.8084L55.8817 29.5127C55.2009 27.6921 55.2085 25.7567 55.8358 23.6989C56.509 21.4652 57.9395 19.0861 59.9973 16.6076C60.0432 16.5464 60.0814 16.4852 60.135 16.4316L74.4476 0.933269L74.4629 0.948569ZM43.7033 42.4637C43.0607 41.7446 43.1219 40.6354 43.841 39.9928C44.5601 39.3503 45.6693 39.4115 46.3119 40.1305C53.5103 48.1934 75.7634 72.0529 81.9291 80.9725C90.0607 92.4854 77.4693 96.1113 73.2925 91.9193C62.8583 81.8293 40.7046 56.1032 30.9665 45.1947C27.4629 46.6787 24.0588 46.9082 20.6394 45.929C16.9598 44.881 13.3568 42.4255 9.70022 38.6541L9.65432 38.6082C6.86982 35.6707 4.68964 32.7715 3.1138 29.9028C1.4997 26.95 0.512885 24.0278 0.160997 21.1286C-0.21384 18.0075 0.0768501 15.1006 0.918321 12.5226C1.90514 9.49333 3.65693 6.93067 5.95185 5.02588C8.26207 3.11345 11.1001 1.87419 14.2671 1.4917C16.8986 1.17806 19.7673 1.4458 22.7354 2.41732C26.8433 3.75602 31.632 7.08366 35.6022 11.3522C38.5321 14.4963 41.0412 18.1758 42.5329 21.9624C44.0858 25.9097 44.5601 29.9946 43.3132 33.8195C42.5788 36.0838 41.2478 38.2104 39.1823 40.1305C38.4709 40.7884 37.3693 40.7425 36.7115 40.0387C36.0536 39.3273 36.0995 38.2257 36.8033 37.5679C38.4021 36.0762 39.4271 34.4468 39.9855 32.7256C40.9494 29.7651 40.544 26.4834 39.2741 23.2552C37.9431 19.874 35.6864 16.5693 33.0396 13.7313C29.4595 9.89112 25.2139 6.91537 21.6338 5.74496C19.1783 4.94938 16.8298 4.71989 14.6802 4.97998C12.1864 5.28597 9.95266 6.24219 8.17027 7.73389C6.38024 9.22559 5.01093 11.2375 4.22301 13.6318C3.54218 15.7202 3.30504 18.1222 3.61868 20.7155C3.91702 23.1634 4.76614 25.6649 6.15839 28.2199C7.61949 30.8437 9.62372 33.4982 12.2017 36.2139L12.217 36.2368C15.4452 39.5645 18.5433 41.7064 21.6109 42.5784C24.5101 43.4046 27.4629 43.0833 30.5458 41.5457C31.2495 41.1403 32.1599 41.278 32.7183 41.9053C42.2193 52.5461 65.3291 79.3278 75.5645 89.2495C80.009 91.0625 82.4722 88.8288 80.3456 84.8892C77.0332 78.7388 48.5762 47.9409 43.7033 42.4637ZM34.4777 57.8473L12.1711 81.9823C12.1252 82.0282 12.0869 82.0741 12.0334 82.1199C8.7746 85.6388 14.5425 90.7642 18.1226 87.3371L39.7866 63.8906L42.1122 66.5298L20.6164 89.7926C20.5705 89.8462 20.5246 89.8921 20.4634 89.9456C19.1783 91.0243 17.8854 91.728 16.5773 92.0187C15.231 92.3247 13.9076 92.187 12.6377 91.5903C12.4235 91.5062 12.2246 91.3991 12.0487 91.2384L8.96585 88.3851C8.91995 88.3392 8.87405 88.3009 8.82815 88.2474C7.63479 86.8704 7.06871 85.4017 7.22171 83.8488C7.36705 82.38 8.14733 80.9495 9.62372 79.5726L32.1446 55.2005L34.4777 57.8473ZM57.8553 44.3379L59.1787 42.9074C59.8366 42.196 60.9458 42.1501 61.6496 42.8079C62.3534 43.4658 62.4069 44.5674 61.7491 45.2788L60.2191 46.9311L57.8553 44.3379ZM79.9019 6.06624C80.5598 5.35482 81.6613 5.30892 82.3727 5.9668C83.0842 6.62468 83.1301 7.72624 82.4722 8.43766L69.919 22.0312C69.2611 22.7427 68.1595 22.7886 67.4481 22.1307C66.7367 21.4728 66.6908 20.3713 67.3487 19.6598L79.9019 6.06624ZM85.3332 11.0921C85.9911 10.3807 87.0926 10.3348 87.8041 10.9927C88.5155 11.6506 88.5614 12.7521 87.9035 13.4635L75.3579 27.0495C74.7001 27.7609 73.5985 27.8068 72.8871 27.1489C72.1756 26.491 72.1298 25.3895 72.7876 24.6781L85.3332 11.0921ZM90.9634 16.3169C91.6213 15.6055 92.7228 15.5596 93.4343 16.2174C94.1457 16.8753 94.1916 17.9845 93.5337 18.6883L79.2134 34.1943C79.1599 34.2479 79.1063 34.2938 79.0528 34.3473C75.794 37.4837 72.6805 39.2967 69.7048 39.8092C66.4766 40.3677 63.5161 39.4497 60.8005 37.0783C60.0738 36.4434 60.0049 35.3341 60.6322 34.6151C61.2671 33.8883 62.3763 33.8195 63.0954 34.4468C64.9696 36.0838 66.9738 36.7264 69.0928 36.3516C71.3724 35.9614 73.8815 34.4544 76.6201 31.8153L76.6354 31.8L90.9481 16.3092L90.9634 16.3169Z" fill="#FA8507"/>
</svg>
