<svg width="100" height="100" viewBox="0 0 100 100" fill="none" xmlns="http://www.w3.org/2000/svg">
<circle cx="50" cy="50" r="49.5" stroke="#F6B211"/>
<circle cx="50" cy="50" r="46.5" stroke="#F6B211"/>
<g clip-path="url(#clip0_15_101)">
<path d="M31.0786 71.471C31.0786 72.6473 30.1376 73.5885 28.9612 73.5885C27.7849 73.5885 26.8438 72.6474 26.8438 71.471V52.3753C26.8438 51.199 27.7848 50.2578 28.9612 50.2578C30.1375 50.2578 31.0786 51.1989 31.0786 52.3753V71.471Z" fill="#80C3FF"/>
<path d="M28.9613 50.2579C30.1376 50.2579 31.0787 51.199 31.0787 52.3754V71.4712C31.0787 72.6475 30.1377 73.5886 28.9613 73.5886" fill="#2A8BF4"/>
<path d="M28.9613 74.1765C27.4713 74.1765 26.2557 72.961 26.2557 71.471V52.3752C26.2557 50.8852 27.4713 49.6697 28.9613 49.6697C30.4513 49.6697 31.6668 50.8852 31.6668 52.3752V71.471C31.6668 72.961 30.4513 74.1765 28.9613 74.1765ZM28.9613 50.846C28.0986 50.846 27.432 51.5518 27.432 52.3752V71.471C27.432 72.3337 28.1378 73.0002 28.9613 73.0002C29.7847 73.0002 30.4905 72.2944 30.4905 71.471V52.3752C30.4905 51.5518 29.8239 50.846 28.9613 50.846Z" fill="#33363A"/>
<path d="M28.9612 70.9613C28.6475 70.9613 28.373 70.6868 28.373 70.3731V69.8633C28.373 69.5496 28.6475 69.2751 28.9612 69.2751C29.275 69.2751 29.5494 69.5496 29.5494 69.8633V70.3731C29.5494 70.6868 29.3141 70.9613 28.9612 70.9613Z" fill="#33363A"/>
<path d="M28.9612 42.3764C28.6475 42.3764 28.373 42.1019 28.373 41.7882V33.4755C28.373 33.1618 28.6475 32.8873 28.9612 32.8873C29.275 32.8873 29.5494 33.1618 29.5494 33.4755V41.7882C29.5494 42.1412 29.3141 42.3764 28.9612 42.3764Z" fill="#33363A"/>
<path d="M28.9612 50.7676C28.4123 50.7676 27.981 50.3363 27.981 49.7873V43.4351C27.981 42.8862 28.4123 42.4548 28.9612 42.4548C29.5102 42.4548 29.9415 42.8862 29.9415 43.4351V49.7873C29.9415 50.2971 29.5102 50.7676 28.9612 50.7676Z" fill="#33363A"/>
<path d="M28.9612 42.2196C27.1575 42.2196 25.6675 40.7295 25.6675 38.9258V33.7108C25.6675 33.397 25.942 33.1226 26.2557 33.1226C26.5694 33.1226 26.8439 33.397 26.8439 33.7108V38.9258C26.8439 40.1021 27.7849 41.0433 28.9613 41.0433C30.1377 41.0433 31.0788 40.1022 31.0788 38.9258V33.7108C31.0788 33.397 31.3532 33.1226 31.667 33.1226C31.9807 33.1226 32.2551 33.397 32.2551 33.7108V38.9258C32.2549 40.7688 30.8041 42.2196 28.9612 42.2196Z" fill="#33363A"/>
<path d="M31.863 43.0823C31.863 43.9841 31.1179 44.7291 30.2161 44.7291H27.7066C26.8047 44.7291 26.0597 43.9841 26.0597 43.0823V40.063C26.0597 39.1612 26.8047 38.4161 27.7066 38.4161H30.2161C31.1179 38.4161 31.863 39.1612 31.863 40.063V43.0823Z" fill="#33363A"/>
<path d="M30.216 45.2781H27.7065C26.491 45.2781 25.4714 44.2978 25.4714 43.043V40.0238C25.4714 38.8082 26.4517 37.7887 27.7065 37.7887H30.216C31.4316 37.7887 32.4511 38.769 32.4511 40.0238V43.043C32.451 44.2978 31.4316 45.2781 30.216 45.2781ZM27.7065 39.0043C27.1183 39.0043 26.6478 39.4749 26.6478 40.063V43.0822C26.6478 43.6704 27.1184 44.1409 27.7065 44.1409H30.216C30.8042 44.1409 31.2747 43.6703 31.2747 43.0822V40.063C31.2747 39.4748 30.8041 39.0043 30.216 39.0043H27.7065Z" fill="#33363A"/>
<path d="M73.897 54.2965C73.897 65.4325 64.8785 74.451 53.7425 74.451C42.6066 74.451 33.6273 65.4325 33.6273 54.2965C33.6273 43.1606 42.6458 34.1421 53.7425 34.1421C64.8785 34.1421 73.897 43.1606 73.897 54.2965Z" fill="white"/>
<path d="M53.7819 34.1421C64.9178 34.1421 73.9363 43.1606 73.9363 54.2965C73.9363 65.4325 64.9178 74.451 53.7819 74.451" fill="#C8DBDB"/>
<path d="M53.7818 75C42.3714 75 33.0784 65.707 33.0784 54.2573C33.0784 42.8469 42.3714 33.5146 53.7818 33.5146C65.1922 33.5146 74.5244 42.8076 74.5244 54.2573C74.4852 65.707 65.1922 75 53.7818 75ZM53.7818 34.7303C42.9988 34.7303 34.2547 43.5136 34.2547 54.2965C34.2547 65.0795 43.0379 73.8628 53.7818 73.8628C64.5648 73.8628 73.348 65.0795 73.348 54.2965C73.3089 43.5136 64.5648 34.7303 53.7818 34.7303Z" fill="#33363A"/>
<path d="M53.7818 67.6676C61.1664 67.6676 67.1528 61.6812 67.1528 54.2965C67.1528 46.9119 61.1664 40.9255 53.7818 40.9255C46.3972 40.9255 40.4108 46.9119 40.4108 54.2965C40.4108 61.6812 46.3972 67.6676 53.7818 67.6676Z" fill="white"/>
<path d="M40.4108 54.2965C40.4108 46.9249 46.41 40.9255 53.7818 40.9255C61.1535 40.9255 67.1528 46.9248 67.1528 54.2965" fill="#C8DBDB"/>
<path d="M53.7819 68.2557C46.0965 68.2557 39.8228 61.982 39.8228 54.2966C39.8228 46.6113 46.0965 40.3375 53.7819 40.3375C61.4672 40.3375 67.741 46.6113 67.741 54.2966C67.741 61.982 61.4672 68.2557 53.7819 68.2557ZM53.7819 41.5138C46.7238 41.5138 40.999 47.2386 40.999 54.2966C40.999 61.3547 46.7238 67.0794 53.7819 67.0794C60.8399 67.0794 66.5647 61.3547 66.5647 54.2966C66.5647 47.2387 60.8399 41.5138 53.7819 41.5138Z" fill="#33363A"/>
<path d="M53.7818 62.374C58.2429 62.374 61.8593 58.7576 61.8593 54.2966C61.8593 49.8355 58.2429 46.2191 53.7818 46.2191C49.3207 46.2191 45.7043 49.8355 45.7043 54.2966C45.7043 58.7576 49.3207 62.374 53.7818 62.374Z" fill="#C8DBDB"/>
<path d="M53.7818 62.374C49.3118 62.374 45.7043 58.7666 45.7043 54.2966C45.7043 49.8266 49.3118 46.2191 53.7818 46.2191" fill="white"/>
<path d="M72.9953 46.6897C70.2113 34.1029 57.7814 26.1823 45.1947 28.9663L50.2137 51.7479L72.9953 46.6897Z" fill="#83ED88"/>
<path d="M70.4857 47.2387C68.0154 36.0635 56.9579 29.0056 45.7827 31.4759L50.2527 51.7088L70.4857 47.2387Z" fill="#5FCE96"/>
<path d="M68.9174 47.5916C66.6432 37.279 56.4483 30.7701 46.1357 33.0443L50.2529 51.7087L68.9174 47.5916Z" fill="#F42535"/>
<path d="M50.2529 51.7087L68.9174 47.5915C67.7802 42.4548 64.6434 38.2201 60.5262 35.5929L50.2529 51.7087Z" fill="#FC4259"/>
<path d="M67.6233 47.866L68.9174 47.5916C66.6432 37.279 56.4483 30.7701 46.1357 33.0443L46.4102 34.3383C55.8601 32.8874 64.9571 38.6907 67.6233 47.866Z" fill="#D60024"/>
<path d="M67.8978 44.4547C66.3685 40.7296 63.7414 37.6711 60.4869 35.593L59.5066 37.1223C63.31 39.5533 66.2509 43.2784 67.5841 47.8661L68.8781 47.5916C68.7212 46.8074 68.486 46.0232 68.2115 45.2782C68.133 45.0036 68.0154 44.7291 67.8978 44.4547Z" fill="#F42535"/>
<path d="M46.0964 33.0835L50.2528 51.7087L68.9173 47.5915L51.7036 49.4345L46.0964 33.0835Z" fill="#FC4259"/>
<path d="M51.7037 49.4345L50.2529 51.7087L68.9174 47.5916L51.7037 49.4345Z" fill="#FF647E"/>
<path d="M50.2529 52.2969C49.9785 52.2969 49.7432 52.1008 49.6647 51.8263L44.6458 29.0447C44.6065 28.8878 44.6458 28.7309 44.7241 28.6133C44.8025 28.4957 44.9594 28.3781 45.077 28.3389C57.9383 25.4765 70.7211 33.6324 73.5835 46.4936C73.6227 46.6505 73.5835 46.8073 73.5051 46.9249C73.4267 47.0426 73.2699 47.1602 73.1523 47.1994L50.4099 52.2184C50.3313 52.2969 50.2921 52.2969 50.2529 52.2969ZM45.9004 29.4368L50.6842 51.0421L72.2895 46.2584C69.3879 34.5342 57.7422 27.1233 45.9004 29.4368Z" fill="#33363A"/>
<path d="M68.9174 48.1797C68.6429 48.1797 68.4076 47.9836 68.3292 47.7091C66.1333 37.7496 56.2129 31.4366 46.2534 33.6324C45.9396 33.7108 45.626 33.5148 45.5476 33.2011C45.4692 32.8873 45.6652 32.5737 45.9789 32.4952C56.6051 30.1426 67.1136 36.8869 69.4663 47.4739C69.5447 47.7876 69.3487 48.1012 69.035 48.1797C68.9957 48.1797 68.9565 48.1797 68.9174 48.1797Z" fill="#33363A"/>
<path d="M56.9972 46.9642C56.9972 53.1988 51.939 58.257 45.7044 58.257C39.4698 58.257 34.4116 53.1988 34.4116 46.9642C34.4116 40.7296 39.4698 35.6714 45.7044 35.6714C51.9389 35.6321 56.9972 40.6903 56.9972 46.9642Z" fill="#A07F3C"/>
<path d="M56.9972 46.9641C56.9972 53.1987 51.939 58.2569 45.7044 58.2569C39.4698 58.2569 34.4116 53.1987 34.4116 46.9641" fill="#84692C"/>
<path d="M45.7045 35.6321V58.2568C51.9391 58.2568 56.9973 53.1986 56.9973 46.964C56.9973 40.7294 51.939 35.6321 45.7045 35.6321Z" fill="#84692C"/>
<path d="M45.7043 46.9642V58.257C51.9389 58.257 56.9972 53.1988 56.9972 46.9642H45.7043Z" fill="#705622"/>
<path d="M45.7044 58.845C39.1562 58.845 33.8235 53.5124 33.8235 46.9642C33.8235 40.4159 39.1562 35.0833 45.7044 35.0833C48.8805 35.0833 51.8605 36.338 54.0956 38.5731C56.3306 40.8081 57.5854 43.7881 57.5854 46.9643C57.5853 53.5124 52.2526 58.845 45.7044 58.845ZM45.7044 36.2203C39.7835 36.2203 34.9998 41.0433 34.9998 46.9249C34.9998 52.8458 39.8227 57.6295 45.7044 57.6295C51.6253 57.6295 56.409 52.8065 56.409 46.9249C56.409 44.0625 55.3111 41.357 53.2721 39.3572C51.2332 37.3574 48.5668 36.2203 45.7044 36.2203Z" fill="#33363A"/>
<path d="M45.7044 54.5712C49.9056 54.5712 53.3114 51.1654 53.3114 46.9642C53.3114 42.7629 49.9056 39.3572 45.7044 39.3572C41.5032 39.3572 38.0974 42.7629 38.0974 46.9642C38.0974 51.1654 41.5032 54.5712 45.7044 54.5712Z" fill="#BEDD05"/>
<path d="M38.0974 46.9642C38.0974 42.7686 41.5088 39.3572 45.7044 39.3572L38.0974 46.9642Z" fill="#DEF21D"/>
<path d="M38.0974 46.9642C38.0974 51.1598 41.5088 54.5712 45.7044 54.5712C49.9 54.5712 53.3114 51.1599 53.3114 46.9642H38.0974Z" fill="#85C606"/>
<path d="M38.0974 46.9642C38.0974 51.1598 41.5088 54.5712 45.7044 54.5712L38.0974 46.9642Z" fill="#BEDD05"/>
<path d="M45.7043 39.3572V54.571C49.8999 54.571 53.3113 51.1597 53.3113 46.9641C53.2721 42.7685 49.8999 39.3572 45.7043 39.3572Z" fill="#85C606"/>
<path d="M53.2721 46.9642C53.2721 42.7686 49.8608 39.3572 45.6652 39.3572L53.2721 46.9642Z" fill="#52C408"/>
<path d="M45.7043 46.9641V54.5711C49.8999 54.5711 53.3113 51.1598 53.3113 46.9641H45.7043Z" fill="#52C408"/>
<path d="M45.7043 54.5318C49.8999 54.5318 53.3113 51.1204 53.3113 46.9248L45.7043 54.5318Z" fill="#25C10A"/>
<path d="M45.7044 49.6697C47.1987 49.6697 48.41 48.4584 48.41 46.9642C48.41 45.47 47.1987 44.2587 45.7044 44.2587C44.2102 44.2587 42.9989 45.47 42.9989 46.9642C42.9989 48.4584 44.2102 49.6697 45.7044 49.6697Z" fill="#BEDD05"/>
<path d="M45.7045 49.6304C47.1945 49.6304 48.41 48.4149 48.41 46.9249C48.41 45.4349 47.1945 44.2194 45.7045 44.2194C45.7045 44.2585 45.7045 49.6304 45.7045 49.6304Z" fill="#85C606"/>
<path d="M42.9989 46.9641H48.4101C48.4101 45.4741 47.1945 44.2585 45.7045 44.2585C44.2144 44.2584 42.9989 45.474 42.9989 46.9641Z" fill="#85C606"/>
<path d="M45.7043 46.9642H48.4099C48.4099 45.4742 47.1943 44.2587 45.7043 44.2587V46.9642Z" fill="#52C408"/>
<path d="M45.7044 48.5718C46.5923 48.5718 47.312 47.8521 47.312 46.9642C47.312 46.0763 46.5923 45.3566 45.7044 45.3566C44.8166 45.3566 44.0968 46.0763 44.0968 46.9642C44.0968 47.8521 44.8166 48.5718 45.7044 48.5718Z" fill="#BEDD05"/>
<path d="M47.3119 46.9642C47.3119 46.0624 46.6061 45.3566 45.7043 45.3566C44.8025 45.3566 44.0967 46.0624 44.0967 46.9642H47.3119Z" fill="#85C606"/>
<path d="M45.7043 48.5719V45.3174C44.8025 45.3174 44.0967 46.0232 44.0967 46.925C44.0575 47.8268 44.8024 48.5719 45.7043 48.5719Z" fill="#85C606"/>
<path d="M45.7044 46.9642V45.3174C44.8026 45.3174 44.0968 46.0232 44.0968 46.925H45.7044V46.9642Z" fill="#52C408"/>
<path d="M45.7044 55.12C41.1951 55.12 37.5093 51.4342 37.5093 46.9249C37.5093 42.4157 41.1951 38.7299 45.7044 38.7299C50.2136 38.7299 53.8994 42.4157 53.8994 46.9249C53.8602 51.4734 50.2136 55.12 45.7044 55.12ZM45.7044 39.9454C41.8224 39.9454 38.6856 43.0823 38.6856 46.9642C38.6856 50.8461 41.8224 53.983 45.7044 53.983C49.5863 53.983 52.7231 50.8461 52.7231 46.9642C52.6839 43.0823 49.547 39.9454 45.7044 39.9454Z" fill="#33363A"/>
<path d="M59.9379 38.2985C58.9576 41.2394 53.3112 65.7462 56.2521 66.7265C59.193 67.7068 69.6231 44.8467 70.6033 41.9059C71.5835 38.9652 69.7406 36.6125 66.7999 35.6322C63.8591 34.6518 60.9575 35.3576 59.9379 38.2985Z" fill="#FFE108"/>
<path d="M59.9379 38.2986C58.9576 41.2395 53.3112 65.7463 56.2521 66.7266C59.193 67.7069 69.6231 44.8468 70.6033 41.906C71.5835 38.9653 69.1525 38.2986 66.2117 37.3183C63.2709 36.2988 60.9575 35.3577 59.9379 38.2986Z" fill="#FFB206"/>
<path d="M59.9379 38.2986C58.9576 41.2395 53.3112 65.7463 56.2521 66.7266C59.193 67.7069 69.6231 44.8468 70.6033 41.906" fill="#FF8103"/>
<path d="M56.2522 66.7265C54.0171 65.9815 56.7228 51.7479 58.6049 43.592L68.4468 46.925C64.9962 54.571 58.4872 67.5107 56.2522 66.7265Z" fill="#FF6B06"/>
<path d="M56.2521 66.7265C54.6053 66.1776 55.6639 58.1393 57.1148 50.6892L65.3491 53.4732C61.9378 60.2567 57.899 67.3146 56.2521 66.7265Z" fill="#ED4706"/>
<path d="M56.2521 66.7266C55.0759 66.3345 55.2719 62.2957 55.9777 57.3551L62.173 59.4725C59.742 63.8249 57.3893 67.1187 56.2521 66.7266Z" fill="#D83705"/>
<path d="M56.4873 67.3931C56.2912 67.3931 56.1736 67.3539 56.056 67.3147C55.3502 67.0795 53.7033 66.4913 56.056 53.1595C57.2323 46.4937 58.8792 39.6318 59.389 38.1417C60.4085 35.1224 63.4669 33.9069 66.996 35.0832C70.5249 36.2595 72.1718 39.122 71.1524 42.102C70.6426 43.6312 67.7803 50.0618 64.6825 56.0611C59.4675 66.1383 57.4284 67.3931 56.4873 67.3931ZM60.5261 38.4945C60.0164 39.9453 58.4087 46.6505 57.2324 53.2379C55.0758 65.4325 56.4482 66.1776 56.4482 66.1776C56.4482 66.1776 58.0167 66.4128 63.7022 55.4337C66.7607 49.5129 69.5839 43.1999 70.0545 41.7099C71.0347 38.8082 68.7997 36.9261 66.6039 36.1811C64.4081 35.4361 61.5064 35.5929 60.5261 38.4945Z" fill="#33363A"/>
<path d="M66.9568 35.8674C67.5057 35.7497 67.8586 35.24 67.7409 34.6911C67.3096 32.5736 68.682 30.4955 70.7994 30.1033C71.3484 29.9857 71.7012 29.476 71.5836 28.9271C71.466 28.3781 70.9563 28.0252 70.4073 28.1429C67.2312 28.7702 65.153 31.9072 65.7805 35.0832C65.8981 35.6321 66.4078 35.9851 66.9568 35.8674Z" fill="#92FC6B"/>
<path d="M70.6817 29.476C70.9562 29.4367 71.2699 29.476 71.4659 29.6721C71.3091 29.9073 71.1131 30.0642 70.7994 30.1426C68.6819 30.574 67.3095 32.6129 67.7409 34.7304C67.8585 35.2793 67.5056 35.789 66.9567 35.9067C66.5646 35.985 66.1725 35.8283 65.9371 35.5146C65.8195 32.6128 67.7801 30.0249 70.6817 29.476Z" fill="#70D63A"/>
<path d="M66.7607 36.4948C66.447 36.4948 66.1333 36.4164 65.898 36.2203C65.5451 35.9851 65.3098 35.6321 65.2314 35.2008C64.5256 31.711 66.7999 28.2605 70.3289 27.5547C71.1915 27.3978 72.015 27.9468 72.1718 28.8094C72.3287 29.6721 71.7797 30.4955 70.9171 30.6524C69.1134 31.0053 67.9371 32.7698 68.2899 34.5735C68.3683 35.0048 68.2899 35.3969 68.0547 35.7497C67.8194 36.1026 67.4665 36.3379 67.0351 36.4163C66.9568 36.4948 66.8392 36.4948 66.7607 36.4948ZM70.6034 28.7309C70.5641 28.7309 70.5641 28.7309 70.525 28.7309C67.6626 29.3191 65.7805 32.1031 66.3686 34.9655C66.4078 35.0832 66.447 35.1617 66.5254 35.24C66.6038 35.3184 66.7215 35.3184 66.8392 35.3184C66.9568 35.2792 67.0353 35.24 67.1136 35.1615C67.192 35.0832 67.192 34.9654 67.192 34.8478C66.7214 32.4168 68.2899 30.0249 70.721 29.5544C70.9562 29.5151 71.0738 29.2799 71.0347 29.0838C70.9563 28.8487 70.7995 28.7309 70.6034 28.7309Z" fill="#33363A"/>
<path d="M67.4273 35.6714C67.8586 35.3185 67.8979 34.6911 67.5057 34.2597C66.094 32.6521 66.2509 30.1426 67.8585 28.7309C68.2506 28.3781 68.3291 27.7507 67.9369 27.3193C67.584 26.888 66.9566 26.8487 66.5253 27.2409C64.0942 29.3975 63.8197 33.1226 65.9763 35.5536C66.4078 35.9851 67.0351 36.0242 67.4273 35.6714Z" fill="#92FC6B"/>
<path d="M67.4664 28.2213C67.7016 28.0251 67.9761 27.9468 68.2506 27.986C68.2506 28.2605 68.133 28.535 67.8978 28.7311C66.2901 30.1427 66.1333 32.6521 67.5449 34.2599C67.8977 34.6912 67.8586 35.3185 67.4665 35.6715C67.1528 35.946 66.7215 35.9852 66.3686 35.8283C64.8393 33.3971 65.2315 30.1818 67.4664 28.2213Z" fill="#70D63A"/>
<path d="M66.7999 36.4948C66.7606 36.4948 66.7215 36.4948 66.6822 36.4948C66.2509 36.4556 65.8588 36.2596 65.5843 35.9459C64.4472 34.6519 63.8591 32.9659 63.9767 31.2405C64.0943 29.5153 64.8785 27.9075 66.1725 26.7705C66.8391 26.1823 67.8194 26.2608 68.4076 26.9274C68.9958 27.5939 68.9173 28.5742 68.2507 29.1624C67.5842 29.7506 67.1921 30.5741 67.1136 31.4366C67.0743 32.3384 67.3488 33.1619 67.937 33.8285C68.2115 34.1423 68.3683 34.5344 68.3291 34.9657C68.2899 35.397 68.0939 35.7891 67.7801 36.0636C67.5449 36.3772 67.1528 36.4948 66.7999 36.4948ZM67.2312 27.5939C67.1528 27.5939 67.0351 27.6332 66.9567 27.7116C65.898 28.6526 65.2706 29.9466 65.153 31.3581C65.0746 32.7698 65.5058 34.1422 66.447 35.2008C66.5254 35.2792 66.6039 35.3184 66.7215 35.3577C66.8391 35.3577 66.9176 35.3184 67.0352 35.2401C67.1136 35.1617 67.1528 35.0832 67.1528 34.9656C67.1528 34.848 67.1136 34.7695 67.0352 34.6911C66.251 33.7893 65.8589 32.6129 65.9373 31.4366C66.0157 30.2211 66.5646 29.1232 67.4665 28.339C67.6234 28.1821 67.6626 27.9469 67.5058 27.7508C67.4664 27.6331 67.3488 27.5939 67.2312 27.5939Z" fill="#33363A"/>
<path d="M67.0351 34.1814C66.6823 33.7501 66.7214 33.1227 67.1135 32.7698C68.7211 31.3581 68.878 28.8487 67.4663 27.241C67.1135 26.8096 67.1526 26.1823 67.5447 25.8293C67.9368 25.4764 68.6034 25.5156 68.9563 25.9077C71.1129 28.3388 70.8777 32.1031 68.4074 34.2204C68.0154 34.6519 67.3881 34.6127 67.0351 34.1814Z" fill="#92FC6B"/>
<path d="M67.9763 26.8488C67.7802 26.6136 67.5057 26.5351 67.2312 26.496C67.192 26.7704 67.2705 27.0449 67.4665 27.2802C68.8781 28.8878 68.7212 31.3973 67.1136 32.8089C66.6823 33.1618 66.643 33.7892 67.0352 34.2206C67.3097 34.5343 67.7411 34.6127 68.0939 34.4951C69.8976 32.2991 69.9368 29.0446 67.9763 26.8488Z" fill="#70D63A"/>
<path d="M67.7802 35.1224C67.741 35.1224 67.7018 35.1224 67.6626 35.1224C67.2313 35.0831 66.8392 34.8871 66.5647 34.5734C66.2902 34.2597 66.1334 33.8676 66.1726 33.4363C66.2118 33.0049 66.4078 32.6128 66.7216 32.3384C68.0939 31.1228 68.2508 29.0054 67.0353 27.633C66.4471 26.9664 66.5256 25.9861 67.1921 25.3979C67.5058 25.1235 67.8979 24.9666 68.3293 25.0058C68.7606 25.0451 69.1527 25.2411 69.4272 25.5548C70.5643 26.8488 71.1524 28.5348 71.0348 30.2602C70.9172 31.9854 70.133 33.5931 68.839 34.7302C68.5253 35.0048 68.1723 35.1224 67.7802 35.1224ZM68.2508 26.2215C68.1332 26.2215 68.0547 26.2607 67.9763 26.3391C67.8195 26.496 67.7802 26.7312 67.9371 26.9273C69.5839 28.8094 69.3878 31.6327 67.5057 33.2795C67.3489 33.4364 67.3096 33.6716 67.4665 33.8677C67.5449 33.9461 67.6234 33.9853 67.741 33.9853C67.8586 33.9853 67.9371 33.9461 68.0155 33.8677C69.0741 32.9267 69.7016 31.6327 69.8192 30.2211C69.9368 28.8095 69.4663 27.4371 68.5252 26.3784C68.486 26.2606 68.3684 26.2215 68.2508 26.2215Z" fill="#33363A"/>
<path d="M66.7998 33.7109C66.6822 33.1619 67.0351 32.6522 67.584 32.5346C69.7015 32.1032 71.0739 30.0643 70.6425 27.9468C70.5249 27.3979 70.8778 26.8882 71.4267 26.7705C71.9757 26.6529 72.4854 27.0058 72.603 27.5547C73.2303 30.7308 71.1522 33.8677 67.9761 34.495C67.4273 34.6128 66.8783 34.2598 66.7998 33.7109Z" fill="#92FC6B"/>
<path d="M71.27 27.8292C71.2308 27.5547 71.0348 27.3195 70.7994 27.1626C70.6426 27.3978 70.5642 27.6723 70.6033 27.9468C71.0347 30.0642 69.6623 32.1423 67.5449 32.5345C66.9959 32.6521 66.643 33.1619 66.7607 33.7108C66.839 34.1029 67.1528 34.4166 67.5449 34.495C70.2112 33.5148 71.8581 30.6916 71.27 27.8292Z" fill="#70D63A"/>
<path d="M67.7409 35.1225C66.9959 35.1225 66.3293 34.6128 66.1725 33.8677C66.0156 33.005 66.5646 32.1816 67.4272 32.0247C69.231 31.6719 70.4072 29.9073 70.0544 28.1037C69.8975 27.241 70.4465 26.4176 71.3092 26.2607C71.7405 26.1823 72.1326 26.2607 72.4854 26.4959C72.8383 26.7312 73.0736 27.0841 73.152 27.5155C73.8578 31.0053 71.5835 34.4558 68.0546 35.1616C67.9763 35.1225 67.8586 35.1225 67.7409 35.1225ZM67.3489 33.6325C67.3881 33.8677 67.6233 33.9853 67.8194 33.9462C70.6818 33.358 72.5639 30.5741 71.9758 27.7116C71.9366 27.594 71.8975 27.5155 71.819 27.4371C71.7406 27.3587 71.6229 27.3587 71.5053 27.3587C71.27 27.398 71.1524 27.6332 71.1915 27.8293C71.6621 30.2604 70.0936 32.6523 67.6626 33.1228C67.4665 33.1619 67.3096 33.3971 67.3489 33.6325Z" fill="#33363A"/>
<path d="M66.3686 36.8086C65.8588 36.6517 65.5844 36.0635 65.7412 35.5538C66.447 33.5148 65.3491 31.2798 63.3102 30.574C62.8005 30.4171 62.526 29.8289 62.6828 29.3192C62.8789 28.8095 63.4279 28.535 63.9376 28.6919C67.0352 29.7505 68.6821 33.0835 67.6234 36.1811C67.4665 36.6908 66.9175 36.9653 66.3686 36.8086Z" fill="#92FC6B"/>
<path d="M63.5061 29.9466C63.2316 29.8682 62.9572 29.9073 62.7219 30.0249C62.8395 30.2602 63.0356 30.4955 63.3101 30.5739C65.3491 31.2797 66.447 33.4755 65.7412 35.5537C65.5843 36.0634 65.8588 36.6516 66.3685 36.8085C66.7606 36.9261 67.1527 36.8085 67.4272 36.534C67.8978 33.7107 66.2901 30.8876 63.5061 29.9466Z" fill="#70D63A"/>
<path d="M66.6823 37.4358C66.5254 37.4358 66.3294 37.3966 66.1726 37.3575C65.3491 37.083 64.9178 36.1812 65.1923 35.3577C65.4668 34.5343 65.4275 33.6325 65.0354 32.8091C64.6433 32.0249 63.9768 31.3974 63.1141 31.123C62.2907 30.8485 61.8593 29.9467 62.1338 29.1232C62.4083 28.2998 63.3101 27.8685 64.1335 28.1429C65.7804 28.6919 67.1135 29.8682 67.8586 31.4367C68.6428 33.0052 68.7604 34.7696 68.1723 36.3773C68.0547 36.7694 67.741 37.0831 67.3881 37.2791C67.192 37.3966 66.9568 37.4358 66.6823 37.4358ZM63.6238 29.2408C63.4669 29.2408 63.3101 29.3584 63.2317 29.5152C63.1533 29.7113 63.2709 29.9466 63.4669 30.0249C64.6041 30.417 65.5059 31.2012 66.0549 32.2991C66.6038 33.397 66.6822 34.6126 66.2901 35.7497C66.2117 35.9458 66.3293 36.1811 66.5253 36.2594C66.6429 36.2987 66.7214 36.2987 66.839 36.2202C66.9174 36.181 66.9959 36.1026 67.0351 35.985C67.5057 34.6518 67.388 33.2009 66.7607 31.9462C66.1333 30.6914 65.0354 29.7111 63.7022 29.2798C63.7023 29.2408 63.663 29.2408 63.6238 29.2408Z" fill="#33363A"/>
<path d="M66.4078 36.8086C66.9175 36.9654 67.5057 36.691 67.6625 36.1813C68.3683 34.1423 70.5642 33.0444 72.6424 33.711C73.1521 33.8678 73.7403 33.5933 73.8971 33.0836C74.054 32.5739 73.7795 31.9857 73.2698 31.8289C70.1722 30.7702 66.8392 32.4562 65.7805 35.5147C65.6236 36.0635 65.8981 36.6517 66.4078 36.8086Z" fill="#92FC6B"/>
<path d="M72.8384 33.1225C73.1129 33.2009 73.309 33.4363 73.4266 33.6715C73.1913 33.7891 72.9169 33.8284 72.6424 33.7499C70.6034 33.0441 68.3684 34.142 67.6626 36.2202C67.5057 36.7299 66.9175 37.0044 66.4078 36.8475C66.0157 36.7299 65.7805 36.3769 65.7412 35.9848C67.0744 33.4363 70.0544 32.1815 72.8384 33.1225Z" fill="#70D63A"/>
<path d="M66.7215 37.4751C66.5646 37.4751 66.3686 37.4358 66.2118 37.3967C65.8197 37.2791 65.506 36.9654 65.31 36.6125C65.1139 36.2597 65.1139 35.7891 65.2316 35.397C66.3687 32.0249 70.0546 30.1819 73.4659 31.3191C74.2893 31.5936 74.7207 32.4954 74.4462 33.3188C74.1717 34.1422 73.2699 34.5736 72.4465 34.2991C70.7212 33.7109 68.7999 34.6519 68.2117 36.3773C68.0154 37.0437 67.3881 37.4751 66.7215 37.4751ZM66.6039 36.2596C66.8 36.3379 67.0352 36.2203 67.1136 36.0243C67.8978 33.6716 70.4857 32.4169 72.8384 33.2012C73.0345 33.2796 73.2697 33.1619 73.3481 32.9659C73.4265 32.7698 73.3088 32.5346 73.0736 32.4562C70.2896 31.5152 67.2703 33.0052 66.3293 35.7892C66.2901 35.9068 66.2901 35.9853 66.3685 36.1029C66.4078 36.1418 66.4862 36.2203 66.6039 36.2596Z" fill="#33363A"/>
<path d="M70.2112 42.3765C70.1329 42.3765 70.0936 42.3765 70.0151 42.3372L67.4272 41.4745C67.1135 41.3569 66.9567 41.0432 67.0744 40.7295C67.192 40.4158 67.5057 40.2589 67.8194 40.3766L70.4074 41.2393C70.7211 41.3569 70.8779 41.6706 70.7602 41.9844C70.6818 42.2196 70.4466 42.3765 70.2112 42.3765Z" fill="#33363A"/>
<path d="M65.7412 40.808C65.6628 40.808 65.6236 40.808 65.5451 40.7687L65.1138 40.6119C64.8 40.4943 64.6432 40.1805 64.7217 39.8668C64.8393 39.5531 65.153 39.3962 65.4667 39.4747L65.8981 39.6316C66.2118 39.7492 66.3686 40.0629 66.2902 40.3766C66.2117 40.6512 65.9764 40.808 65.7412 40.808Z" fill="#33363A"/>
<path d="M63.5454 40.1022C63.467 40.1022 63.4278 40.1022 63.3493 40.063L63.1532 40.0237C62.8395 39.9061 62.6826 39.5924 62.7611 39.2787C62.8787 38.965 63.1924 38.8081 63.5062 38.8866L63.7023 38.9258C64.016 39.0434 64.1728 39.3572 64.0944 39.6709C64.0159 39.9454 63.7806 40.1022 63.5454 40.1022Z" fill="#33363A"/>
<path d="M61.8592 39.5141C61.7809 39.5141 61.7416 39.5141 61.6631 39.4748L61.467 39.4356C61.1533 39.318 60.9965 39.0043 61.0749 38.6905C61.1926 38.3768 61.5063 38.22 61.82 38.2985L62.0161 38.3377C62.3298 38.4553 62.4867 38.769 62.4082 39.0827C62.369 39.3572 62.1337 39.5141 61.8592 39.5141Z" fill="#33363A"/>
<path d="M69.1525 45.4741C69.0742 45.4741 69.0349 45.4741 68.9564 45.4349L66.3685 44.5722C66.0548 44.4546 65.8979 44.1409 66.0157 43.8271C66.1333 43.5134 66.447 43.3566 66.7607 43.4743L69.3486 44.337C69.6624 44.4546 69.8192 44.7683 69.7015 45.082C69.6231 45.3174 69.3878 45.4741 69.1525 45.4741Z" fill="#33363A"/>
<path d="M64.6825 43.9449C64.6041 43.9449 64.5649 43.9449 64.4864 43.9057L64.0551 43.7488C63.7413 43.6312 63.5845 43.3175 63.663 43.0038C63.7806 42.6901 64.0943 42.5332 64.408 42.6117L64.8393 42.7685C65.1531 42.8862 65.3099 43.1999 65.2314 43.5136C65.153 43.7881 64.9177 43.9449 64.6825 43.9449Z" fill="#33363A"/>
<path d="M62.4867 43.1999C62.4474 43.1999 62.3691 43.1999 62.2906 43.1606L62.0945 43.1214C61.7808 43.043 61.6239 42.6901 61.7024 42.3763C61.7809 42.0626 62.1337 41.9058 62.4474 41.9842L62.6435 42.0235C62.9573 42.1019 63.1141 42.4548 63.0356 42.7685C62.9572 43.043 62.7219 43.1999 62.4867 43.1999Z" fill="#33363A"/>
<path d="M60.8006 42.6509C60.7614 42.6509 60.683 42.6509 60.6045 42.6117L60.4084 42.5724C60.0947 42.4548 59.9379 42.1411 60.0163 41.8274C60.0947 41.5137 60.4477 41.3568 60.7614 41.4353L60.9575 41.4745C61.2712 41.5922 61.4281 41.9059 61.3496 42.2196C61.3104 42.4941 61.0751 42.6509 60.8006 42.6509Z" fill="#33363A"/>
<path d="M67.9371 48.5326C67.8587 48.5326 67.8195 48.5326 67.741 48.4933L65.1531 47.6307C64.8393 47.513 64.6825 47.1993 64.8002 46.8856C64.9178 46.5719 65.2315 46.415 65.5453 46.5328L68.1332 47.3954C68.4469 47.513 68.6038 47.8268 68.486 48.1405C68.4075 48.415 68.1723 48.5326 67.9371 48.5326Z" fill="#33363A"/>
<path d="M63.4669 47.0033C63.4277 47.0033 63.3493 47.0033 63.2708 46.964L62.8395 46.8072C62.5258 46.6896 62.3689 46.3758 62.4474 46.0621C62.565 45.7484 62.8787 45.5916 63.1924 45.67L63.6238 45.8269C63.9375 45.9445 64.0943 46.2582 64.0159 46.5719C63.9375 46.8464 63.7023 47.0033 63.4669 47.0033Z" fill="#33363A"/>
<path d="M61.2711 46.2975C61.1927 46.2975 61.1535 46.2975 61.075 46.2583L60.8789 46.2191C60.5652 46.1014 60.4083 45.7877 60.4868 45.474C60.6044 45.1603 60.9181 45.0034 61.2319 45.0819L61.428 45.1211C61.7417 45.2388 61.8985 45.5525 61.8201 45.8662C61.7417 46.1015 61.5064 46.2975 61.2711 46.2975Z" fill="#33363A"/>
<path d="M59.5851 45.7094C59.5458 45.7094 59.4675 45.7094 59.389 45.6702L59.1929 45.6309C58.8791 45.5525 58.7223 45.1996 58.8008 44.8859C58.9184 44.5721 59.2321 44.4153 59.5458 44.4938L59.7419 44.533C60.0556 44.6114 60.2125 44.9643 60.134 45.2781C60.0948 45.5525 59.8595 45.7094 59.5851 45.7094Z" fill="#33363A"/>
<path d="M66.4862 51.5126C66.4078 51.5126 66.3685 51.5126 66.2901 51.4733L63.7021 50.6106C63.3884 50.493 63.2316 50.1793 63.3493 49.8656C63.4669 49.5519 63.7806 49.395 64.0943 49.5127L66.6823 50.3754C66.996 50.493 67.1528 50.8067 67.0351 51.1205C66.9567 51.3949 66.7215 51.5126 66.4862 51.5126Z" fill="#33363A"/>
<path d="M62.0162 49.9834C61.9378 49.9834 61.8985 49.9834 61.8201 49.9441L61.3495 49.7873C61.0358 49.6697 60.8789 49.356 60.9574 49.0422C61.075 48.7285 61.3887 48.5717 61.7024 48.6501L62.173 48.807C62.4867 48.9246 62.6436 49.2383 62.5651 49.5521C62.4867 49.8265 62.2514 49.9834 62.0162 49.9834Z" fill="#33363A"/>
<path d="M59.8203 49.2776C59.7419 49.2776 59.7027 49.2776 59.6242 49.2384L59.4281 49.1992C59.1144 49.0815 58.9575 48.7678 59.036 48.4541C59.1536 48.1404 59.4673 47.9835 59.7811 48.062L59.9772 48.1012C60.2909 48.2189 60.4477 48.5326 60.3693 48.8463C60.2909 49.0815 60.0555 49.2776 59.8203 49.2776Z" fill="#33363A"/>
<path d="M58.1343 48.6894C58.0559 48.6894 58.0166 48.6894 57.9382 48.6501L57.7421 48.6109C57.4283 48.4933 57.2715 48.1796 57.35 47.8658C57.4676 47.5521 57.7813 47.3953 58.095 47.4737L58.2911 47.513C58.6048 47.6306 58.7617 47.9443 58.6832 48.258C58.6048 48.5325 58.4087 48.6894 58.1343 48.6894Z" fill="#33363A"/>
<path d="M64.9962 54.5318C64.9178 54.5318 64.8785 54.5318 64.8001 54.4925L62.369 53.6691C62.0553 53.5515 61.8984 53.2378 62.0162 52.9241C62.1338 52.6103 62.4475 52.4535 62.7612 52.5712L65.1923 53.3946C65.506 53.5123 65.6628 53.826 65.5451 54.1397C65.4667 54.375 65.2706 54.5318 64.9962 54.5318Z" fill="#33363A"/>
<path d="M60.8398 53.081C60.8006 53.081 60.7222 53.081 60.6437 53.0417L60.2124 52.9241C59.8987 52.8458 59.7418 52.4928 59.8203 52.1791C59.8987 51.8654 60.2516 51.7085 60.5654 51.787L60.9967 51.9046C61.3104 51.983 61.4673 52.3359 61.3888 52.6497C61.3103 52.9241 61.0751 53.081 60.8398 53.081Z" fill="#33363A"/>
<path d="M58.8008 52.4145C58.7616 52.4145 58.6832 52.4145 58.6047 52.3752L58.4479 52.336C58.1342 52.2184 57.9773 51.9047 58.0558 51.5909C58.1342 51.2772 58.4871 51.1204 58.8008 51.1988L58.9577 51.2381C59.2714 51.3557 59.4283 51.6694 59.3498 51.9831C59.2714 52.2184 59.0753 52.4145 58.8008 52.4145Z" fill="#33363A"/>
<path d="M57.2325 51.8655C57.1932 51.8655 57.1149 51.8655 57.0364 51.8263L56.8795 51.787C56.5658 51.6694 56.4089 51.3557 56.4874 51.042C56.5658 50.7283 56.9188 50.5714 57.2325 50.6499L57.3893 50.6891C57.703 50.8068 57.8599 51.1205 57.7814 51.4342C57.7422 51.7087 57.507 51.8655 57.2325 51.8655Z" fill="#33363A"/>
<path d="M63.4669 57.4726C63.3885 57.4726 63.3492 57.4726 63.2708 57.4334L60.6829 56.5707C60.3691 56.4531 60.2123 56.1394 60.33 55.8257C60.4476 55.512 60.7613 55.3551 61.0751 55.4728L63.663 56.3355C63.9767 56.4531 64.1335 56.7668 64.0158 57.0805C63.9374 57.3158 63.7022 57.4726 63.4669 57.4726Z" fill="#33363A"/>
<path d="M58.9969 55.9042C58.9577 55.9042 58.8793 55.9042 58.8008 55.8649L58.3695 55.7081C58.0558 55.5904 57.8989 55.2767 57.9774 54.963C58.0558 54.6493 58.4087 54.4924 58.7225 54.5709L59.1538 54.7278C59.4675 54.8454 59.6244 55.1591 59.5459 55.4728C59.4675 55.7474 59.2322 55.9042 58.9969 55.9042Z" fill="#33363A"/>
<path d="M56.8011 55.1985C56.7228 55.1985 56.6835 55.1985 56.605 55.1593L56.4089 55.1201C56.0952 55.0024 55.9384 54.6887 56.0168 54.375C56.1345 54.0613 56.4482 53.9044 56.7619 53.9829L56.958 54.0221C57.2717 54.1398 57.4286 54.4535 57.3501 54.7672C57.3108 55.0417 57.0756 55.1985 56.8011 55.1985Z" fill="#33363A"/>
<path d="M61.8593 60.4136C61.7809 60.4136 61.7417 60.4136 61.6632 60.3743L59.0753 59.5116C58.7616 59.394 58.6047 59.0803 58.7225 58.7666C58.8401 58.4529 59.1538 58.296 59.4675 58.4137L62.0554 59.2764C62.3691 59.394 62.526 59.7077 62.4083 60.0215C62.3299 60.2567 62.0946 60.4136 61.8593 60.4136Z" fill="#33363A"/>
<path d="M57.3893 58.8451C57.35 58.8451 57.2717 58.8451 57.1932 58.8058L56.7618 58.649C56.4481 58.5314 56.2913 58.2176 56.3697 57.9039C56.4481 57.5902 56.8011 57.4333 57.1148 57.5118L57.5461 57.6687C57.8599 57.7863 58.0167 58.1 57.9382 58.4137C57.8597 58.6882 57.6245 58.8451 57.3893 58.8451Z" fill="#33363A"/>
<path d="M60.1341 63.276C60.0557 63.276 60.0165 63.276 59.938 63.2367L57.3501 62.3741C57.0364 62.2565 56.8795 61.9427 56.9972 61.629C57.1149 61.3153 57.4286 61.1584 57.7423 61.2762L60.3302 62.1388C60.6439 62.2565 60.8008 62.5702 60.6831 62.8839C60.6046 63.1191 60.3693 63.276 60.1341 63.276Z" fill="#33363A"/>
<path d="M56.056 61.8644C55.9776 61.8644 55.9384 61.8644 55.8599 61.8251L55.4286 61.6683C55.1149 61.5506 54.958 61.2369 55.0365 60.9232C55.1541 60.6095 55.4678 60.4526 55.7815 60.5311L56.2129 60.688C56.5266 60.8056 56.6835 61.1193 56.605 61.433C56.5266 61.7075 56.2914 61.8644 56.056 61.8644Z" fill="#33363A"/>
<path d="M58.2127 66.0991C58.1343 66.0991 58.0951 66.0991 58.0166 66.0599L55.4287 65.1972C55.115 65.0796 54.9581 64.7659 55.0758 64.4521C55.1935 64.1384 55.5072 63.9816 55.8209 64.0993L58.4088 64.962C58.7225 65.0796 58.8794 65.3933 58.7617 65.707C58.6832 65.9422 58.448 66.0991 58.2127 66.0991Z" fill="#33363A"/>
<path d="M68.0547 62.4133C68.0547 69.1184 61.6633 69.3929 53.7818 69.3929C45.9004 69.3929 39.509 69.1184 39.509 62.4133C39.509 55.7082 45.9004 50.2579 53.7818 50.2579C61.6633 50.2579 68.0547 55.7082 68.0547 62.4133Z" fill="#C17E25"/>
<path d="M68.0547 62.4133C68.0547 69.1184 61.6633 69.3929 53.7818 69.3929C45.9004 69.3929 39.509 69.1184 39.509 62.4133C39.509 55.7082 45.9004 50.2579 53.7818 50.2579C61.6633 50.2579 68.0547 55.7082 68.0547 62.4133Z" fill="white"/>
<path d="M68.0547 62.4133C68.0547 69.1183 61.6633 69.3928 53.7818 69.3928C45.9004 69.3928 39.509 69.1183 39.509 62.4133C39.509 55.7082 45.9004 62.4525 53.7818 62.4525C61.6633 62.4525 68.0547 55.7082 68.0547 62.4133Z" fill="#F4F3E9"/>
<path d="M53.7819 65.9031C46.6847 65.9031 40.803 60.4528 39.6659 64.217C40.7638 69.1576 46.6847 69.3537 53.7819 69.3537C60.879 69.3537 66.7607 69.1185 67.8978 64.217C66.7607 60.492 60.879 65.9031 53.7819 65.9031Z" fill="#E0DECE"/>
<path d="M53.7818 69.981C46.4493 69.981 38.9208 69.981 38.9208 62.4132C38.9208 55.3945 45.5866 49.6697 53.7818 49.6697C61.977 49.6697 68.6428 55.3945 68.6428 62.4132C68.6428 69.981 61.0751 69.981 53.7818 69.981ZM53.7818 50.846C46.214 50.846 40.0972 56.0218 40.0972 62.4132C40.0972 68.3734 45.5083 68.8046 53.7818 68.8046C62.0552 68.8046 67.4664 68.3733 67.4664 62.4132C67.4664 56.0219 61.3495 50.846 53.7818 50.846Z" fill="#33363A"/>
<path d="M60.683 60.4528C60.683 66.9226 57.5853 67.6284 53.7818 67.6284C49.9783 67.6284 46.8806 66.9226 46.8806 60.4528C46.8806 57.1198 49.9782 54.4535 53.7818 54.4535C57.5852 54.4535 60.683 57.1199 60.683 60.4528Z" fill="#D3D1C1"/>
<path d="M60.683 60.4528C60.683 63.7857 57.5853 65.2365 53.7818 65.2365C49.9783 65.2365 46.8806 63.7857 46.8806 60.4528C46.8806 57.1198 49.9782 54.4535 53.7818 54.4535C57.5852 54.4535 60.683 57.1199 60.683 60.4528Z" fill="#FFBC00"/>
<path d="M53.7818 55.5906C57.3892 55.5906 60.33 57.9825 60.683 61.0018C60.7222 60.8057 60.7222 60.6097 60.7222 60.4136C60.7222 57.0806 57.6246 54.4143 53.821 54.4143C50.0176 54.4143 46.8807 57.1198 46.8807 60.4136C46.8807 60.6097 46.8807 60.8057 46.92 61.0018C47.2336 57.9824 50.1744 55.5906 53.7818 55.5906Z" fill="#FFCE00"/>
<path d="M60.683 60.4528C60.683 63.7857 57.5853 65.2365 53.7818 65.2365C49.9783 65.2365 46.8806 63.7857 46.8806 60.4528C46.8806 57.1198 49.9782 60.4528 53.7818 60.4528C57.5852 60.4528 60.683 57.1199 60.683 60.4528Z" fill="#FF9100"/>
<path d="M53.7819 65.8246C49.155 65.8246 46.2926 63.7857 46.2926 60.4527C46.2926 56.8061 49.6647 53.8652 53.7819 53.8652C57.9383 53.8652 61.3104 56.8061 61.3104 60.4527C61.2711 63.7464 58.4087 65.8246 53.7819 65.8246ZM53.7819 55.0416C50.292 55.0416 47.4689 57.4727 47.4689 60.4528C47.4689 64.3347 52.3311 64.6483 53.7819 64.6483C55.2326 64.6483 60.1341 64.3346 60.1341 60.4528C60.0948 57.4727 57.2717 55.0416 53.7819 55.0416Z" fill="#33363A"/>
<path d="M48.9197 59.394C48.8804 59.394 48.8413 59.394 48.8021 59.394C48.3707 59.3156 48.057 58.9234 48.1355 58.4922C48.4492 56.2964 51.5468 54.8848 53.0761 54.8848C53.5074 54.8848 53.8603 55.2376 53.8603 55.669C53.8603 56.1003 53.5074 56.4531 53.0761 56.4531C52.0565 56.4531 49.8607 57.4727 49.6647 58.6882C49.6255 59.1195 49.2726 59.394 48.9197 59.394Z" fill="#FFEF5A"/>
<path d="M48.802 61.1585C48.7628 61.1585 48.7236 61.1585 48.6844 61.1585C48.253 61.0801 47.9393 60.6879 48.0178 60.2567C48.0962 59.7469 48.5668 59.4332 48.9981 59.4332C49.4294 59.4332 49.7823 59.7861 49.7823 60.2174C49.7823 60.5311 49.5862 60.8056 49.351 60.9232C49.1941 61.0801 48.9981 61.1585 48.802 61.1585Z" fill="#FFEF5A"/>
<path d="M48.8804 62.0604C48.8804 62.0604 48.8412 62.0604 48.802 62.0604C48.6059 62.0212 48.4492 61.8252 48.4883 61.6291C48.5276 61.3939 48.7236 61.2762 48.9197 61.2762C49.1549 61.2762 49.3118 61.4331 49.3118 61.6683C49.3118 61.8252 49.2334 61.9428 49.1157 62.0212C49.0764 62.0212 48.998 62.0604 48.8804 62.0604Z" fill="#FFEF5A"/>
</g>
<defs>
<clipPath id="clip0_15_101">
<rect width="50" height="50" fill="white" transform="translate(25 25)"/>
</clipPath>
</defs>
</svg>
