<svg width="100" height="100" viewBox="0 0 100 100" fill="none" xmlns="http://www.w3.org/2000/svg">
<circle cx="50" cy="50" r="49.5" stroke="#F6B211"/>
<circle cx="50" cy="50" r="46.5" stroke="#F6B211"/>
<g clip-path="url(#clip0_15_96)">
<path d="M34.8145 26.2575H40.7665V32.8226H44.0272V23.9049C44.0272 23.4072 43.6196 23 43.1214 23H34.8145C34.3162 23 33.9087 23.4072 33.9087 23.9049V25.3527C33.9087 25.8502 34.3162 26.2575 34.8145 26.2575Z" fill="#E6E9ED"/>
<path d="M46.5739 42.4319H29.0602L30.656 59.7794L46.5739 42.4319Z" fill="#E23C38"/>
<path d="M31.6375 70.4473L32.1905 76.459C32.2178 76.7566 32.485 77 32.784 77H51.7304C52.0295 77 52.2967 76.7564 52.3241 76.459L55.2438 44.7209L31.6375 70.4473Z" fill="#E23C38"/>
<path d="M46.574 42.4319L30.6561 59.7794L31.6374 70.4473L55.2437 44.7209L55.4543 42.4319H46.574Z" fill="#E6E9ED"/>
<path opacity="0.1" d="M35.1801 76.4591L32.0498 42.432H29.0602L32.1905 76.4591C32.2178 76.7566 32.485 77 32.784 77H35.7738C35.4746 77 35.2074 76.7565 35.1801 76.4591Z" fill="black"/>
<path d="M54.5648 37.8591V32.8265C54.5648 32.5277 54.3202 32.2832 54.021 32.2832H30.5935C30.2944 32.2832 30.0497 32.5277 30.0497 32.8265V37.859H54.5648V37.8591Z" fill="#B1E8FF"/>
<path opacity="0.1" d="M33.5774 37.8591V32.8265C33.5774 32.5277 33.822 32.2832 34.1211 32.2832H30.5935C30.2944 32.2832 30.0497 32.5277 30.0497 32.8265V37.859H33.5774V37.8591Z" fill="black"/>
<path d="M58.8603 41.8886C58.8603 42.1873 58.6156 42.4318 58.3165 42.4318H26.2987C25.9996 42.4318 25.7549 42.1873 25.7549 41.8886V37.7951C25.7549 37.4963 25.9996 37.2518 26.2987 37.2518H58.3164C58.6155 37.2518 58.8601 37.4963 58.8601 37.7951L58.8603 41.8886Z" fill="#74B9DF"/>
<path opacity="0.1" d="M29.3359 41.8886V37.7951C29.3359 37.4963 29.5806 37.2518 29.8796 37.2518H26.2987C25.9996 37.2518 25.7549 37.4963 25.7549 37.7951V41.8886C25.7549 42.1873 25.9996 42.4318 26.2987 42.4318H29.8796C29.5807 42.4318 29.3359 42.1873 29.3359 41.8886Z" fill="black"/>
<path d="M53.0273 76.9999C51.1958 76.9999 49.4658 76.2955 48.156 75.0164C46.8488 73.7397 46.1042 72.0322 46.0594 70.2082C46.0547 70.0198 46.1264 69.8376 46.2578 69.7028C46.3896 69.568 46.5702 69.4919 46.7589 69.4919H72.6265C72.8147 69.4919 72.9953 69.568 73.127 69.7028C73.2588 69.8375 73.3304 70.0197 73.3258 70.2082C73.2807 72.0322 72.5364 73.7397 71.2293 75.0164C69.9194 76.2955 68.1894 76.9999 66.3575 76.9999H53.0273Z" fill="#FFAF68"/>
<path d="M74.2452 68.4803C74.2452 69.0779 73.7558 69.5668 73.1577 69.5668H46.2277C45.6296 69.5668 45.1403 69.0779 45.1403 68.4803V66.2937C45.1403 65.6961 45.6297 65.2072 46.2277 65.2072H73.1576C73.7558 65.2072 74.2451 65.6961 74.2451 66.2937V68.4803H74.2452Z" fill="#AB5436"/>
<path d="M46.7232 61.7754C46.527 61.7754 46.3415 61.6889 46.2154 61.5393C46.0891 61.3895 46.0357 61.1917 46.0693 60.9989C47.2208 54.3715 52.9501 49.5613 59.6926 49.5613C66.4351 49.5613 72.1648 54.3715 73.3161 60.9987C73.3495 61.1916 73.2965 61.3894 73.1703 61.5393C73.0442 61.6889 72.8581 61.7754 72.6625 61.7754H46.7232Z" fill="#FFAF68"/>
<path d="M74.2452 62.2305C74.2452 61.9317 74.0006 61.6873 73.7015 61.6873H45.684C45.3849 61.6873 45.1403 61.9317 45.1403 62.2305V64.6863C45.1403 64.9851 45.3849 65.2295 45.684 65.2295H63.2442C63.5433 65.2295 63.9797 65.3814 64.214 65.5671L65.783 66.8106C66.0174 66.9963 66.4007 66.9963 66.635 66.8106L68.2042 65.5671C68.4385 65.3814 68.8748 65.2295 69.174 65.2295H73.7014C74.0005 65.2295 74.2451 64.9851 74.2451 64.6863V62.2305H74.2452Z" fill="#FFBB4A"/>
<path opacity="0.1" d="M49.4472 70.2083C49.4424 70.0199 49.5141 69.8376 49.6456 69.7029C49.7006 69.6465 49.7644 69.6012 49.8335 69.5667H49.6155C49.0174 69.5667 48.528 69.0777 48.528 68.4802V66.2936C48.528 65.7711 48.9021 65.3318 49.3958 65.2296H49.0717C48.7727 65.2296 48.528 64.9851 48.528 64.6863V62.2306C48.528 61.9318 48.7727 61.6873 49.0717 61.6873H49.7817C49.7147 61.6491 49.6539 61.5996 49.603 61.5393C49.4768 61.3895 49.4233 61.1917 49.457 60.9989C50.5106 54.9345 55.3977 50.3925 61.3864 49.6644C60.8304 49.5968 60.2653 49.5613 59.6925 49.5613C52.95 49.5613 47.2207 54.3715 46.0692 60.9989C46.0356 61.1917 46.089 61.3895 46.2153 61.5393C46.2661 61.5996 46.327 61.6492 46.3939 61.6873H45.6839C45.3849 61.6873 45.1402 61.9318 45.1402 62.2306V64.6863C45.1402 64.9851 45.3849 65.2296 45.6839 65.2296H46.008C45.5142 65.3319 45.1401 65.7712 45.1401 66.2936V68.4802C45.1401 69.0777 45.6296 69.5667 46.2276 69.5667H46.4456C46.3765 69.6012 46.3127 69.6465 46.2577 69.7029C46.1263 69.8375 46.0546 70.0198 46.0593 70.2083C46.1041 72.0322 46.8486 73.7398 48.1559 75.0165C49.4658 76.2956 51.1957 77 53.0273 77H56.415C54.5834 77 52.8534 76.2956 51.5437 75.0165C50.2365 73.7398 49.492 72.0322 49.4472 70.2083Z" fill="black"/>
<path d="M62.5204 54.2145H61.9521C61.5152 54.2145 61.1611 53.8603 61.1611 53.4235C61.1611 52.9866 61.5152 52.6324 61.9521 52.6324H62.5204C62.9574 52.6324 63.3114 52.9866 63.3114 53.4235C63.3114 53.8603 62.9574 54.2145 62.5204 54.2145Z" fill="white"/>
<path d="M54.2487 56.204H53.6802C53.2432 56.204 52.8892 55.8498 52.8892 55.413C52.8892 54.9761 53.2432 54.6219 53.6802 54.6219H54.2487C54.6856 54.6219 55.0397 54.9761 55.0397 55.413C55.0397 55.8498 54.6856 56.204 54.2487 56.204Z" fill="white"/>
<path d="M66.0881 56.204H65.52C65.0831 56.204 64.729 55.8498 64.729 55.413C64.729 54.9761 65.0831 54.6219 65.52 54.6219H66.0881C66.5249 54.6219 66.8791 54.9761 66.8791 55.413C66.8791 55.8498 66.525 56.204 66.0881 56.204Z" fill="#FFCFAB"/>
<path d="M59.8271 56.816H59.2592C58.8222 56.816 58.4681 56.4619 58.4681 56.025C58.4681 55.5882 58.8222 55.234 59.2592 55.234H59.8271C60.2641 55.234 60.6181 55.5882 60.6181 56.025C60.6181 56.4619 60.264 56.816 59.8271 56.816Z" fill="white"/>
<path d="M57.5097 53.6788H56.9412C56.5042 53.6788 56.1501 53.3247 56.1501 52.8878C56.1501 52.451 56.5042 52.0968 56.9412 52.0968H57.5097C57.9467 52.0968 58.3008 52.451 58.3008 52.8878C58.3008 53.3247 57.9467 53.6788 57.5097 53.6788Z" fill="#FFCFAB"/>
</g>
<defs>
<clipPath id="clip0_15_96">
<rect width="54" height="54" fill="white" transform="translate(23 23)"/>
</clipPath>
</defs>
</svg>
