<svg width="100" height="100" viewBox="0 0 100 100" fill="none" xmlns="http://www.w3.org/2000/svg">
<circle cx="50" cy="50" r="49.5" stroke="#F6B211"/>
<circle cx="50" cy="50" r="46.5" stroke="#F6B211"/>
<g clip-path="url(#clip0_15_193)">
<path d="M37.75 70.125V71.4375C37.75 72.1637 37.1637 72.75 36.4375 72.75H35.055H34.6875C33.9613 72.75 33.375 72.1637 33.375 71.4375C33.375 70.7112 32.7887 70.125 32.0625 70.125H24.9225H22.875C23.3912 68.3138 24.4762 66.7825 25.9112 65.7063C27.0575 64.8488 28.4138 64.2713 29.8837 64.0788C30.2425 64.0263 30.6187 64 30.995 64H33.375L37.75 70.125Z" fill="#E52C55"/>
<path d="M33.375 64H31.2496L32.5 65.75V67.0625C32.5 67.7887 31.9137 68.375 31.1875 68.375H29.805H29.4375C28.7112 68.375 28.125 67.7887 28.125 67.0625C28.125 66.3363 27.5388 65.75 26.8125 65.75H25.8579C24.45 66.8236 23.3843 68.3374 22.875 70.125H24.9225H32.0625C32.7887 70.125 33.375 70.7112 33.375 71.4375C33.375 72.1637 33.9613 72.75 34.6875 72.75H35.055H36.4375C37.1637 72.75 37.75 72.1637 37.75 71.4375V70.125L33.375 64Z" fill="#CC0033"/>
<path d="M29.875 64V61.375C29.875 60.4125 30.6625 59.625 31.625 59.625H33.375V64H30.995C30.6187 64 30.2425 64.0263 29.8838 64.0788L29.875 64Z" fill="#FFB92D"/>
<path d="M31.8438 59.625V61.5369C31.8438 62.0803 31.4028 62.5213 30.8594 62.5213C30.316 62.5213 29.875 62.9623 29.875 63.5056V64L29.8838 64.0788C30.2425 64.0263 30.6187 64 30.995 64H33.375V59.625H31.8438Z" fill="#F08616"/>
<path d="M63.1862 61.0513C63.6763 61.2438 64 61.725 64 62.25C64 63.2125 63.6063 64.0875 62.9763 64.7263C62.3375 65.3563 61.4625 65.75 60.5 65.75C59.2925 65.75 58.1987 66.24 57.4025 67.0275C56.615 67.8237 56.125 68.9175 56.125 70.125H49.125H37.75L33.375 64H39.9375L40.4275 64.9888C40.935 65.9863 41.9588 66.625 43.0875 66.625H44.75H49.125H50L52.625 64V61.375L51.75 59.625H59.625L63.1862 61.0513Z" fill="#808080"/>
<path d="M63.1863 61.0513L60.8806 60.1282C60.9165 60.2472 60.9375 60.3723 60.9375 60.5C60.9375 61.4625 60.5438 62.3375 59.9138 62.9763C59.275 63.6063 58.4 64 57.4375 64C56.23 64 55.1363 64.49 54.34 65.2775C53.9428 65.6792 53.6216 66.156 53.4003 66.6854C52.9838 67.682 52.0659 68.375 50.9853 68.375H46.0625H36.4996L37.75 70.125H49.125H56.125C56.125 68.9175 56.615 67.8238 57.4025 67.0275C58.1988 66.24 59.2925 65.75 60.5 65.75C61.4625 65.75 62.3375 65.3563 62.9763 64.7263C63.6063 64.0875 64 63.2125 64 62.25C64 61.725 63.6763 61.2438 63.1863 61.0513Z" fill="#606060"/>
<path d="M71.875 67.9288V69.25C71.875 69.7312 71.4812 70.125 71 70.125H68.9525H59.0475H56.125C56.125 68.9175 56.615 67.8237 57.4025 67.0275C58.1987 66.24 59.2925 65.75 60.5 65.75C61.4625 65.75 62.3375 65.3563 62.9763 64.7263C63.6063 64.0875 64 63.2125 64 62.25C64 61.725 63.6762 61.2438 63.1862 61.0513L59.625 59.625H70.125C70.125 59.625 71.875 64.77 71.875 67.9288Z" fill="#E52C55"/>
<path d="M70.125 59.625C68.3523 59.625 66.9864 61.2105 67.2751 62.9596C67.4116 63.7865 67.5 64.595 67.5 65.3038V66.625C67.5 67.1062 67.1062 67.5 66.625 67.5H64.5775H57.0158C56.4654 68.235 56.125 69.1371 56.125 70.125H59.0475H68.9525H71C71.4812 70.125 71.875 69.7312 71.875 69.25V67.9288C71.875 64.77 70.125 59.625 70.125 59.625Z" fill="#CC0033"/>
<path d="M36 46.5V50L32.5 50.875V44.75L36 45.625V46.5Z" fill="#FFB92D"/>
<path d="M34.25 45.1875V47.3479C34.25 47.8781 33.8895 48.3401 33.375 48.4688C32.8605 48.5974 32.5 49.0594 32.5 49.5896V50.875L36 50V46.5V45.625L34.25 45.1875Z" fill="#F08616"/>
<path d="M44.75 63.6675C45.1612 63.335 45.695 63.125 46.2812 63.125H49.125V66.625H43.875V65.5312C43.875 64.7875 44.2163 64.1137 44.75 63.6675Z" fill="#FFB92D"/>
<path d="M71 56.125V59.625H70.125H59.625H51.75V56.125H57.875H64H71Z" fill="#FFB92D"/>
<path d="M68.7399 56.125C68.7399 57.0919 67.9567 57.875 66.9899 57.875H57.3649H51.75V59.625H59.625H70.125H71V56.125H68.7399Z" fill="#F08616"/>
<path d="M70.125 47.375H77.125V56.125H71H64V47.375H70.125Z" fill="#E52C55"/>
<path d="M74.0625 47.375V51.75C74.0625 52.7125 73.275 53.5 72.3125 53.5H71C69.5501 53.5 68.375 54.6751 68.375 56.125H71H77.125V47.375H74.0625Z" fill="#CC0033"/>
<path d="M70.125 47.375H64V43H77.125V47.375H70.125Z" fill="#808080"/>
<path d="M77.125 43H74.0625C74.0625 44.2084 73.0834 45.1875 71.875 45.1875H67.0625H64V47.375H70.125H77.125V43Z" fill="#606060"/>
<path d="M59.0475 70.125H68.9525C69.145 70.6675 69.25 71.2625 69.25 71.875C69.25 74.7712 66.8962 77.125 64 77.125C61.1037 77.125 58.75 74.7712 58.75 71.875C58.75 71.2625 58.855 70.6675 59.0475 70.125Z" fill="#606060"/>
<path d="M24.9225 70.125H32.0625C32.7887 70.125 33.375 70.7113 33.375 71.4375C33.375 72.1637 33.9613 72.75 34.6875 72.75H35.055C34.635 75.235 32.4738 77.125 29.875 77.125C26.9787 77.125 24.625 74.7712 24.625 71.875C24.625 71.2625 24.73 70.6675 24.9225 70.125Z" fill="#606060"/>
<path d="M55.25 51.75V52.7912C55.25 53.7581 54.4669 54.5412 53.5 54.5412H50H48.25C47.7687 54.5412 47.375 54.935 47.375 55.4162V59.7912C47.375 60.7581 46.5919 61.5412 45.625 61.5412V63.6675C46.0362 63.335 46.57 63.125 47.1562 63.125H49.125V57C49.125 56.5188 49.5187 56.125 50 56.125H51.75H55.25C56.2125 56.125 57 55.3375 57 54.375V51.75H55.25Z" fill="#606060"/>
<path d="M38.625 47.375V49.125V50H36.875H36V46.5H38.625V47.375Z" fill="#808080"/>
<path d="M55.25 31.625V34.25H51.75H50C49.5187 34.25 49.125 33.8562 49.125 33.375V28.125H53.5V31.625H55.25Z" fill="#FCBFA9"/>
<path d="M51.75 30.3632V31.737C51.75 32.2366 52.1551 32.6417 52.6548 32.6417H55.25V31.625H53.5V28.125H49.125V28.5625C49.125 29.2993 49.7314 29.8934 50.4725 29.8741C51.1926 29.8557 51.75 29.6431 51.75 30.3632Z" fill="#ED907A"/>
<path d="M38.625 50V51.75V59.87C38.625 60.8587 38.8525 61.8388 39.2988 62.7225L39.9375 64H33.375V59.625V55.6788C33.375 54.2788 33.9263 52.9488 34.915 51.96L36.875 50H38.625Z" fill="#CC0033"/>
<path d="M38.9155 61.7408H37.0036C36.0875 61.7408 35.3446 60.9979 35.3446 60.0818V57.3658V53.4195C35.3446 52.5148 35.5774 51.6415 36.007 50.8689L34.915 51.96C33.9289 52.9461 33.375 54.2831 33.375 55.6779V59.625V64H39.9375L39.2988 62.7225C39.1395 62.4075 39.0188 62.0768 38.9155 61.7408Z" fill="#E52C55"/>
<path d="M58.75 26.6375V30.5312C58.75 31.6163 57.8663 32.5 56.7812 32.5H55.25H53.5V28.125H49.125H47.375C47.375 25.2287 49.7287 22.875 52.625 22.875H54.9875C56.2475 22.875 57.42 23.505 58.12 24.555C58.5312 25.1675 58.75 25.8938 58.75 26.6375Z" fill="#E52C55"/>
<path d="M58.12 24.555C57.6886 23.9075 57.0761 23.4218 56.3761 23.1427C56.4435 23.4271 56.4873 23.7167 56.4873 24.0125V27.9062C56.4873 28.9912 55.6035 29.875 54.5185 29.875H53.5V32.5H55.25H56.7812C57.8663 32.5 58.75 31.6162 58.75 30.5312V26.6375C58.75 25.8937 58.5312 25.1675 58.12 24.555Z" fill="#CC0033"/>
<path d="M36.5338 53.1483C36.1383 52.9497 35.6623 53.0048 35.3534 53.3355C34.9859 53.7293 35.16 54.2272 35.1084 54.7005C35.125 55.264 35.9073 55.2387 35.9659 54.7005C35.9589 54.4643 36.021 54.2508 36.1811 54.0732C36.2214 54.0285 36.245 53.9813 36.2634 53.9332C36.679 53.9717 36.9721 53.3679 36.5338 53.1483Z" fill="#FFC0A7"/>
<path d="M35.8871 55.7943C35.8609 55.6613 35.748 55.6219 35.6456 55.6482C35.5459 55.6289 35.4321 55.6665 35.3901 55.789C35.3333 55.9527 35.4461 56.1522 35.6325 56.1522C35.8311 56.1513 35.9204 55.9649 35.8871 55.7943Z" fill="#FFC0A7"/>
<path d="M36 46.5L37.75 42.125H41.25L40.8125 43.875H40.375C39.4125 43.875 38.625 44.6625 38.625 45.625V46.5H36Z" fill="#E0DAE0"/>
<path d="M40.8125 43.875H43V47.375H38.625V46.5V45.625C38.625 44.6625 39.4125 43.875 40.375 43.875H40.8125Z" fill="#FCBFA9"/>
<path d="M56.125 32.5V36H51.75V34.25H50C49.5187 34.25 49.125 33.8562 49.125 33.375V28.125H53.5V32.5H56.125Z" fill="#FCBFA9"/>
<path d="M46.2812 63.125C46.0625 63.125 45.8438 63.1512 45.6425 63.2125L45.625 63.125V53.3338C45.625 52.4588 46.3337 51.75 47.2087 51.75H50H57V54.375C57 55.3375 56.2125 56.125 55.25 56.125H51.75H50C49.5187 56.125 49.125 56.5188 49.125 57V63.125H46.2812Z" fill="#808080"/>
<path d="M53.5 39.5V45.7738C53.5 46.6575 52.7825 47.375 51.8987 47.375H50H43V43.875H49.125C49.6062 43.875 50 43.4812 50 43V39.5C50 38.5375 50.7875 37.75 51.75 37.75C52.2312 37.75 52.6687 37.9425 52.9837 38.2663C53.3075 38.5813 53.5 39.0187 53.5 39.5Z" fill="#808080"/>
<path d="M50 37.75C50 36.7875 50.7875 36 51.75 36H56.125H57V51.75H50V47.375H51.8987C52.7825 47.375 53.5 46.6575 53.5 45.7738V39.5C53.5 39.0187 53.3075 38.5813 52.9837 38.2663C52.6687 37.9425 52.2313 37.75 51.75 37.75C50.7875 37.75 50 38.5375 50 39.5V37.75Z" fill="#E52C55"/>
<path d="M70.5625 50C70.0795 50 69.6875 49.6089 69.6875 49.125V46.5C69.6875 46.0161 70.0795 45.625 70.5625 45.625C71.0455 45.625 71.4375 46.0161 71.4375 46.5V49.125C71.4375 49.6089 71.0455 50 70.5625 50Z" fill="#E0DAE0"/>
<path d="M67.2086 32.5H62.5422C62.0592 32.5 61.6672 32.1089 61.6672 31.625C61.6672 31.1411 62.0592 30.75 62.5422 30.75H67.2086C67.6916 30.75 68.0836 31.1411 68.0836 31.625C68.0836 32.1089 67.6916 32.5 67.2086 32.5Z" fill="#E0DAE0"/>
<path d="M68.9586 40.375H64.2922C63.8092 40.375 63.4172 39.9839 63.4172 39.5C63.4172 39.0161 63.8092 38.625 64.2922 38.625H68.9586C69.4416 38.625 69.8336 39.0161 69.8336 39.5C69.8336 39.9839 69.4416 40.375 68.9586 40.375Z" fill="#E0DAE0"/>
<path d="M72.75 36H63.8539C63.3709 36 62.9789 35.6089 62.9789 35.125C62.9789 34.6411 63.3709 34.25 63.8539 34.25H72.75C73.233 34.25 73.625 34.6411 73.625 35.125C73.625 35.6089 73.233 36 72.75 36Z" fill="#E0DAE0"/>
<path d="M64 72.75C64.4832 72.75 64.875 72.3582 64.875 71.875C64.875 71.3918 64.4832 71 64 71C63.5168 71 63.125 71.3918 63.125 71.875C63.125 72.3582 63.5168 72.75 64 72.75Z" fill="#E0DAE0"/>
<path d="M29.875 72.75C30.3582 72.75 30.75 72.3582 30.75 71.875C30.75 71.3918 30.3582 71 29.875 71C29.3918 71 29 71.3918 29 71.875C29 72.3582 29.3918 72.75 29.875 72.75Z" fill="#E0DAE0"/>
</g>
<defs>
<clipPath id="clip0_15_193">
<rect width="56" height="56" fill="white" transform="translate(22 22)"/>
</clipPath>
</defs>
</svg>
