<svg width="332" height="198" viewBox="0 0 332 198" fill="none" xmlns="http://www.w3.org/2000/svg">
<path d="M310.006 25.6653C295.566 8.88463 274.864 0.015625 250.137 0.015625C205.303 0.015625 168.828 36.4907 168.828 81.3242C168.828 124.927 203.326 160.623 246.462 162.551C245.251 177.834 236.593 192.475 236.499 192.633C235.845 193.725 235.828 195.084 236.455 196.191C237.082 197.299 238.257 197.984 239.531 197.984C256.341 197.984 279.375 185.192 298.213 165.395C319.332 143.201 331.445 116.423 331.445 91.9297C331.445 64.878 324.032 41.9645 310.006 25.6653ZM293.091 160.522C278.076 176.302 259.875 187.587 245.694 190.291C248.983 183.359 253.672 171.333 253.672 159.098C253.672 157.145 252.09 155.562 250.137 155.562C209.202 155.562 175.898 122.259 175.898 81.3242C175.898 40.3892 209.202 7.08594 250.137 7.08594C295.929 7.08594 324.375 39.5959 324.375 91.9297C324.375 114.628 312.972 139.628 293.091 160.522ZM81.8633 0.015625C37.0297 0.015625 0.554688 36.4907 0.554688 81.3242C0.554688 124.927 35.0529 160.623 78.1881 162.551C76.977 177.834 68.3194 192.475 68.2254 192.633C67.5714 193.725 67.5544 195.084 68.1815 196.191C68.8094 197.299 69.9845 197.984 71.2578 197.984C88.0675 197.984 111.102 185.192 129.939 165.395C151.059 143.201 163.172 116.423 163.172 91.9297C163.172 64.878 155.758 41.9645 141.733 25.6653C127.293 8.88463 106.59 0.015625 81.8633 0.015625ZM124.818 160.522C109.802 176.302 91.6012 187.587 77.4196 190.291C80.7094 183.359 85.3984 171.333 85.3984 159.098C85.3984 157.145 83.8154 155.562 81.8633 155.562C40.9283 155.562 7.625 122.259 7.625 81.3242C7.625 40.3892 40.9283 7.08594 81.8633 7.08594C127.655 7.08594 156.102 39.5959 156.102 91.9297C156.102 114.628 144.699 139.628 124.818 160.522Z" fill="black" fill-opacity="0.1"/>
</svg>
