<svg width="52" height="52" viewBox="0 0 52 52" fill="none" xmlns="http://www.w3.org/2000/svg">
<path d="M4.37002 5.06008L7.60002 5.71008L5.89002 7.42007C5.33002 7.98007 5.60002 8.94008 6.36002 9.13008L10.44 10.1501C10.98 10.2901 11.54 9.96007 11.68 9.41008C11.82 8.86007 11.48 8.31007 10.94 8.17007L8.61002 7.59008L10.4 5.81008C10.98 5.24008 10.68 4.25008 9.88002 4.09008L4.78002 3.07008C4.23002 2.96008 3.69002 3.32008 3.58002 3.87008C3.46002 4.42008 3.82002 4.95008 4.37002 5.06008Z" fill="white"/>
<path d="M41.6 17.0299L43.64 19.0699C44.04 19.4699 44.68 19.4699 45.08 19.0699C45.48 18.6699 45.48 18.0299 45.08 17.6299L43.76 16.3099L45.08 14.9899C45.48 14.5899 45.48 13.9499 45.08 13.5499L43.76 12.2299L45.08 10.9099C45.48 10.5099 45.48 9.86992 45.08 9.46992C44.68 9.06992 44.04 9.06992 43.64 9.46992L41.6 11.4999C41.2 11.8999 41.2 12.5399 41.6 12.9399L42.92 14.2599L41.6 15.5899C41.2 15.9799 41.2 16.6299 41.6 17.0299Z" fill="white"/>
<path d="M30.08 6.10006C30.64 6.10006 31.1 5.64006 31.1 5.08006C31.1 4.52006 30.64 4.06006 30.08 4.06006C29.52 4.06006 29.06 4.52006 29.06 5.08006C29.06 5.65006 29.52 6.10006 30.08 6.10006Z" fill="white"/>
<path d="M36.21 14.27C36.21 14.83 36.67 15.29 37.23 15.29C37.79 15.29 38.25 14.83 38.25 14.27C38.25 13.71 37.79 13.25 37.23 13.25C36.66 13.25 36.21 13.7 36.21 14.27Z" fill="white"/>
<path d="M47.43 21.4101C47.99 21.4101 48.45 20.9501 48.45 20.3901C48.45 19.8301 47.99 19.3701 47.43 19.3701C46.87 19.3701 46.41 19.8301 46.41 20.3901C46.41 20.9501 46.87 21.4101 47.43 21.4101Z" fill="white"/>
<path d="M45.39 7.12008C45.95 7.12008 46.41 6.66008 46.41 6.10008C46.41 5.54008 45.95 5.08008 45.39 5.08008C44.83 5.08008 44.37 5.54008 44.37 6.10008C44.37 6.67008 44.83 7.12008 45.39 7.12008Z" fill="white"/>
<path d="M7.64001 13.25C7.64001 13.81 8.10001 14.27 8.66001 14.27C9.22001 14.27 9.68001 13.81 9.68001 13.25C9.68001 12.69 9.22001 12.23 8.66001 12.23C8.09001 12.23 7.64001 12.68 7.64001 13.25Z" fill="white"/>
<path d="M5.60002 18.3501C5.04002 18.3501 4.58002 18.8101 4.58002 19.3701C4.58002 19.9301 5.04002 20.3901 5.60002 20.3901C6.16002 20.3901 6.62002 19.9301 6.62002 19.3701C6.62002 18.8001 6.16002 18.3501 5.60002 18.3501Z" fill="white"/>
<path d="M13.76 25.49C12.07 25.49 10.7 26.86 10.7 28.55C10.7 30.24 12.07 31.61 13.76 31.61C15.45 31.61 16.82 30.24 16.82 28.55C16.82 26.86 15.44 25.49 13.76 25.49ZM13.76 29.57C13.2 29.57 12.74 29.11 12.74 28.55C12.74 27.99 13.2 27.53 13.76 27.53C14.32 27.53 14.78 27.99 14.78 28.55C14.78 29.11 14.32 29.57 13.76 29.57Z" fill="white"/>
<path d="M22.94 19.37C24.63 19.37 26 18 26 16.31C26 14.62 24.63 13.25 22.94 13.25C21.25 13.25 19.88 14.62 19.88 16.31C19.88 17.99 21.25 19.37 22.94 19.37ZM22.94 15.29C23.5 15.29 23.96 15.75 23.96 16.31C23.96 16.87 23.5 17.33 22.94 17.33C22.38 17.33 21.92 16.87 21.92 16.31C21.92 15.74 22.38 15.29 22.94 15.29Z" fill="white"/>
<path d="M48.45 33.6501H47.15C49.26 31.2801 49.24 27.6601 47 25.3201C46.32 24.6101 45.13 25.1901 45.25 26.1601C45.48 27.9101 44.56 29.6001 42.97 30.3701C42.95 30.3801 42.94 30.3801 42.92 30.3901C42.61 29.5801 42.13 28.8601 41.51 28.2501C42.04 27.4301 42.32 26.4801 42.32 25.4801C42.32 21.7201 38.38 19.2701 35.03 20.8701C34.71 20.4301 34.33 20.0401 33.91 19.6901C33.62 18.6701 33.07 17.7601 32.32 17.0201C32.85 16.2001 33.14 15.2501 33.14 14.2501C33.14 10.4901 29.2 8.04011 25.85 9.64011C24.71 8.08011 22.87 7.11011 20.89 7.11011C17.86 7.11011 15.34 9.32011 14.85 12.2101C11.31 12.2101 9.51 16.1101 11.52 18.7501C9.55 19.5201 8.07 21.2901 7.71 23.4301C5.24 23.4301 3.54 25.3601 3.54 27.5101C3.54 29.0501 4.42 30.4401 5.74 31.1301C5.57 31.9501 5.54 32.7901 5.66 33.6301H3.55C2.86 33.6301 2.37 34.3001 2.58 34.9501L4.85 42.2401C5.42 44.9401 7.81 46.8901 10.57 46.8901H14.83C14.51 48.4801 15.73 49.9501 17.33 49.9501H35.7C37.3 49.9501 38.52 48.4801 38.2 46.8901H41.44C44.2 46.8901 46.6 44.9401 47.16 42.2401L49.43 34.9501C49.63 34.3201 49.13 33.6501 48.45 33.6501ZM46.67 29.4701C46.75 32.9901 42.66 34.9501 39.96 32.6901C42.65 33.2601 45.41 31.9401 46.67 29.4701ZM32.43 21.1301C33.01 21.5401 33.47 22.0901 33.77 22.7201C34.05 23.3101 34.81 23.4901 35.33 23.0801C37.32 21.5101 40.29 22.9201 40.29 25.4801C40.29 26.3101 39.96 27.0801 39.37 27.6701C38.91 28.1201 38.98 28.8801 39.51 29.2401C40.09 29.6301 40.54 30.1501 40.86 30.7501C39.88 30.6601 38.95 30.2201 38.27 29.5101C37.59 28.8001 36.4 29.3801 36.52 30.3501C36.68 31.5501 37.19 32.7001 38.03 33.6401H29.41C30.05 32.9701 30.52 32.1701 30.81 31.3001C32.84 32.2601 35.19 30.7801 35.19 28.5401C35.19 26.8501 33.82 25.4801 32.13 25.4801C31.05 25.4801 30.09 26.0501 29.55 26.9001C27.94 26.8201 26.49 27.2401 25.32 28.0401C25.77 27.2701 26.01 26.3901 26.01 25.4801C26.01 25.2901 25.98 24.9601 25.98 24.9101C26.04 24.7001 26.01 24.5701 26.01 24.4601C26 21.1601 29.75 19.2401 32.43 21.1301ZM25.68 30.4301C26.54 29.4601 27.76 28.9501 29.08 28.9401C29.09 29.0101 29.1 29.0701 29.11 29.1401C29.1 31.0801 28.03 32.6401 26.38 33.3001C26.34 31.6301 25.74 30.6001 25.68 30.4301ZM31.16 28.8801C31.15 28.7101 31.14 28.5401 31.12 28.3701C31.21 27.9001 31.62 27.5401 32.12 27.5401C32.68 27.5401 33.14 28.0001 33.14 28.5601C33.14 29.1201 32.68 29.5801 32.12 29.5801C31.67 29.5701 31.29 29.2801 31.16 28.8801ZM24.34 33.6501C21.66 33.6401 19.73 31.6301 19.83 28.9601C22.44 28.9701 24.42 30.9001 24.34 33.6501ZM15.46 14.3801C16.14 14.6201 16.85 14.1001 16.82 13.3801C16.72 11.1301 18.56 9.16011 20.9 9.16011C22.47 9.16011 23.92 10.0801 24.59 11.5001C24.87 12.0901 25.63 12.2701 26.15 11.8601C28.14 10.2901 31.11 11.7001 31.11 14.2601C31.11 15.0901 30.78 15.8601 30.19 16.4501C29.73 16.9001 29.8 17.6601 30.33 18.0201C30.49 18.1301 30.65 18.2501 30.79 18.3801C28.13 18.0801 25.63 19.5301 24.53 21.9001C23 20.3101 20.54 19.9701 18.72 20.8701C17.74 19.5101 16.24 18.6301 14.64 18.4001C14.55 18.3501 14.45 18.3101 14.35 18.2901C13.42 18.0901 12.74 17.2501 12.74 16.3001C12.74 14.9001 14.14 13.9101 15.46 14.3801ZM7.95 30.8701C8.16 30.2801 7.81 29.6501 7.21 29.5201C6.28 29.3201 5.6 28.4801 5.6 27.5301C5.6 26.1301 7 25.1301 8.32 25.6101C9 25.8501 9.71 25.3301 9.68 24.6101C9.58 22.1501 11.74 20.0701 14.33 20.4301C15.64 20.6001 16.86 21.4901 17.44 22.7301C17.72 23.3201 18.48 23.5001 19 23.0901C20.81 21.6601 23.42 22.6801 23.89 24.8301C24.11 25.8301 23.83 26.9001 23.04 27.6701C23.03 27.6801 23.02 27.6901 23.02 27.7001C21.69 26.9901 20.19 26.7901 18.77 26.9901C18.33 27.0501 17.98 27.3901 17.91 27.8201C17.52 30.0101 18.11 32.1301 19.52 33.6401H7.74C7.54 32.6901 7.63 31.7301 7.95 30.8701ZM36.2 47.4301C36.2 47.7101 35.97 47.9401 35.69 47.9401H17.33C17.05 47.9401 16.82 47.7101 16.82 47.4301C16.82 47.1501 17.05 46.9201 17.33 46.9201H35.7C35.97 46.9201 36.2 47.1501 36.2 47.4301ZM41.43 44.8801C31.16 44.8801 20.87 44.8801 10.57 44.8801C8.76 44.8801 7.19 43.5901 6.84 41.8201C6.82 41.7301 6.93 42.1101 4.94 35.7001H47.06L45.47 40.8001H10.7C10.14 40.8001 9.68 41.2601 9.68 41.8201C9.68 42.3801 10.14 42.8401 10.7 42.8401H44.8C44.15 44.0601 42.87 44.8801 41.43 44.8801Z" fill="white"/>
<path d="M37.22 8.14002C38.91 8.14002 40.28 6.77002 40.28 5.08002C40.28 3.39002 38.91 2.02002 37.22 2.02002C35.53 2.02002 34.16 3.39002 34.16 5.08002C34.16 6.77002 35.54 8.14002 37.22 8.14002ZM37.22 4.06002C37.78 4.06002 38.24 4.52002 38.24 5.08002C38.24 5.64002 37.78 6.10002 37.22 6.10002C36.66 6.10002 36.2 5.64002 36.2 5.08002C36.2 4.52002 36.66 4.06002 37.22 4.06002Z" fill="white"/>
</svg>
