<svg width="54" height="54" viewBox="0 0 54 54" fill="none" xmlns="http://www.w3.org/2000/svg">
<path d="M49.6476 41.0724C49.788 40.4892 49.7448 39.6468 49.0104 38.5884C48.2328 37.476 46.7856 36.3204 45.3384 35.8668C45.3168 35.1 45.036 34.5168 44.7444 34.1172C43.2108 32.0004 39.3768 31.8384 38.232 31.8384C35.7912 31.8384 33.0588 32.1408 31.0284 34.3224C27.756 34.3008 25.4772 35.9424 24.6132 36.6768C24.1272 37.098 23.7384 37.7676 23.4576 38.5884C20.7576 40.0464 18.4032 43.4916 18.306 46.2456C18.252 47.682 18.5544 48.7188 19.224 49.41C19.9692 50.1768 20.9196 50.2632 21.5676 50.2632C22.9824 50.2632 24.6564 49.8204 25.542 49.5504C26.1468 49.9932 26.9028 50.2632 27.8856 50.2632C29.0196 50.2632 30.456 49.7664 31.4172 49.3452C32.2596 49.95 33.2424 50.2632 34.3008 50.2632H34.5708H34.884C35.8776 50.2632 37.3248 50.2092 38.3616 49.5612C39.3876 50.2308 40.4352 50.2632 42.1416 50.2632C43.2324 50.2632 43.9452 49.896 44.4636 49.3668C44.6688 49.41 44.9064 49.4748 45.1224 49.518C46.4508 49.842 48.1356 50.2524 49.6044 50.2524C51.0084 50.2524 52.218 49.8744 52.7472 48.6864C53.8488 46.2348 51.6348 42.7032 49.6476 41.0724ZM20.8116 47.9196C20.7036 47.8116 20.466 47.4336 20.4984 46.332C20.5524 44.8632 21.6324 42.9624 23.004 41.634C22.9716 42.8976 23.112 44.28 23.4468 45.6408C23.6088 46.332 23.8248 47.0556 24.138 47.7144C23.3712 47.9088 22.3992 48.114 21.5892 48.114C21.1788 48.114 20.9412 48.0492 20.8116 47.9196ZM26.622 47.6172C26.6112 47.6064 26.6112 47.6064 26.6004 47.5956C26.2224 47.1852 25.866 46.44 25.5528 45.1332C25.002 42.8544 25.11 40.9104 25.4124 39.6684C25.4232 39.636 25.4232 39.6144 25.434 39.582C25.6068 38.9448 25.8228 38.5128 26.0388 38.3292C26.5572 37.8756 27.7668 37.0008 29.4948 36.6444C28.4148 38.9556 28.3932 41.31 28.3716 42.4656V42.6708C28.3608 43.6428 28.728 45.8676 29.8512 47.6604C29.1384 47.9196 28.3932 48.114 27.8856 48.114C27.4644 48.114 27.0324 48.0492 26.622 47.6172ZM34.614 48.114C34.5168 48.114 34.4196 48.114 34.3332 48.114C33.534 48.114 32.8644 47.8332 32.2812 47.2392C30.9528 45.8892 30.5424 43.4052 30.5532 42.7032V42.4872C30.564 41.1372 30.5964 38.3184 32.3676 36.1044C33.5772 34.5924 35.2296 34.0092 38.2428 34.0092C40.4136 34.0092 42.4116 34.5924 42.9948 35.3916C43.1352 35.5752 43.2648 35.8668 43.092 36.4176C42.8436 37.1844 42.0876 38.1348 41.3532 39.0528C40.8024 39.7548 40.2192 40.4784 39.7656 41.2236C38.3724 43.524 37.7676 45.1224 37.4544 47.3364C37.3572 48.0708 35.9316 48.114 34.614 48.114ZM39.582 47.7792C39.5928 47.736 39.6036 47.6928 39.6036 47.6496C39.8736 45.738 40.3812 44.4096 41.6232 42.3684C42.012 41.7312 42.5412 41.0616 43.0488 40.4136C43.686 39.6144 44.3232 38.8044 44.766 37.9728C45.6192 38.2644 46.6668 39.0312 47.2284 39.8304C47.5416 40.284 47.5524 40.5324 47.5416 40.5756C47.2824 41.256 46.8396 41.796 46.2672 42.4764C45.7488 43.092 45.1656 43.794 44.5716 44.7768C44.1936 45.4032 43.9236 46.008 43.686 46.5264C43.47 47.0124 43.308 47.358 43.146 47.5956C43.1352 47.6064 43.1352 47.6172 43.1244 47.628C42.8652 48.0168 42.6276 48.114 42.1632 48.114C40.6512 48.114 40.0788 48.0816 39.582 47.7792ZM50.7708 47.8332C50.7276 47.9196 50.3496 48.1572 49.1724 48.0708C48.0168 47.9952 46.656 47.6604 45.6516 47.4228C45.6516 47.412 45.6624 47.412 45.6624 47.4012C45.8784 46.9152 46.1052 46.4076 46.4184 45.8892C46.926 45.0468 47.4336 44.442 47.9304 43.8588C48.1572 43.578 48.384 43.308 48.6 43.0272C49.9824 44.334 51.2568 46.7316 50.7708 47.8332Z" fill="white"/>
<path d="M19.9908 16.1461C19.5912 16.5889 19.6236 17.2801 20.0664 17.6797C20.2716 17.8741 20.5308 17.9605 20.8008 17.9605C21.0924 17.9605 21.384 17.8417 21.6 17.6041C24.7752 14.1157 22.9392 11.7829 21.7296 10.2493C20.4876 8.66169 19.7964 7.79769 22.0212 5.57289C22.4424 5.15169 22.4424 4.46049 22.0212 4.03929C21.6 3.61809 20.9088 3.61809 20.4876 4.03929C16.902 7.62489 18.7812 10.0117 20.0232 11.5993C21.2544 13.1545 21.9348 14.0185 19.9908 16.1461Z" fill="white"/>
<path d="M27.27 16.2002C26.9028 16.6754 26.9784 17.3558 27.4536 17.723C27.648 17.885 27.8856 17.9606 28.1232 17.9606C28.4472 17.9606 28.7604 17.8202 28.9764 17.5502C30.7476 15.3038 29.6892 13.7594 29.0628 12.8306C28.4688 11.9558 28.2744 11.6642 29.1708 10.6274C29.5596 10.1738 29.5164 9.49339 29.0628 9.09379C28.6092 8.70499 27.9288 8.74819 27.5292 9.20179C25.5312 11.513 26.6112 13.1006 27.2592 14.051C27.8424 14.8934 28.0584 15.2066 27.27 16.2002Z" fill="white"/>
<path d="M13.6512 16.2002C13.284 16.6754 13.3596 17.3558 13.8348 17.723C14.0292 17.885 14.2668 17.9606 14.5044 17.9606C14.8284 17.9606 15.1416 17.8202 15.3576 17.5502C17.1288 15.3038 16.0704 13.7594 15.444 12.8306C14.85 11.9558 14.6556 11.6642 15.552 10.6274C15.9408 10.1738 15.8976 9.49339 15.444 9.09379C14.9904 8.70499 14.31 8.74819 13.9104 9.20179C11.9124 11.513 12.9924 13.1006 13.6404 14.051C14.2236 14.8934 14.4396 15.2066 13.6512 16.2002Z" fill="white"/>
<path d="M16.6968 41.6016H15.066C15.066 41.5476 15.066 41.4828 15.0552 41.4288C14.904 40.4676 14.3532 39.6792 13.7268 38.772C12.2472 36.6336 9.81721 33.102 9.65521 23.1552H33.5124C33.4692 25.488 33.3072 27.6156 33.0156 29.4948C32.9184 30.0888 33.3288 30.6396 33.9228 30.7368C34.5168 30.8232 35.0676 30.4236 35.1648 29.8296C35.5212 27.5508 35.694 24.9372 35.694 22.0644C35.694 21.4704 35.208 20.9844 34.614 20.9844H8.56441C7.97041 20.9844 7.48441 21.4704 7.48441 22.0644C7.48441 23.6088 7.5384 25.0236 7.6248 26.3196C6.58801 25.812 5.55121 25.7148 4.95721 25.7148C3.81241 25.7148 2.81881 26.1468 2.08441 26.9568C1.28521 27.8316 0.864005 29.1168 0.982805 30.3048C1.28521 33.4152 3.7692 34.452 6.16681 35.4564C7.65721 36.0828 9.20161 36.7308 10.6056 37.8756C11.0808 38.7288 11.5452 39.4092 11.9556 39.9924C12.4092 40.662 12.7548 41.1588 12.8844 41.5908H5.3028C4.70881 41.5908 4.22281 42.0768 4.22281 42.6708C4.22281 43.2648 4.70881 43.7508 5.3028 43.7508H16.6968C17.2908 43.7508 17.7768 43.2648 17.7768 42.6708C17.7876 42.0876 17.3016 41.6016 16.6968 41.6016ZM6.99841 33.4692C4.57921 32.454 3.30481 31.8492 3.13201 30.0996C3.08881 29.6244 3.24001 28.9116 3.68281 28.4256C4.00681 28.0692 4.42801 27.8964 4.95721 27.8964C5.78881 27.8964 7.26841 28.134 7.99201 29.6784C8.27281 31.5468 8.65081 33.0912 9.08281 34.3872C8.35921 34.0416 7.65721 33.75 6.99841 33.4692Z" fill="white"/>
</svg>
