<svg width="46" height="46" viewBox="0 0 46 46" fill="none" xmlns="http://www.w3.org/2000/svg">
<g clip-path="url(#clip0_8_642)">
<path d="M44.5625 37.5547H42.9453V37.375C42.9385 32.8047 41.3652 28.3749 38.4877 24.8242C35.6102 21.2735 31.6025 18.8166 27.1328 17.8631V15.8125C27.1328 14.7164 26.6974 13.6652 25.9223 12.8902C25.1473 12.1151 24.0961 11.6797 23 11.6797C21.9039 11.6797 20.8527 12.1151 20.0777 12.8902C19.3026 13.6652 18.8672 14.7164 18.8672 15.8125V17.8631C14.3975 18.8166 10.3898 21.2735 7.51227 24.8242C4.63478 28.3749 3.06147 32.8047 3.05469 37.375V37.5547H1.4375C1.10391 37.5547 0.783978 37.6872 0.548092 37.9231C0.312207 38.159 0.179688 38.4789 0.179688 38.8125C0.18178 40.6704 0.920773 42.4517 2.23454 43.7655C3.54831 45.0792 5.32956 45.8182 7.1875 45.8203H38.8125C40.6704 45.8182 42.4517 45.0792 43.7655 43.7655C45.0792 42.4517 45.8182 40.6704 45.8203 38.8125C45.8203 38.4789 45.6878 38.159 45.4519 37.9231C45.216 37.6872 44.8961 37.5547 44.5625 37.5547ZM21.3828 15.8125C21.3828 15.3836 21.5532 14.9723 21.8565 14.669C22.1598 14.3657 22.5711 14.1953 23 14.1953C23.4289 14.1953 23.8402 14.3657 24.1435 14.669C24.4468 14.9723 24.6172 15.3836 24.6172 15.8125V17.5008C24.0832 17.4577 23.5448 17.429 23 17.429C22.4552 17.429 21.9168 17.457 21.3828 17.5008V15.8125ZM5.57031 37.375C5.57031 32.7524 7.40665 28.319 10.6754 25.0504C13.9441 21.7816 18.3774 19.9453 23 19.9453C27.6226 19.9453 32.056 21.7816 35.3246 25.0504C38.5933 28.319 40.4297 32.7524 40.4297 37.375V37.5547H5.57031V37.375ZM38.8125 43.3047H7.1875C6.21587 43.3033 5.27078 42.9875 4.49348 42.4045C3.71617 41.8216 3.1484 41.0027 2.875 40.0703H43.125C42.8516 41.0027 42.2838 41.8216 41.5065 42.4045C40.7292 42.9875 39.7841 43.3033 38.8125 43.3047Z" fill="white"/>
<path d="M23 8.44531C23.3336 8.44531 23.6535 8.31279 23.8894 8.07691C24.1253 7.84102 24.2578 7.52109 24.2578 7.1875V1.4375C24.2578 1.10391 24.1253 0.783978 23.8894 0.548092C23.6535 0.312207 23.3336 0.179688 23 0.179688C22.6664 0.179688 22.3465 0.312207 22.1106 0.548092C21.8747 0.783978 21.7422 1.10391 21.7422 1.4375V7.1875C21.7422 7.52109 21.8747 7.84102 22.1106 8.07691C22.3465 8.31279 22.6664 8.44531 23 8.44531Z" fill="white"/>
<path d="M16.5312 10.6016C16.6964 10.6016 16.86 10.569 17.0126 10.5058C17.1652 10.4426 17.3039 10.35 17.4207 10.2332C17.5375 10.1164 17.6301 9.9777 17.6933 9.82509C17.7565 9.67249 17.7891 9.50893 17.7891 9.34375V5.03125C17.7891 4.69766 17.6565 4.37773 17.4207 4.14184C17.1848 3.90596 16.8648 3.77344 16.5312 3.77344C16.1977 3.77344 15.8777 3.90596 15.6418 4.14184C15.406 4.37773 15.2734 4.69766 15.2734 5.03125V9.34375C15.2734 9.50893 15.306 9.67249 15.3692 9.82509C15.4324 9.9777 15.525 10.1164 15.6418 10.2332C15.7586 10.35 15.8973 10.4426 16.0499 10.5058C16.2025 10.569 16.3661 10.6016 16.5312 10.6016Z" fill="white"/>
<path d="M29.4688 10.6016C29.6339 10.6016 29.7975 10.569 29.9501 10.5058C30.1027 10.4426 30.2414 10.35 30.3582 10.2332C30.475 10.1164 30.5676 9.9777 30.6308 9.82509C30.694 9.67249 30.7266 9.50893 30.7266 9.34375V5.03125C30.7266 4.69766 30.594 4.37773 30.3582 4.14184C30.1223 3.90596 29.8023 3.77344 29.4688 3.77344C29.1352 3.77344 28.8152 3.90596 28.5793 4.14184C28.3435 4.37773 28.2109 4.69766 28.2109 5.03125V9.34375C28.2109 9.50893 28.2435 9.67249 28.3067 9.82509C28.3699 9.9777 28.4625 10.1164 28.5793 10.2332C28.6961 10.35 28.8348 10.4426 28.9874 10.5058C29.14 10.569 29.3036 10.6016 29.4688 10.6016Z" fill="white"/>
</g>
<defs>
<clipPath id="clip0_8_642">
<rect width="46" height="46" fill="white"/>
</clipPath>
</defs>
</svg>
