<svg width="59" height="97" viewBox="0 0 59 97" fill="none" xmlns="http://www.w3.org/2000/svg">
<g clip-path="url(#clip0_6_76)">
<path d="M14.2294 97.0001C14.3344 97.0001 14.4394 96.9338 14.52 96.8021L21.9484 84.5908C22.1085 84.3298 22.1085 83.8978 21.9484 83.6368L15.1058 72.3879L22.2481 60.6451C22.4071 60.3841 22.4071 59.9547 22.2481 59.6913L15.4324 48.4893L22.6091 36.6905C22.769 36.4268 22.769 35.9992 22.6091 35.7365L15.7674 24.4871L22.9096 12.745C23.0694 12.4821 23.0694 12.0537 22.9096 11.791L15.8577 0.197744C15.6978 -0.0659146 15.4372 -0.0659146 15.2776 0.197744C15.1177 0.460198 15.1177 0.888071 15.2776 1.15149L22.0391 12.2673L14.9009 24.0021C14.7413 24.2655 14.7413 24.6932 14.9009 24.9559C14.9126 24.9751 14.9266 24.9816 14.9386 24.9968C14.9526 25.0291 14.961 25.0654 14.9783 25.0936L21.7396 36.2111L14.6017 47.9459C14.4998 48.1132 14.4702 48.3439 14.497 48.5587C14.4947 48.7364 14.5336 48.9155 14.6153 49.0501L21.3768 60.1702L14.2386 71.902C14.0797 72.1659 14.0797 72.5952 14.2386 72.8562C14.2504 72.8771 14.2635 72.8836 14.2758 72.8957C14.2896 72.9272 14.2971 72.9641 14.3158 72.9932L21.0771 84.108L13.9402 95.8409C13.7802 96.1046 13.7802 96.5353 13.9402 96.7949C14.0182 96.936 14.1244 97.0001 14.2294 97.0001Z" fill="#5C5C5C"/>
<path d="M25.3051 96.9999C25.4101 96.9999 25.5149 96.9337 25.5953 96.802L33.0233 84.5906C33.1819 84.3296 33.1819 83.8977 33.0233 83.6366L26.182 72.3877L33.3249 60.6449C33.4828 60.3839 33.4828 59.9546 33.3249 59.6912L26.5086 48.4892L33.686 36.6903C33.8454 36.4267 33.8454 35.999 33.686 35.7363L26.8443 24.4884L33.9869 12.746C34.1469 12.4834 34.1469 12.055 33.9869 11.7923L26.9345 0.200249C26.7749 -0.0631688 26.5135 -0.0631688 26.3544 0.200249C26.1946 0.462944 26.1946 0.890576 26.3544 1.15399L33.1156 12.2698L25.9786 24.0049C25.8187 24.2683 25.8187 24.6959 25.9786 24.9586C25.9895 24.9764 26.0022 24.9829 26.0146 24.9981C26.0287 25.0304 26.036 25.0679 26.0548 25.0963L32.8168 36.214L25.6793 47.9489C25.5783 48.115 25.5486 48.3445 25.5748 48.559C25.5722 48.7367 25.6101 48.9188 25.6929 49.055L32.4568 60.174L25.3147 71.9052C25.1558 72.1662 25.1558 72.5982 25.3147 72.8592C25.3264 72.8775 25.3396 72.8869 25.351 72.896C25.3658 72.9275 25.3733 72.967 25.3921 72.9935L32.1531 84.1115L25.0157 95.8441C24.8553 96.1076 24.8553 96.5357 25.0157 96.7979C25.0937 96.9359 25.1987 96.9999 25.3051 96.9999Z" fill="#5C5C5C"/>
<path d="M36.3811 97.0001C36.4879 97.0001 36.5922 96.9338 36.6715 96.8021L44.1007 84.5908C44.2608 84.3298 44.2608 83.8978 44.1007 83.6368L37.2582 72.3879L44.4002 60.6451C44.5604 60.3841 44.5604 59.9547 44.4002 59.6913L37.5853 48.4893L44.7627 36.6905C44.9194 36.4268 44.9194 35.9992 44.7627 35.7365L37.9185 24.4871L45.061 12.745C45.2202 12.4821 45.2202 12.0537 45.061 11.791L38.0079 0.197744C37.8477 -0.0659146 37.5857 -0.0659146 37.4278 0.197744C37.2678 0.460198 37.2678 0.888071 37.4278 1.15149L44.1875 12.2673L37.051 24.0021C36.8908 24.2655 36.8908 24.6932 37.051 24.9559C37.0626 24.9751 37.0743 24.9816 37.0895 24.9968C37.1055 25.0291 37.1099 25.0654 37.1283 25.0936L43.8907 36.2111L36.7515 47.9459C36.6504 48.1132 36.6232 48.3439 36.6475 48.5587C36.6456 48.7364 36.684 48.9155 36.7673 49.0501L43.5297 60.1702L36.3911 71.902C36.2325 72.1659 36.2325 72.5952 36.3911 72.8562C36.4021 72.8771 36.4151 72.8836 36.4275 72.8957C36.4425 72.9272 36.4472 72.9641 36.4677 72.9932L43.23 84.108L36.093 95.8409C35.9324 96.1046 35.9324 96.5353 36.093 96.7949C36.1711 96.936 36.2755 97.0001 36.3811 97.0001Z" fill="#5C5C5C"/>
</g>
<defs>
<clipPath id="clip0_6_76">
<rect width="59" height="97" fill="white"/>
</clipPath>
</defs>
</svg>
