<svg width="107" height="107" viewBox="0 0 107 107" fill="none" xmlns="http://www.w3.org/2000/svg">
<g clip-path="url(#clip0_6_97)">
<path d="M25.8059 107C25.9963 107 26.1868 106.927 26.3329 106.782L39.8047 93.3114C40.095 93.0234 40.095 92.5469 39.8047 92.259L27.3953 79.8504L40.3482 66.897C40.6366 66.6091 40.6366 66.1355 40.3482 65.845L27.9876 53.4881L41.0029 40.4729C41.2929 40.182 41.2929 39.7103 41.0029 39.4205L28.595 27.0114L41.5479 14.0588C41.8377 13.7687 41.8377 13.2962 41.5479 13.0064L28.7589 0.218008C28.4689 -0.072832 27.9964 -0.072832 27.7068 0.218008C27.4168 0.507519 27.4168 0.979502 27.7068 1.27008L39.9691 13.5318L27.0237 26.4764C26.7342 26.767 26.7342 27.2387 27.0237 27.5285C27.0449 27.5498 27.0702 27.5569 27.092 27.5737C27.1175 27.6092 27.1326 27.6494 27.1639 27.6804L39.426 39.944L26.4811 52.8886C26.2962 53.0732 26.2425 53.3277 26.2912 53.5646C26.2869 53.7606 26.3576 53.9582 26.5058 54.1067L38.7681 66.3732L25.8226 79.3144C25.5344 79.6055 25.5344 80.0791 25.8226 80.367C25.8439 80.3901 25.8678 80.3973 25.8901 80.4106C25.9151 80.4454 25.9286 80.486 25.9626 80.5181L38.2246 92.7788L25.2813 105.721C24.9913 106.012 24.9913 106.487 25.2813 106.774C25.4229 106.929 25.6154 107 25.8059 107Z" fill="black"/>
<path d="M45.8922 107C46.0826 107 46.2728 106.927 46.4186 106.782L59.8897 93.3114C60.1774 93.0235 60.1774 92.547 59.8897 92.2591L47.4827 79.8505L60.4366 66.8971C60.7229 66.6092 60.7229 66.1356 60.4366 65.845L48.075 53.4882L61.0916 40.4729C61.3806 40.1821 61.3806 39.7104 61.0916 39.4206L48.6837 27.013L61.6372 14.0602C61.9275 13.7704 61.9275 13.2979 61.6372 13.0081L48.8474 0.220982C48.5578 -0.0695917 48.0837 -0.0695917 47.7953 0.220982C47.5055 0.510759 47.5055 0.982477 47.7953 1.27305L60.0571 13.5348L47.1137 26.4797C46.8237 26.7703 46.8237 27.242 47.1137 27.5317C47.1334 27.5514 47.1565 27.5586 47.1791 27.5753C47.2046 27.6109 47.2178 27.6523 47.2518 27.6837L59.5152 39.9475L46.5708 52.8922C46.3878 53.0754 46.3339 53.3285 46.3814 53.5652C46.3767 53.7612 46.4455 53.962 46.5955 54.1124L58.8623 66.3775L45.9097 79.3182C45.6215 79.6061 45.6215 80.0826 45.9097 80.3705C45.931 80.3907 45.9549 80.4011 45.9756 80.4111C46.0024 80.4459 46.016 80.4895 46.05 80.5187L58.3115 92.7829L45.3674 105.725C45.0765 106.016 45.0765 106.488 45.3674 106.777C45.5089 106.929 45.6994 107 45.8922 107Z" fill="black"/>
<path d="M65.9793 107C66.1729 107 66.362 106.927 66.506 106.782L79.9792 93.3114C80.2695 93.0234 80.2695 92.5469 79.9792 92.259L67.57 79.8504L80.5224 66.897C80.8129 66.6091 80.8129 66.1355 80.5224 65.845L68.1631 53.4881L81.1797 40.4729C81.4639 40.182 81.4639 39.7103 81.1797 39.4205L68.7674 27.0114L81.7208 14.0588C82.0095 13.7687 82.0095 13.2962 81.7208 13.0064L68.9297 0.218008C68.6391 -0.072832 68.1639 -0.072832 67.8776 0.218008C67.5873 0.507519 67.5873 0.979502 67.8776 1.27008L80.1367 13.5318L67.1942 26.4764C66.9036 26.767 66.9036 27.2387 67.1942 27.5285C67.2152 27.5498 67.2364 27.5569 67.264 27.5737C67.293 27.6092 67.301 27.6494 67.3344 27.6804L79.5983 39.944L66.651 52.8886C66.4677 53.0732 66.4183 53.3277 66.4624 53.5646C66.459 53.7606 66.5286 53.9582 66.6797 54.1067L78.9436 66.3732L65.9974 79.3144C65.7097 79.6055 65.7097 80.0791 65.9974 80.367C66.0173 80.3901 66.0409 80.3973 66.0635 80.4106C66.0906 80.4454 66.0991 80.486 66.1363 80.5181L78.4002 92.7788L65.4568 105.721C65.1655 106.012 65.1655 106.487 65.4568 106.774C65.5984 106.929 65.7878 107 65.9793 107Z" fill="black"/>
</g>
<defs>
<clipPath id="clip0_6_97">
<rect width="107" height="107" fill="white"/>
</clipPath>
</defs>
</svg>
