<svg width="70" height="70" viewBox="0 0 70 70" fill="none" xmlns="http://www.w3.org/2000/svg">
<g clip-path="url(#clip0_24_264)">
<path d="M70 35C70 15.67 54.33 0 35 0C15.67 0 0 15.67 0 35C0 54.33 15.67 70 35 70C54.33 70 70 54.33 70 35Z" fill="url(#paint0_linear_24_264)"/>
<path opacity="0.1" d="M61.3422 11.9732C56.2396 21.3404 49.0231 31.0022 40.006 40.0193C30.9889 49.0364 21.3271 56.239 11.9738 61.3417C11.3874 60.832 10.8179 60.3009 10.2652 59.7482C6.92483 56.5194 4.26069 52.6578 2.42816 48.3886C0.595624 44.1194 -0.368633 39.5282 -0.408387 34.8825C-0.44814 30.2368 0.437406 25.6297 2.19661 21.3298C3.95582 17.0299 6.55349 13.1233 9.83814 9.83772C13.1228 6.55216 17.0287 3.9534 21.3281 2.19299C25.6275 0.432582 30.2344 -0.454249 34.8801 -0.415793C39.5257 -0.377337 44.1173 0.585639 48.387 2.41698C52.6566 4.24832 56.519 6.91138 59.7488 10.2509C60.3014 10.8035 60.8326 11.3776 61.3422 11.9732Z" fill="white"/>
<path d="M43.2896 16.5781H26.7107C24.0236 16.5781 21.4466 17.6456 19.5466 19.5456C17.6465 21.4456 16.5791 24.0226 16.5791 26.7097V43.2887C16.5791 45.9757 17.6465 48.5527 19.5466 50.4528C21.4466 52.3528 24.0236 53.4202 26.7107 53.4202H43.2896C45.9767 53.4202 48.5537 52.3528 50.4537 50.4528C52.3538 48.5527 53.4212 45.9757 53.4212 43.2887V26.7097C53.4212 24.0226 52.3538 21.4456 50.4537 19.5456C48.5537 17.6456 45.9767 16.5781 43.2896 16.5781ZM50.1975 41.8334C50.1975 44.0514 49.3164 46.1786 47.748 47.747C46.1796 49.3154 44.0524 50.1965 41.8344 50.1965H28.1659C25.9479 50.1965 23.8207 49.3154 22.2523 47.747C20.6839 46.1786 19.8028 44.0514 19.8028 41.8334V28.165C19.8028 25.9469 20.6839 23.8197 22.2523 22.2513C23.8207 20.6829 25.9479 19.8018 28.1659 19.8018H41.8344C44.0524 19.8018 46.1796 20.6829 47.748 22.2513C49.3164 23.8197 50.1975 25.9469 50.1975 28.165V41.8334Z" fill="white"/>
<path d="M41.7191 28.3495L41.6316 28.262L41.5579 28.1884C39.8167 26.4531 37.4583 25.4793 35 25.4805C33.7586 25.4889 32.5311 25.7419 31.3875 26.2249C30.2439 26.7079 29.2067 27.4115 28.3351 28.2955C27.4635 29.1795 26.7746 30.2265 26.3078 31.3768C25.841 32.5271 25.6054 33.7582 25.6145 34.9995C25.6126 37.5189 26.6057 39.937 28.3777 41.7278C29.2456 42.6063 30.2799 43.3031 31.4201 43.7776C32.5602 44.252 33.7835 44.4945 35.0185 44.491C36.8709 44.4521 38.6719 43.8751 40.202 42.8302C41.7321 41.7854 42.9251 40.3178 43.6355 38.6066C44.3458 36.8953 44.5429 35.0144 44.2026 33.1931C43.8623 31.3718 42.9994 29.6889 41.7191 28.3495ZM35 41.2443C33.7614 41.2616 32.5455 40.9102 31.5071 40.2347C30.4687 39.5591 29.6547 38.59 29.1686 37.4506C28.6826 36.3111 28.5463 35.0529 28.7773 33.8358C29.0083 32.6187 29.596 31.4978 30.4658 30.6157C31.3356 29.7336 32.448 29.1301 33.6617 28.882C34.8754 28.6338 36.1355 28.7523 37.2816 29.2223C38.4278 29.6922 39.4083 30.4925 40.0985 31.5212C40.7886 32.55 41.1572 33.7608 41.1573 34.9995C41.1633 35.814 41.0089 36.6216 40.7027 37.3763C40.3965 38.131 39.9445 38.8179 39.3727 39.3978C38.8009 39.9778 38.1204 40.4394 37.3701 40.7562C36.6198 41.073 35.8145 41.2389 35 41.2443Z" fill="white"/>
<path d="M47.1719 25.0427C47.1743 25.3382 47.1184 25.6313 47.0075 25.9052C46.8965 26.1791 46.7325 26.4284 46.5251 26.6389C46.3176 26.8493 46.0707 27.0168 45.7984 27.1317C45.5261 27.2466 45.2339 27.3067 44.9383 27.3085C44.6453 27.3084 44.3552 27.2501 44.0849 27.137C43.8145 27.024 43.5693 26.8584 43.3633 26.6499C43.0514 26.3334 42.8391 25.9322 42.753 25.4962C42.6669 25.0602 42.7106 24.6085 42.8788 24.1971C43.047 23.7857 43.3322 23.4327 43.6992 23.1819C44.0661 22.9311 44.4986 22.7935 44.943 22.7861C45.4631 22.786 45.9667 22.9686 46.366 23.3019L46.412 23.348C46.4863 23.4084 46.5542 23.4763 46.6147 23.5506L46.6653 23.6059C46.995 24.012 47.174 24.5196 47.1719 25.0427Z" fill="white"/>
</g>
<defs>
<linearGradient id="paint0_linear_24_264" x1="10.2513" y1="10.2513" x2="59.7487" y2="59.7487" gradientUnits="userSpaceOnUse">
<stop stop-color="#FAE100"/>
<stop offset="0.15" stop-color="#FCB720"/>
<stop offset="0.3" stop-color="#FF7950"/>
<stop offset="0.5" stop-color="#FF1C74"/>
<stop offset="1" stop-color="#6C1CD1"/>
</linearGradient>
<clipPath id="clip0_24_264">
<rect width="70" height="70" fill="white"/>
</clipPath>
</defs>
</svg>
