<svg width="34" height="34" viewBox="0 0 34 34" fill="none" xmlns="http://www.w3.org/2000/svg">
<g clip-path="url(#clip0_6_53)">
<path d="M26.338 12.9044C26.2463 12.7895 26.1351 12.8121 26.0769 12.8355C26.0281 12.8553 25.9162 12.9185 25.9317 13.077C25.9503 13.2672 25.9607 13.4612 25.9627 13.6536C25.971 14.4517 25.6509 15.2335 25.0844 15.7987C24.5216 16.3603 23.7813 16.6628 22.993 16.654C21.9163 16.6403 21.0233 16.0787 20.4104 15.0299C19.9037 14.1627 20.1264 13.0443 20.3622 11.86C20.5002 11.1669 20.6429 10.4501 20.6429 9.76791C20.6429 4.45614 17.072 1.39162 14.9434 0.0376631C14.8994 0.00970605 14.8575 -0.00012207 14.8204 -0.00012207C14.76 -0.00012207 14.7122 0.0259092 14.6886 0.0418467C14.6429 0.072792 14.5698 0.143315 14.5933 0.268159C15.4069 4.58868 12.9802 7.18723 10.4109 9.9383C7.76263 12.774 4.761 15.9882 4.761 21.7849C4.761 28.5204 10.2406 34 16.9761 34C22.5218 34 27.4114 30.1336 28.8665 24.5976C29.8587 20.8228 28.8189 16.0145 26.338 12.9044ZM17.2808 31.3927C15.5943 31.4696 13.9903 30.8647 12.7651 29.6933C11.5532 28.5344 10.858 26.9171 10.858 25.256C10.858 22.1388 12.0499 19.8504 15.2556 16.8125C15.308 16.7627 15.3618 16.747 15.4086 16.747C15.451 16.747 15.4878 16.76 15.5131 16.7721C15.5664 16.7978 15.6541 16.8614 15.6423 16.999C15.5276 18.3328 15.5296 19.4398 15.6481 20.2896C15.9509 22.4601 17.5398 23.9184 19.6021 23.9184C20.6132 23.9184 21.5763 23.5379 22.314 22.8469C22.3996 22.7667 22.4952 22.777 22.5318 22.7847C22.5804 22.7952 22.6454 22.825 22.6795 22.9071C22.9853 23.6456 23.1417 24.4295 23.144 25.237C23.1538 28.4859 20.5236 31.2474 17.2808 31.3927Z" fill="#FA8507"/>
</g>
<defs>
<clipPath id="clip0_6_53">
<rect width="34" height="34" fill="white"/>
</clipPath>
</defs>
</svg>
