<svg width="153" height="47" viewBox="0 0 153 47" fill="none" xmlns="http://www.w3.org/2000/svg">
<g clip-path="url(#clip0_21_118)">
<path d="M26.1233 2C24.0975 2.14012 21.7296 3.43687 20.3497 5.12548C19.091 6.65735 18.0555 8.93258 18.4592 11.1437C20.6727 11.2126 22.9598 9.88495 24.2851 8.16784C25.5248 6.56947 26.463 4.30849 26.1233 2Z" fill="white"/>
<path d="M34.1294 14.7491C32.1843 12.31 29.4507 10.8945 26.8691 10.8945C23.461 10.8945 22.0194 12.5261 19.6515 12.5261C17.21 12.5261 15.3552 10.8993 12.4078 10.8993C9.51269 10.8993 6.42996 12.6686 4.47535 15.6944C1.72749 19.9551 2.19773 27.9659 6.65083 34.7893C8.24445 37.2307 10.3724 39.9762 13.1559 40C15.633 40.0237 16.3313 38.4111 19.6871 38.3945C23.043 38.3755 23.6795 40.0214 26.1518 39.9952C28.9377 39.9739 31.1821 36.9315 32.7757 34.49C33.918 32.7397 34.3432 31.8585 35.229 29.8825C28.7857 27.4292 27.7526 18.2665 34.1294 14.7491Z" fill="white"/>
</g>
<path d="M41.5781 40C41.9414 38.6582 42.3428 37.2959 42.7822 35.9131C43.2217 34.5303 43.7666 32.8779 44.417 30.9561C45.0732 29.0283 45.5215 27.6953 45.7617 26.957C45.832 26.8398 45.8789 26.7695 45.9023 26.7461H47.3789C47.7246 26.7461 48.2344 26.7402 48.9082 26.7285C49.582 26.7168 50.0918 26.7109 50.4375 26.7109H51.9141C52.002 26.7109 52.0752 26.7139 52.1338 26.7197C52.1924 26.7197 52.2627 26.7256 52.3447 26.7373C52.4268 26.749 52.4912 26.7666 52.5381 26.79C52.5908 26.8135 52.6348 26.8486 52.6699 26.8955C52.7051 26.9424 52.7227 26.998 52.7227 27.0625L56.7744 39.9033C56.7744 40.0205 56.7305 40.0996 56.6426 40.1406C56.5605 40.1875 56.4023 40.2109 56.168 40.2109H55.3594C55.125 40.2109 54.7764 40.2139 54.3135 40.2197C53.8506 40.2256 53.502 40.2285 53.2676 40.2285C53.1973 40.2285 53.0537 40.2314 52.8369 40.2373C52.626 40.249 52.4473 40.252 52.3008 40.2461C52.1543 40.2461 51.9902 40.2373 51.8086 40.2197C51.6328 40.208 51.4893 40.1758 51.3779 40.123C51.2725 40.0762 51.2051 40.0117 51.1758 39.9297V39.3496C51.1172 39.0566 51.0146 38.7871 50.8682 38.541C50.7217 38.2949 50.5664 38.1719 50.4023 38.1719H47.3789L46.9219 40.0352C46.8574 40.1758 46.5293 40.2461 45.9375 40.2461H45.2344C44.9824 40.2461 44.6074 40.2549 44.1094 40.2725C43.6113 40.29 43.2363 40.2988 42.9844 40.2988H42.7383C42.6445 40.2988 42.4951 40.3018 42.29 40.3076C42.0908 40.3135 41.9355 40.3164 41.8242 40.3164C41.7773 40.2695 41.6953 40.1641 41.5781 40ZM47.6777 34.665L47.9238 35.0781H48.5039C48.9727 35.0781 49.4004 35.0518 49.7871 34.999C50.1797 34.9404 50.376 34.8496 50.376 34.7266L49.2422 29.6641C49.1367 29.6641 48.9932 29.8633 48.8115 30.2617C48.6357 30.6602 48.4922 31.1113 48.3809 31.6152L47.6777 34.665ZM57.4863 39.6484L57.3018 33.7949C57.3018 33.3906 57.3076 32.9336 57.3193 32.4238C57.3311 31.9141 57.3457 31.4541 57.3633 31.0439C57.3809 30.6338 57.3955 30.168 57.4072 29.6465C57.4248 29.125 57.4336 28.6504 57.4336 28.2227C57.4336 28.1055 57.4717 28.0322 57.5479 28.0029C57.6299 27.9678 57.7295 27.9561 57.8467 27.9678C57.9697 27.9795 58.1074 27.9707 58.2598 27.9414H64.5527C64.9102 27.9414 65.2676 27.9883 65.625 28.082C65.9824 28.1699 66.3311 28.3164 66.6709 28.5215C67.0166 28.7207 67.3184 28.9668 67.5762 29.2598C67.8398 29.5469 68.0508 29.9072 68.209 30.3408C68.373 30.7744 68.4551 31.252 68.4551 31.7734C68.4551 32.4648 68.3086 33.0801 68.0156 33.6191C67.7227 34.1523 67.2832 34.6562 66.6973 35.1309C65.9766 35.5059 65.1094 35.7227 64.0957 35.7812H63.8145C63.5801 35.8281 63.3457 35.8516 63.1113 35.8516H62.4082C62.373 35.8516 62.3438 35.8574 62.3203 35.8691C62.3203 37.4043 62.3438 38.5645 62.3906 39.3496C62.3613 39.4668 62.2969 39.5459 62.1973 39.5869C62.1035 39.6279 61.9395 39.6484 61.7051 39.6484H57.4863ZM61.8809 32.9336V33.0918C61.8867 33.0977 61.9248 33.1182 61.9951 33.1533C62.0713 33.1826 62.1094 33.2031 62.1094 33.2148V33.2324C62.0977 33.2324 62.0918 33.2207 62.0918 33.1973C62.1035 33.209 62.1387 33.2148 62.1973 33.2148C62.7188 33.2148 63.1582 33.0977 63.5156 32.8633C63.8789 32.6289 64.0605 32.2656 64.0605 31.7734C64.0605 31.5508 64.0225 31.3604 63.9463 31.2021C63.8701 31.0439 63.7764 30.9238 63.665 30.8418C63.5596 30.7539 63.4131 30.6895 63.2256 30.6484C63.0439 30.6016 62.877 30.5723 62.7246 30.5605C62.5723 30.5488 62.3789 30.543 62.1445 30.543C62.1387 30.5488 62.1152 30.5693 62.0742 30.6045C62.0332 30.6396 62.0039 30.666 61.9863 30.6836V31.5977C61.916 32.1602 61.8809 32.6055 61.8809 32.9336ZM69.4922 39.6484L69.3076 33.7949C69.3076 33.3906 69.3135 32.9336 69.3252 32.4238C69.3369 31.9141 69.3516 31.4541 69.3691 31.0439C69.3867 30.6338 69.4014 30.168 69.4131 29.6465C69.4307 29.125 69.4395 28.6504 69.4395 28.2227C69.4395 28.1055 69.4775 28.0322 69.5537 28.0029C69.6357 27.9678 69.7354 27.9561 69.8525 27.9678C69.9756 27.9795 70.1133 27.9707 70.2656 27.9414H76.5586C76.916 27.9414 77.2734 27.9883 77.6309 28.082C77.9883 28.1699 78.3369 28.3164 78.6768 28.5215C79.0225 28.7207 79.3242 28.9668 79.582 29.2598C79.8457 29.5469 80.0566 29.9072 80.2148 30.3408C80.3789 30.7744 80.4609 31.252 80.4609 31.7734C80.4609 32.4648 80.3145 33.0801 80.0215 33.6191C79.7285 34.1523 79.2891 34.6562 78.7031 35.1309C77.9824 35.5059 77.1152 35.7227 76.1016 35.7812H75.8203C75.5859 35.8281 75.3516 35.8516 75.1172 35.8516H74.4141C74.3789 35.8516 74.3496 35.8574 74.3262 35.8691C74.3262 37.4043 74.3496 38.5645 74.3965 39.3496C74.3672 39.4668 74.3027 39.5459 74.2031 39.5869C74.1094 39.6279 73.9453 39.6484 73.7109 39.6484H69.4922ZM73.8867 32.9336V33.0918C73.8926 33.0977 73.9307 33.1182 74.001 33.1533C74.0771 33.1826 74.1152 33.2031 74.1152 33.2148V33.2324C74.1035 33.2324 74.0977 33.2207 74.0977 33.1973C74.1094 33.209 74.1445 33.2148 74.2031 33.2148C74.7246 33.2148 75.1641 33.0977 75.5215 32.8633C75.8848 32.6289 76.0664 32.2656 76.0664 31.7734C76.0664 31.5508 76.0283 31.3604 75.9521 31.2021C75.876 31.0439 75.7822 30.9238 75.6709 30.8418C75.5654 30.7539 75.4189 30.6895 75.2314 30.6484C75.0498 30.6016 74.8828 30.5723 74.7305 30.5605C74.5781 30.5488 74.3848 30.543 74.1504 30.543C74.1445 30.5488 74.1211 30.5693 74.0801 30.6045C74.0391 30.6396 74.0098 30.666 73.9922 30.6836V31.5977C73.9219 32.1602 73.8867 32.6055 73.8867 32.9336ZM92.3965 40.5273C91.7051 40.498 91.084 40.4365 90.5332 40.3428C89.9824 40.2549 89.4492 40.1113 88.9336 39.9121C88.4238 39.707 87.9932 39.4521 87.6416 39.1475C87.2959 38.8369 87.0059 38.4414 86.7715 37.9609C86.543 37.4805 86.4023 36.9238 86.3496 36.291C86.3496 36.1797 86.4082 36.1152 86.5254 36.0977C86.5605 36.1094 86.6191 36.1152 86.7012 36.1152C87.1875 36.1152 87.9258 36.1035 88.916 36.0801C89.9062 36.0566 90.6445 36.0449 91.1309 36.0449C91.2539 36.0449 91.3506 36.0859 91.4209 36.168C91.4912 36.2441 91.5469 36.3408 91.5879 36.458C91.6348 36.5693 91.6875 36.6836 91.7461 36.8008C91.8105 36.9121 91.916 37.0088 92.0625 37.0908C92.2148 37.167 92.4082 37.2051 92.6426 37.2051C92.9297 37.2051 93.1816 37.126 93.3984 36.9678C93.6211 36.8037 93.7324 36.584 93.7324 36.3086C93.7324 36.127 93.6387 35.96 93.4512 35.8076C93.2637 35.6553 93.0146 35.5322 92.7041 35.4385C92.3994 35.3389 92.1064 35.2568 91.8252 35.1924C91.5498 35.1221 91.2656 35.0635 90.9727 35.0166C90.6797 34.9639 90.5098 34.9316 90.4629 34.9199C89.0391 34.5332 88.0137 34.0527 87.3867 33.4785C86.7656 32.9043 86.4551 32.1191 86.4551 31.123C86.4551 30.4199 86.584 29.79 86.8418 29.2334C87.0996 28.6709 87.4365 28.2139 87.8525 27.8623C88.2686 27.5049 88.7607 27.209 89.3291 26.9746C89.8975 26.7344 90.4717 26.5674 91.0518 26.4736C91.6318 26.374 92.2324 26.3242 92.8535 26.3242C94.5 26.3242 95.8125 26.6289 96.791 27.2383C97.1484 27.5957 97.4092 27.8682 97.5732 28.0557C97.7432 28.2373 97.9043 28.4512 98.0566 28.6973C98.2148 28.9434 98.3232 29.1865 98.3818 29.4268C98.4463 29.6611 98.4902 29.9512 98.5137 30.2969L98.1973 30.6133C96.9961 30.6602 95.6484 30.6836 94.1543 30.6836C93.9668 30.6836 93.8145 30.6631 93.6973 30.6221C93.5859 30.5811 93.5098 30.5283 93.4688 30.4639C93.4336 30.3994 93.3955 30.332 93.3545 30.2617C93.3193 30.1914 93.2842 30.124 93.249 30.0596C93.2197 29.9951 93.1523 29.9424 93.0469 29.9014C92.9473 29.8604 92.8125 29.8398 92.6426 29.8398C92.5957 29.8398 92.5195 29.8486 92.4141 29.8662C92.3145 29.8838 92.1943 29.9131 92.0537 29.9541C91.9189 29.9893 91.8018 30.0479 91.7021 30.1299C91.6025 30.2061 91.5527 30.2969 91.5527 30.4023C91.5527 30.5312 91.6172 30.6484 91.7461 30.7539C91.8809 30.8594 92.0215 30.9355 92.168 30.9824C92.3145 31.0293 92.4961 31.082 92.7129 31.1406C92.9297 31.1934 93.0645 31.2285 93.1172 31.2461C94.3945 31.5684 95.1562 31.7676 95.4023 31.8438C96.6855 32.248 97.5938 32.7783 98.127 33.4346C98.6191 34.0439 98.8652 34.8086 98.8652 35.7285C98.8652 36.2852 98.792 36.792 98.6455 37.249C98.5049 37.7061 98.3174 38.0928 98.083 38.4092C97.8486 38.7256 97.5557 39.0068 97.2041 39.2529C96.8525 39.499 96.4951 39.6953 96.1318 39.8418C95.7744 39.9883 95.3672 40.1113 94.9102 40.2109C94.4531 40.3105 94.0312 40.3809 93.6445 40.4219C93.2637 40.4688 92.8477 40.5039 92.3965 40.5273ZM98.9355 31.1055V27.9414H109.166C109.26 27.959 109.318 27.9971 109.342 28.0557C109.365 28.1084 109.377 28.1875 109.377 28.293V31.1055C109.365 31.2461 109.283 31.3164 109.131 31.3164H106.635V39.4023C106.635 39.4082 106.632 39.4229 106.626 39.4463C106.62 39.4697 106.617 39.4844 106.617 39.4902C106.617 39.4961 106.614 39.5078 106.608 39.5254C106.603 39.543 106.597 39.5547 106.591 39.5605C106.585 39.5664 106.579 39.5781 106.573 39.5957C106.567 39.6074 106.559 39.6162 106.547 39.6221C106.541 39.6221 106.529 39.6279 106.512 39.6396C106.5 39.6455 106.485 39.6514 106.468 39.6572C106.456 39.6631 106.438 39.6689 106.415 39.6748C106.397 39.6748 106.377 39.6777 106.354 39.6836H105.791C105.041 39.6836 104.666 39.6602 104.666 39.6133C104.619 39.6133 104.549 39.6162 104.455 39.6221C104.361 39.6279 104.291 39.6309 104.244 39.6309H103.541C103.406 39.6309 103.213 39.6338 102.961 39.6396C102.715 39.6455 102.521 39.6484 102.381 39.6484H101.889L101.537 39.4023V37.5039C101.543 37.1641 101.566 36.4375 101.607 35.3242C101.654 34.2109 101.678 33.332 101.678 32.6875V32.459C101.678 32.4121 101.681 32.3389 101.687 32.2393C101.692 32.1396 101.695 32.0664 101.695 32.0195C101.695 31.9668 101.692 31.8613 101.687 31.7031C101.681 31.5391 101.678 31.4336 101.678 31.3867H99.4805C99.3516 31.3867 99.2285 31.3662 99.1113 31.3252C98.9941 31.2783 98.9355 31.2051 98.9355 31.1055ZM109.482 33.6367L109.465 33.4434C109.576 32.4883 109.682 31.8232 109.781 31.4482C110.01 30.5693 110.42 29.834 111.012 29.2422L111.223 29.0312C111.504 28.7031 111.932 28.4219 112.506 28.1875H112.84C113.414 27.9473 114.357 27.7246 115.67 27.5195C115.998 27.5195 116.341 27.5459 116.698 27.5986C117.062 27.6455 117.463 27.7275 117.902 27.8447C118.342 27.9561 118.764 28.1377 119.168 28.3896C119.578 28.6357 119.918 28.9316 120.188 29.2773V29.5234C121.148 30.7246 121.629 32.0723 121.629 33.5664C121.629 35.248 121.242 36.6191 120.469 37.6797L120.117 38.1191C119.848 38.4531 119.511 38.7402 119.106 38.9805C118.708 39.2207 118.283 39.4053 117.832 39.5342C117.381 39.6572 116.947 39.7451 116.531 39.7979C116.121 39.8506 115.711 39.877 115.301 39.877C114.697 39.877 114.12 39.8066 113.569 39.666C113.024 39.5195 112.512 39.2939 112.031 38.9893C111.557 38.6846 111.138 38.3096 110.774 37.8643C110.411 37.4189 110.115 36.8828 109.887 36.2559C109.664 35.623 109.529 34.9258 109.482 34.1641V33.6367ZM114.316 33.707C114.316 35.7695 114.709 36.8008 115.494 36.8008C115.711 36.8008 115.898 36.7598 116.057 36.6777C116.221 36.5957 116.353 36.4697 116.452 36.2998C116.552 36.1299 116.634 35.957 116.698 35.7812C116.763 35.6055 116.807 35.3857 116.83 35.1221C116.859 34.8584 116.877 34.627 116.883 34.4277C116.895 34.2285 116.9 33.9883 116.9 33.707V33.3906C116.9 33.0859 116.883 32.793 116.848 32.5117C116.812 32.2305 116.751 31.9492 116.663 31.668C116.581 31.3809 116.452 31.1523 116.276 30.9824C116.101 30.8066 115.887 30.7188 115.635 30.7188C114.756 30.7188 114.316 31.5859 114.316 33.3203V33.707ZM122.895 27.9062H124.529C125.033 27.9062 125.839 27.8945 126.946 27.8711C128.054 27.8477 128.883 27.8359 129.434 27.8359C129.908 27.8359 130.351 27.8623 130.761 27.915C131.177 27.9678 131.584 28.0645 131.982 28.2051C132.387 28.3457 132.729 28.5244 133.011 28.7412C133.298 28.958 133.529 29.2451 133.705 29.6025C133.881 29.9541 133.969 30.3613 133.969 30.8242C133.969 31.4629 133.819 32.0078 133.521 32.459C133.222 32.9102 132.762 33.291 132.141 33.6016C132.387 33.707 132.601 33.8447 132.782 34.0146C132.964 34.1846 133.102 34.3311 133.195 34.4541C133.295 34.5771 133.389 34.7852 133.477 35.0781C133.57 35.3652 133.626 35.5557 133.644 35.6494C133.661 35.7373 133.699 35.96 133.758 36.3174C133.775 36.3994 133.787 36.4609 133.793 36.502C133.816 36.7363 133.916 37.167 134.092 37.7939C134.268 38.415 134.355 38.8926 134.355 39.2266C134.355 39.4375 134.291 39.543 134.162 39.543C133.811 39.543 133.277 39.5459 132.562 39.5518C131.854 39.5576 131.326 39.5605 130.98 39.5605C130.84 39.5488 130.629 39.543 130.348 39.543H129.75C129.633 39.5078 129.519 39.3262 129.407 38.998C129.296 38.6699 129.217 38.3008 129.17 37.8906L128.977 36.3262C128.941 36.1973 128.912 36.1064 128.889 36.0537C128.871 35.9951 128.836 35.9277 128.783 35.8516C128.73 35.7695 128.657 35.7139 128.563 35.6846C128.476 35.6553 128.361 35.6406 128.221 35.6406H127.816V39.1562C127.816 39.1738 127.816 39.2031 127.816 39.2441C127.816 39.2793 127.816 39.3057 127.816 39.3232C127.816 39.335 127.816 39.3555 127.816 39.3848C127.816 39.4141 127.813 39.4375 127.808 39.4551C127.802 39.4668 127.796 39.4844 127.79 39.5078C127.784 39.5312 127.775 39.5488 127.764 39.5605C127.758 39.5664 127.746 39.5781 127.729 39.5957C127.717 39.6074 127.699 39.6162 127.676 39.6221C127.658 39.6279 127.635 39.6338 127.605 39.6396C127.582 39.6455 127.553 39.6484 127.518 39.6484H122.895V27.9062ZM127.869 32.5469C127.881 32.5586 127.898 32.585 127.922 32.626C127.945 32.6611 127.969 32.6904 127.992 32.7139C128.016 32.7373 128.039 32.752 128.062 32.7578C128.238 32.7578 128.414 32.7402 128.59 32.7051C128.766 32.6641 128.944 32.5996 129.126 32.5117C129.313 32.4238 129.463 32.2891 129.574 32.1074C129.691 31.9258 129.75 31.709 129.75 31.457C129.75 30.8477 129.164 30.543 127.992 30.543C127.875 30.5723 127.816 30.6191 127.816 30.6836V31.0176C127.816 31.1875 127.825 31.4424 127.843 31.7822C127.86 32.1221 127.869 32.377 127.869 32.5469ZM135.146 28.6445C135.146 28.293 135.161 28.0879 135.19 28.0293C135.243 27.9473 135.328 27.9062 135.445 27.9062H135.656C135.75 27.9062 135.814 27.9121 135.85 27.9238H136.307C136.898 27.9238 137.792 27.9092 138.987 27.8799C140.188 27.8506 141.088 27.8359 141.686 27.8359H144.023C144.176 27.8535 144.252 27.9297 144.252 28.0645V31C144.246 31.0352 144.234 31.0674 144.217 31.0967C144.205 31.1201 144.193 31.1377 144.182 31.1494C144.176 31.1553 144.149 31.1758 144.103 31.2109C144.056 31.2402 144.023 31.2637 144.006 31.2812H139.928V32.3711H140.314C140.654 32.3711 141.173 32.3594 141.87 32.3359C142.567 32.3125 143.104 32.3008 143.479 32.3008C143.643 32.3008 143.754 32.333 143.812 32.3975C143.871 32.4619 143.9 32.5527 143.9 32.6699C143.9 32.6992 143.895 32.749 143.883 32.8193C143.871 32.8896 143.865 32.9395 143.865 32.9688V33.3027C143.865 33.3262 143.868 33.376 143.874 33.4521C143.88 33.5225 143.883 33.584 143.883 33.6367V33.8828C143.883 34.0117 143.889 34.1406 143.9 34.2695C143.912 34.3984 143.918 34.5098 143.918 34.6035V34.832C143.889 34.9023 143.865 34.9492 143.848 34.9727C143.83 34.9961 143.801 35.0078 143.76 35.0078V34.9902C143.543 34.9902 143.168 35.0049 142.635 35.0342C142.107 35.0635 141.686 35.0781 141.369 35.0781H139.963V36.2031C140.01 36.2031 140.08 36.2061 140.174 36.2119C140.268 36.2178 140.338 36.2207 140.385 36.2207C140.648 36.2207 141.038 36.2119 141.554 36.1943C142.069 36.1768 142.441 36.168 142.67 36.168H143.795C144.1 36.168 144.293 36.2031 144.375 36.2734C144.404 36.3086 144.428 36.3438 144.445 36.3789V39.1914C144.445 39.3145 144.422 39.4082 144.375 39.4727C144.328 39.5371 144.24 39.5723 144.111 39.5781H135.41L135.146 39.3496V28.6445Z" fill="white"/>
<path d="M42.6211 4.39844C42.6211 4.35547 42.6445 4.31836 42.6914 4.28711C42.7422 4.25195 42.8145 4.22656 42.9082 4.21094C43.002 4.19141 43.0957 4.17578 43.1895 4.16406C43.2832 4.15234 43.3945 4.14453 43.5234 4.14062C43.6562 4.13672 43.7656 4.13477 43.8516 4.13477C43.9375 4.13477 44.0352 4.13672 44.1445 4.14062C44.2578 4.14062 44.3242 4.14062 44.3438 4.14062H45C45.1289 4.14062 45.3086 4.13672 45.5391 4.12891C45.7734 4.12109 45.9453 4.11719 46.0547 4.11719C47.918 4.11719 49.25 4.4375 50.0508 5.07812L50.2617 5.26562C50.3281 5.32812 50.4023 5.41016 50.4844 5.51172C50.5664 5.60938 50.666 5.75977 50.7832 5.96289C50.9043 6.16211 51.0117 6.37891 51.1055 6.61328C51.1992 6.84766 51.2793 7.13672 51.3457 7.48047C51.4121 7.82422 51.4453 8.17969 51.4453 8.54688C51.4453 9.11719 51.3672 9.65039 51.2109 10.1465C51.0547 10.6426 50.8398 11.0723 50.5664 11.4355C50.2969 11.7988 49.9785 12.1133 49.6113 12.3789C49.248 12.6406 48.8535 12.8379 48.4277 12.9707C48.002 13.0996 47.5625 13.1641 47.1094 13.1641H46.9219C46.7539 13.1641 46.5039 13.1602 46.1719 13.1523C45.8398 13.1445 45.5898 13.1406 45.4219 13.1406C44.4414 13.1406 43.5547 13.1562 42.7617 13.1875C42.668 13 42.6211 12.8281 42.6211 12.6719V4.39844ZM46.0664 11.125C46.3008 11.125 46.5117 11.0996 46.6992 11.0488C46.8867 10.9941 47.0449 10.9238 47.1738 10.8379C47.3027 10.752 47.416 10.6426 47.5137 10.5098C47.6113 10.377 47.6875 10.2402 47.7422 10.0996C47.8008 9.95898 47.8457 9.79883 47.877 9.61914C47.9121 9.43555 47.9355 9.26367 47.9473 9.10352C47.959 8.93945 47.9648 8.75781 47.9648 8.55859V8.19531C47.9648 7.47656 47.8223 6.94727 47.5371 6.60742C47.252 6.26367 46.7539 6.08203 46.043 6.0625C46.0234 6.10547 45.9922 6.16406 45.9492 6.23828C45.9062 6.3125 45.875 6.37109 45.8555 6.41406V6.69531C45.8555 6.75391 45.8535 6.90625 45.8496 7.15234C45.7988 9.76953 45.8711 11.0938 46.0664 11.125ZM51.7734 8.75781L51.7617 8.62891C51.8359 7.99219 51.9062 7.54883 51.9727 7.29883C52.125 6.71289 52.3984 6.22266 52.793 5.82812L52.9336 5.6875C53.1211 5.46875 53.4062 5.28125 53.7891 5.125H54.0117C54.3945 4.96484 55.0234 4.81641 55.8984 4.67969C56.1172 4.67969 56.3457 4.69727 56.584 4.73242C56.8262 4.76367 57.0938 4.81836 57.3867 4.89648C57.6797 4.9707 57.9609 5.0918 58.2305 5.25977C58.5039 5.42383 58.7305 5.62109 58.9102 5.85156V6.01562C59.5508 6.81641 59.8711 7.71484 59.8711 8.71094C59.8711 9.83203 59.6133 10.7461 59.0977 11.4531L58.8633 11.7461C58.6836 11.9688 58.459 12.1602 58.1895 12.3203C57.9238 12.4805 57.6406 12.6035 57.3398 12.6895C57.0391 12.7715 56.75 12.8301 56.4727 12.8652C56.1992 12.9004 55.9258 12.918 55.6523 12.918C55.25 12.918 54.8652 12.8711 54.498 12.7773C54.1348 12.6797 53.793 12.5293 53.4727 12.3262C53.1562 12.123 52.877 11.873 52.6348 11.5762C52.3926 11.2793 52.1953 10.9219 52.043 10.5039C51.8945 10.082 51.8047 9.61719 51.7734 9.10938V8.75781ZM54.9961 8.80469C54.9961 10.1797 55.2578 10.8672 55.7812 10.8672C55.9258 10.8672 56.0508 10.8398 56.1562 10.7852C56.2656 10.7305 56.3535 10.6465 56.4199 10.5332C56.4863 10.4199 56.541 10.3047 56.584 10.1875C56.627 10.0703 56.6562 9.92383 56.6719 9.74805C56.6914 9.57227 56.7031 9.41797 56.707 9.28516C56.7148 9.15234 56.7188 8.99219 56.7188 8.80469V8.59375C56.7188 8.39062 56.707 8.19531 56.6836 8.00781C56.6602 7.82031 56.6191 7.63281 56.5605 7.44531C56.5059 7.25391 56.4199 7.10156 56.3027 6.98828C56.1855 6.87109 56.043 6.8125 55.875 6.8125C55.2891 6.8125 54.9961 7.39062 54.9961 8.54688V8.80469ZM63.457 8.86914C63.5273 8.58398 63.5918 8.26172 63.6504 7.90234C63.7129 7.54297 63.7637 7.22266 63.8027 6.94141C63.8418 6.66016 63.8867 6.31641 63.9375 5.91016C63.9922 5.5 64.0371 5.17578 64.0723 4.9375H67.4473C67.459 5.03125 67.4707 5.13281 67.4824 5.24219C67.498 5.34766 67.5117 5.44922 67.5234 5.54688C67.5352 5.64453 67.5469 5.74805 67.5586 5.85742C67.5742 5.9668 67.5879 6.07227 67.5996 6.17383C67.6113 6.27148 67.623 6.375 67.6348 6.48438C67.6465 6.59375 67.6582 6.69727 67.6699 6.79492C67.6855 6.89258 67.6992 6.99414 67.7109 7.09961C67.7266 7.20508 67.7402 7.30469 67.752 7.39844L68.0039 9.05664L68.4785 5.02539C68.4863 5.00195 68.5 4.98242 68.5195 4.9668C68.543 4.95117 68.5742 4.93945 68.6133 4.93164C68.6523 4.91992 68.6895 4.91211 68.7246 4.9082C68.7598 4.90039 68.8066 4.89648 68.8652 4.89648C68.9277 4.89258 68.9766 4.89062 69.0117 4.89062C69.0469 4.89062 69.0977 4.89062 69.1641 4.89062C69.2305 4.89062 69.2754 4.89062 69.2988 4.89062C69.4238 4.89062 69.6035 4.89453 69.8379 4.90234C70.0723 4.91016 70.252 4.91406 70.377 4.91406C70.3926 4.91406 70.4336 4.91211 70.5 4.9082C70.5664 4.9043 70.6191 4.90234 70.6582 4.90234C70.8066 4.90234 70.8926 4.91406 70.916 4.9375C70.9355 4.9375 70.9688 4.93555 71.0156 4.93164C71.0664 4.92773 71.1035 4.92578 71.127 4.92578C71.1621 4.92578 71.1914 4.92773 71.2148 4.93164C71.2422 4.93555 71.2695 4.94531 71.2969 4.96094C71.3242 4.97266 71.3477 4.98828 71.3672 5.00781C71.3906 5.02734 71.4102 5.05469 71.4258 5.08984C71.4453 5.125 71.459 5.16797 71.4668 5.21875L69.7617 12.6953H66.334L65.6836 8.93359L65.2793 12.0391C65.2754 12.0625 65.2637 12.127 65.2441 12.2324C65.2285 12.3379 65.2148 12.4102 65.2031 12.4492C65.1953 12.4883 65.1797 12.541 65.1562 12.6074C65.1328 12.6738 65.1035 12.7207 65.0684 12.748C65.0332 12.7754 64.9902 12.7891 64.9395 12.7891C64.7949 12.7891 64.5801 12.7832 64.2949 12.7715C64.0098 12.7598 63.7949 12.7539 63.6504 12.7539C63.4004 12.7539 63.0723 12.7598 62.666 12.7715C62.2598 12.7832 61.9629 12.7891 61.7754 12.7891H61.5879L60.0293 5.50586L60.0645 5.08984C60.0645 5.08203 60.0645 5.06641 60.0645 5.04297C60.0645 5.01953 60.0645 5.00586 60.0645 5.00195C60.0645 4.99414 60.0664 4.98242 60.0703 4.9668C60.0742 4.94727 60.0801 4.93359 60.0879 4.92578C60.0957 4.91797 60.1074 4.9082 60.123 4.89648C60.1387 4.88477 60.1582 4.875 60.1816 4.86719C60.291 4.88281 60.373 4.89062 60.4277 4.89062H60.8145C60.8926 4.89062 60.9316 4.88281 60.9316 4.86719H61.1309C61.1465 4.86719 61.1738 4.86523 61.2129 4.86133C61.2559 4.85742 61.2949 4.85547 61.3301 4.85547H61.4941C61.5371 4.85547 61.5996 4.85352 61.6816 4.84961C61.7637 4.8457 61.8262 4.84375 61.8691 4.84375H62.2559V4.86719H62.6426C62.7676 4.86719 62.8613 4.88672 62.9238 4.92578C62.9902 4.96094 63.0254 5.03516 63.0293 5.14844L63.457 8.86914ZM79.6406 4.9375C79.6875 4.95312 79.7227 5.02148 79.7461 5.14258C79.7734 5.25977 79.7891 5.4082 79.793 5.58789C79.7969 5.76758 79.7969 5.93945 79.793 6.10352C79.7891 6.26758 79.7832 6.43555 79.7754 6.60742C79.7715 6.7793 79.7695 6.88672 79.7695 6.92969C79.7617 7.08594 79.7578 7.30469 79.7578 7.58594V8.20703C79.7578 8.48047 79.7617 8.85547 79.7695 9.33203C79.7773 9.80859 79.7812 10.1602 79.7812 10.3867V12.5195C79.7656 12.6523 79.6562 12.7188 79.4531 12.7188H76.1719C76.1016 12.7031 76.0117 12.5391 75.9023 12.2266C75.8281 12.0195 75.7031 11.6797 75.5273 11.207C75.3555 10.7344 75.207 10.3203 75.082 9.96484C74.957 9.60547 74.8438 9.25781 74.7422 8.92188V8.88672V8.92188C74.7305 9.17969 74.7188 9.56445 74.707 10.0762C74.6953 10.584 74.6836 10.9648 74.6719 11.2188V12.4141C74.6719 12.5312 74.6582 12.6133 74.6309 12.6602C74.6035 12.7031 74.5312 12.7383 74.4141 12.7656H72L71.7422 12.5078C71.7617 11.8594 71.7773 10.8438 71.7891 9.46094C71.8008 8.07812 71.8164 7.05469 71.8359 6.39062V5.125C71.875 4.98438 71.9219 4.91406 71.9766 4.91406V4.9375C72.2422 4.9375 72.6582 4.92969 73.2246 4.91406C73.7949 4.89844 74.2227 4.89062 74.5078 4.89062H75.4922C75.4961 4.89062 75.502 4.89258 75.5098 4.89648C75.5801 4.92383 75.6191 4.95508 75.627 4.99023L75.6328 5.03125C75.7734 5.41016 75.916 5.80273 76.0605 6.20898C76.2051 6.61523 76.377 7.10742 76.5762 7.68555C76.7754 8.25977 76.9141 8.65625 76.9922 8.875V8.00781C77.0703 6.63281 77.1094 5.65625 77.1094 5.07812C77.1094 5.01562 77.1523 4.97656 77.2383 4.96094C77.3242 4.94531 77.457 4.9375 77.6367 4.9375H79.6406ZM81.0352 12.7656C81.0234 12.75 81.0039 12.7324 80.9766 12.7129C80.9531 12.6934 80.9258 12.6562 80.8945 12.6016V10.0703C80.8945 9.73828 80.9082 9.22852 80.9355 8.54102C80.9629 7.85352 80.9766 7.33203 80.9766 6.97656C80.9766 6.89844 80.9688 6.73242 80.9531 6.47852C80.9375 6.22461 80.9297 6.02344 80.9297 5.875C80.9297 5.32422 80.9961 4.98828 81.1289 4.86719C81.9414 4.88281 82.5469 4.89062 82.9453 4.89062H83.5078C83.6406 4.89062 83.7422 4.89453 83.8125 4.90234C83.8203 4.89453 83.8398 4.89062 83.8711 4.89062C83.8789 4.89062 83.9121 4.89453 83.9707 4.90234C84.0332 4.91016 84.082 4.91406 84.1172 4.91406C84.2148 4.92578 84.2969 5.00781 84.3633 5.16016V5.24219C84.3633 5.28516 84.3613 5.34766 84.3574 5.42969C84.3535 5.51172 84.3516 5.57422 84.3516 5.61719V5.875C84.3477 5.89453 84.3223 5.92969 84.2754 5.98047C84.2324 6.02734 84.2109 6.06641 84.2109 6.09766V10.375H86.6953C86.7578 10.375 86.8047 10.377 86.8359 10.3809C86.8672 10.3848 86.8984 10.4023 86.9297 10.4336C86.9609 10.4648 86.9766 10.5117 86.9766 10.5742V12.5312C86.9453 12.6875 86.7578 12.7656 86.4141 12.7656H81.0352ZM87.1289 8.75781L87.1172 8.62891C87.1914 7.99219 87.2617 7.54883 87.3281 7.29883C87.4805 6.71289 87.7539 6.22266 88.1484 5.82812L88.2891 5.6875C88.4766 5.46875 88.7617 5.28125 89.1445 5.125H89.3672C89.75 4.96484 90.3789 4.81641 91.2539 4.67969C91.4727 4.67969 91.7012 4.69727 91.9395 4.73242C92.1816 4.76367 92.4492 4.81836 92.7422 4.89648C93.0352 4.9707 93.3164 5.0918 93.5859 5.25977C93.8594 5.42383 94.0859 5.62109 94.2656 5.85156V6.01562C94.9062 6.81641 95.2266 7.71484 95.2266 8.71094C95.2266 9.83203 94.9688 10.7461 94.4531 11.4531L94.2188 11.7461C94.0391 11.9688 93.8145 12.1602 93.5449 12.3203C93.2793 12.4805 92.9961 12.6035 92.6953 12.6895C92.3945 12.7715 92.1055 12.8301 91.8281 12.8652C91.5547 12.9004 91.2812 12.918 91.0078 12.918C90.6055 12.918 90.2207 12.8711 89.8535 12.7773C89.4902 12.6797 89.1484 12.5293 88.8281 12.3262C88.5117 12.123 88.2324 11.873 87.9902 11.5762C87.748 11.2793 87.5508 10.9219 87.3984 10.5039C87.25 10.082 87.1602 9.61719 87.1289 9.10938V8.75781ZM90.3516 8.80469C90.3516 10.1797 90.6133 10.8672 91.1367 10.8672C91.2812 10.8672 91.4062 10.8398 91.5117 10.7852C91.6211 10.7305 91.709 10.6465 91.7754 10.5332C91.8418 10.4199 91.8965 10.3047 91.9395 10.1875C91.9824 10.0703 92.0117 9.92383 92.0273 9.74805C92.0469 9.57227 92.0586 9.41797 92.0625 9.28516C92.0703 9.15234 92.0742 8.99219 92.0742 8.80469V8.59375C92.0742 8.39062 92.0625 8.19531 92.0391 8.00781C92.0156 7.82031 91.9746 7.63281 91.916 7.44531C91.8613 7.25391 91.7754 7.10156 91.6582 6.98828C91.541 6.87109 91.3984 6.8125 91.2305 6.8125C90.6445 6.8125 90.3516 7.39062 90.3516 8.54688V8.80469ZM98.7656 11.5469C98.7383 11.6367 98.7109 11.7559 98.6836 11.9043C98.6602 12.0488 98.6367 12.1641 98.6133 12.25C98.5938 12.332 98.5586 12.4199 98.5078 12.5137C98.457 12.6035 98.3789 12.6699 98.2734 12.7129C98.1719 12.7559 98.0391 12.7773 97.875 12.7773H95.3438V12.5781C95.5508 11.957 95.8516 11.0039 96.2461 9.71875C96.6445 8.43359 96.9531 7.46094 97.1719 6.80078V6.8125C97.3047 6.43359 97.5 5.83984 97.7578 5.03125C97.7617 5.02344 97.7676 5.01367 97.7754 5.00195C97.8105 4.94336 97.8438 4.89844 97.875 4.86719L101.039 4.89062C101.578 4.89062 101.875 4.9375 101.93 5.03125V5.18359C101.938 5.21875 101.98 5.30859 102.059 5.45312C102.438 6.61328 102.715 7.45703 102.891 7.98438V8.05469C102.906 8.16797 102.941 8.29688 102.996 8.44141C103.051 8.58594 103.115 8.74219 103.189 8.91016C103.268 9.07422 103.322 9.20312 103.354 9.29688L103.588 10.1406C103.725 10.5938 103.926 11.1992 104.191 11.957V11.9453V12.0625C104.203 12.1172 104.232 12.1914 104.279 12.2852C104.326 12.3789 104.355 12.4453 104.367 12.4844C104.367 12.5938 104.344 12.6641 104.297 12.6953C104.254 12.7266 104.168 12.7422 104.039 12.7422H101.32C101.254 12.7344 101.211 12.7285 101.191 12.7246C101.172 12.7207 101.141 12.7129 101.098 12.7012C101.059 12.6895 101.029 12.6738 101.01 12.6543C100.994 12.6348 100.984 12.6094 100.98 12.5781L100.758 11.6875C100.742 11.6133 100.727 11.5723 100.711 11.5645C100.695 11.5527 100.648 11.5469 100.57 11.5469H98.7656ZM99.0469 9.46094V9.48438V9.46094ZM100.336 8.75781C100.312 8.64844 100.277 8.47266 100.23 8.23047C100.188 7.98438 100.145 7.77148 100.102 7.5918C100.059 7.4082 100.012 7.23828 99.9609 7.08203V6.80078C99.9297 6.71875 99.875 6.66016 99.7969 6.625V6.63672C99.7031 6.65625 99.6094 6.91797 99.5156 7.42188V7.70312C99.5078 7.73047 99.4902 7.75586 99.4629 7.7793C99.4355 7.80273 99.4219 7.81641 99.4219 7.82031C99.293 8.39062 99.1875 8.85156 99.1055 9.20312C99.1055 9.24219 99.0957 9.31055 99.0762 9.4082C99.0566 9.50586 99.0469 9.5625 99.0469 9.57812H100.5C100.5 9.47656 100.465 9.29297 100.395 9.02734V8.89844C100.391 8.88672 100.379 8.86523 100.359 8.83398C100.344 8.79883 100.336 8.77344 100.336 8.75781ZM107.977 4.86719C108.512 4.86719 108.992 4.90234 109.418 4.97266C109.848 5.04297 110.258 5.16797 110.648 5.34766C111.043 5.52734 111.371 5.76172 111.633 6.05078C111.895 6.33984 112.102 6.71484 112.254 7.17578C112.41 7.63672 112.488 8.17188 112.488 8.78125C112.488 9.22656 112.436 9.64258 112.33 10.0293C112.225 10.4121 112.08 10.7422 111.896 11.0195C111.713 11.2969 111.502 11.5449 111.264 11.7637C111.029 11.9785 110.773 12.1543 110.496 12.291C110.219 12.4277 109.941 12.5332 109.664 12.6074C109.387 12.6816 109.109 12.7266 108.832 12.7422H104.812V4.96094C104.824 4.96094 104.846 4.96289 104.877 4.9668C104.908 4.9707 104.93 4.97266 104.941 4.97266C105.109 4.97266 105.363 4.95508 105.703 4.91992C106.047 4.88477 106.305 4.86719 106.477 4.86719H107.977ZM108.047 10.9141C108.246 10.9141 108.422 10.8828 108.574 10.8203C108.727 10.7539 108.848 10.6602 108.938 10.5391C109.031 10.418 109.107 10.291 109.166 10.1582C109.229 10.0254 109.273 9.86914 109.301 9.68945C109.328 9.50977 109.346 9.35352 109.354 9.2207C109.365 9.08398 109.371 8.92969 109.371 8.75781V8.33594C109.367 8.30859 109.355 8.17578 109.336 7.9375C109.316 7.69922 109.273 7.49609 109.207 7.32812C109.145 7.20703 109.074 7.10352 108.996 7.01758C108.922 6.92773 108.848 6.85938 108.773 6.8125C108.699 6.76172 108.611 6.72461 108.51 6.70117C108.412 6.67383 108.322 6.65625 108.24 6.64844C108.158 6.64062 108.059 6.63672 107.941 6.63672V6.76562H107.766V10.9141H108.047ZM116.941 12.1797V4.35156C116.941 4.21875 117.246 4.15234 117.855 4.15234C117.922 4.15234 118.016 4.1543 118.137 4.1582C118.262 4.16211 118.348 4.16406 118.395 4.16406C118.703 4.16406 119.162 4.1582 119.771 4.14648C120.385 4.13477 120.848 4.12891 121.16 4.12891C121.375 4.12891 121.693 4.13281 122.115 4.14062C122.541 4.14844 122.871 4.15234 123.105 4.15234C123.137 4.15234 123.184 4.15039 123.246 4.14648C123.309 4.14258 123.355 4.14062 123.387 4.14062C123.527 4.14062 123.625 4.16797 123.68 4.22266C123.734 4.27344 123.762 4.375 123.762 4.52734V6.57812C123.535 6.59766 123.299 6.61133 123.053 6.61914C122.807 6.62305 122.494 6.62695 122.115 6.63086C121.736 6.63477 121.5 6.63672 121.406 6.63672H120.598C120.598 6.71094 120.596 6.81836 120.592 6.95898C120.588 7.09961 120.586 7.20703 120.586 7.28125V7.36328C120.594 7.37891 120.598 7.40625 120.598 7.44531C121.484 7.38281 122.234 7.35156 122.848 7.35156C123.031 7.35156 123.193 7.36523 123.334 7.39258C123.479 7.41992 123.551 7.46094 123.551 7.51562V9.47266C123.551 9.64453 123.518 9.75977 123.451 9.81836C123.385 9.87695 123.281 9.90625 123.141 9.90625C123.109 9.90625 123.053 9.90234 122.971 9.89453C122.889 9.88672 122.824 9.88281 122.777 9.88281C121.984 9.93359 121.262 9.96484 120.609 9.97656C120.609 10.2148 120.615 10.5742 120.627 11.0547C120.639 11.5352 120.645 11.8945 120.645 12.1328V12.8594C120.645 12.9727 120.633 13.0469 120.609 13.082C120.586 13.1211 120.527 13.1484 120.434 13.1641C120.059 13.1641 119.504 13.168 118.77 13.1758C118.035 13.1836 117.48 13.1875 117.105 13.1875C117.074 13.1406 117.047 13.0898 117.023 13.0352C117.004 12.9805 116.988 12.9316 116.977 12.8887C116.965 12.8457 116.955 12.7871 116.947 12.7129C116.943 12.6348 116.939 12.5801 116.936 12.5488C116.936 12.5137 116.936 12.4492 116.936 12.3555C116.939 12.2617 116.941 12.2031 116.941 12.1797ZM124.301 4.9375H125.391C125.727 4.9375 126.264 4.92969 127.002 4.91406C127.74 4.89844 128.293 4.89062 128.66 4.89062C128.977 4.89062 129.271 4.9082 129.545 4.94336C129.822 4.97852 130.094 5.04297 130.359 5.13672C130.629 5.23047 130.857 5.34961 131.045 5.49414C131.236 5.63867 131.391 5.83008 131.508 6.06836C131.625 6.30273 131.684 6.57422 131.684 6.88281C131.684 7.30859 131.584 7.67188 131.385 7.97266C131.186 8.27344 130.879 8.52734 130.465 8.73438C130.629 8.80469 130.771 8.89648 130.893 9.00977C131.014 9.12305 131.105 9.2207 131.168 9.30273C131.234 9.38477 131.297 9.52344 131.355 9.71875C131.418 9.91016 131.455 10.0371 131.467 10.0996C131.479 10.1582 131.504 10.3066 131.543 10.5449C131.555 10.5996 131.562 10.6406 131.566 10.668C131.582 10.8242 131.648 11.1113 131.766 11.5293C131.883 11.9434 131.941 12.2617 131.941 12.4844C131.941 12.625 131.898 12.6953 131.812 12.6953C131.578 12.6953 131.223 12.6973 130.746 12.7012C130.273 12.7051 129.922 12.707 129.691 12.707C129.598 12.6992 129.457 12.6953 129.27 12.6953H128.871C128.793 12.6719 128.717 12.5508 128.643 12.332C128.568 12.1133 128.516 11.8672 128.484 11.5938L128.355 10.5508C128.332 10.4648 128.312 10.4043 128.297 10.3691C128.285 10.3301 128.262 10.2852 128.227 10.2344C128.191 10.1797 128.143 10.1426 128.08 10.123C128.021 10.1035 127.945 10.0938 127.852 10.0938H127.582V12.4375C127.582 12.4492 127.582 12.4688 127.582 12.4961C127.582 12.5195 127.582 12.5371 127.582 12.5488C127.582 12.5566 127.582 12.5703 127.582 12.5898C127.582 12.6094 127.58 12.625 127.576 12.6367C127.572 12.6445 127.568 12.6562 127.564 12.6719C127.561 12.6875 127.555 12.6992 127.547 12.707C127.543 12.7109 127.535 12.7188 127.523 12.7305C127.516 12.7383 127.504 12.7441 127.488 12.748C127.477 12.752 127.461 12.7559 127.441 12.7598C127.426 12.7637 127.406 12.7656 127.383 12.7656H124.301V4.9375ZM127.617 8.03125C127.625 8.03906 127.637 8.05664 127.652 8.08398C127.668 8.10742 127.684 8.12695 127.699 8.14258C127.715 8.1582 127.73 8.16797 127.746 8.17188C127.863 8.17188 127.98 8.16016 128.098 8.13672C128.215 8.10938 128.334 8.06641 128.455 8.00781C128.58 7.94922 128.68 7.85938 128.754 7.73828C128.832 7.61719 128.871 7.47266 128.871 7.30469C128.871 6.89844 128.48 6.69531 127.699 6.69531C127.621 6.71484 127.582 6.74609 127.582 6.78906V7.01172C127.582 7.125 127.588 7.29492 127.6 7.52148C127.611 7.74805 127.617 7.91797 127.617 8.03125ZM132.094 8.75781L132.082 8.62891C132.156 7.99219 132.227 7.54883 132.293 7.29883C132.445 6.71289 132.719 6.22266 133.113 5.82812L133.254 5.6875C133.441 5.46875 133.727 5.28125 134.109 5.125H134.332C134.715 4.96484 135.344 4.81641 136.219 4.67969C136.438 4.67969 136.666 4.69727 136.904 4.73242C137.146 4.76367 137.414 4.81836 137.707 4.89648C138 4.9707 138.281 5.0918 138.551 5.25977C138.824 5.42383 139.051 5.62109 139.23 5.85156V6.01562C139.871 6.81641 140.191 7.71484 140.191 8.71094C140.191 9.83203 139.934 10.7461 139.418 11.4531L139.184 11.7461C139.004 11.9688 138.779 12.1602 138.51 12.3203C138.244 12.4805 137.961 12.6035 137.66 12.6895C137.359 12.7715 137.07 12.8301 136.793 12.8652C136.52 12.9004 136.246 12.918 135.973 12.918C135.57 12.918 135.186 12.8711 134.818 12.7773C134.455 12.6797 134.113 12.5293 133.793 12.3262C133.477 12.123 133.197 11.873 132.955 11.5762C132.713 11.2793 132.516 10.9219 132.363 10.5039C132.215 10.082 132.125 9.61719 132.094 9.10938V8.75781ZM135.316 8.80469C135.316 10.1797 135.578 10.8672 136.102 10.8672C136.246 10.8672 136.371 10.8398 136.477 10.7852C136.586 10.7305 136.674 10.6465 136.74 10.5332C136.807 10.4199 136.861 10.3047 136.904 10.1875C136.947 10.0703 136.977 9.92383 136.992 9.74805C137.012 9.57227 137.023 9.41797 137.027 9.28516C137.035 9.15234 137.039 8.99219 137.039 8.80469V8.59375C137.039 8.39062 137.027 8.19531 137.004 8.00781C136.98 7.82031 136.939 7.63281 136.881 7.44531C136.826 7.25391 136.74 7.10156 136.623 6.98828C136.506 6.87109 136.363 6.8125 136.195 6.8125C135.609 6.8125 135.316 7.39062 135.316 8.54688V8.80469ZM145.301 4.96094C145.328 4.95312 145.371 4.94727 145.43 4.94336C145.492 4.93555 145.531 4.92969 145.547 4.92578L146.244 8.49414L147.158 4.91406H151.277C151.387 4.91406 151.441 5.14453 151.441 5.60547V12.5078C151.434 12.5703 151.416 12.6211 151.389 12.6602C151.361 12.6992 151.32 12.7266 151.266 12.7422C151.215 12.7539 151.174 12.7617 151.143 12.7656C151.115 12.7656 151.066 12.7656 150.996 12.7656C150.75 12.7656 150.375 12.7695 149.871 12.7773C149.371 12.7852 148.996 12.7891 148.746 12.7891C148.551 12.668 148.453 12.2188 148.453 11.4414C148.453 11.2461 148.457 10.9922 148.465 10.6797C148.473 10.3633 148.477 10.1289 148.477 9.97656V9.46094C148.477 9.43359 148.475 9.39062 148.471 9.33203C148.467 9.26953 148.465 9.22266 148.465 9.19141C148.465 9.05859 148.473 8.84375 148.488 8.54688V8.99219C148.434 9.22266 148.328 9.57422 148.172 10.0469C148.016 10.5195 147.91 10.8711 147.855 11.1016L147.504 12.6016C147.441 12.7109 147.246 12.7656 146.918 12.7656C146.758 12.7656 146.549 12.7617 146.291 12.7539C146.037 12.7461 145.844 12.7422 145.711 12.7422C145.672 12.7422 145.605 12.7441 145.512 12.748C145.418 12.752 145.359 12.7539 145.336 12.7539C145.211 12.7539 145.121 12.7383 145.066 12.707C145.012 12.6758 144.973 12.6133 144.949 12.5195C144.582 10.8906 144.328 9.73828 144.188 9.0625L143.977 8.05469C143.922 9.19141 143.895 10.3945 143.895 11.6641V12.6953H141.129C141.129 12.6719 141.135 12.6211 141.146 12.543C141.158 12.4648 141.164 12.4219 141.164 12.4141C141.133 11.6641 141.117 10.7383 141.117 9.63672C141.117 9.30469 141.115 8.86328 141.111 8.3125C141.107 7.75781 141.105 7.375 141.105 7.16406V5.08984C141.105 5.03906 141.113 5.00195 141.129 4.97852C141.145 4.95117 141.184 4.91406 141.246 4.86719H141.785C141.98 4.86719 142.121 4.86328 142.207 4.85547C142.602 4.85547 143.08 4.87305 143.643 4.9082C144.209 4.94336 144.562 4.96094 144.703 4.96094H145.301ZM148.488 8.51172V8.5V8.51172Z" fill="white"/>
<defs>
<clipPath id="clip0_21_118">
<rect width="38" height="38" fill="white" transform="translate(0 2)"/>
</clipPath>
</defs>
</svg>
