<svg width="169" height="47" viewBox="0 0 169 47" fill="none" xmlns="http://www.w3.org/2000/svg">
<path d="M40.7832 33.4258C40.7832 32.6172 40.874 31.876 41.0557 31.2021C41.2373 30.5283 41.4775 29.957 41.7764 29.4883C42.0811 29.0195 42.4443 28.6035 42.8662 28.2402C43.2939 27.877 43.7334 27.5869 44.1846 27.3701C44.6357 27.1475 45.1191 26.9658 45.6348 26.8252C46.1562 26.6846 46.6426 26.5908 47.0938 26.5439C47.5449 26.4912 48.002 26.4648 48.4648 26.4648C48.8047 26.4648 49.1357 26.4795 49.458 26.5088C49.7861 26.5381 50.1523 26.5908 50.5566 26.667C50.9668 26.7373 51.3477 26.8486 51.6992 27.001C52.0566 27.1533 52.3965 27.3408 52.7188 27.5635C53.0469 27.7803 53.3311 28.0645 53.5713 28.416C53.8115 28.7617 53.9844 29.1543 54.0898 29.5938C54.1191 29.7637 54.1777 30.2441 54.2656 31.0352C54.2422 31.2109 54.0547 31.2988 53.7031 31.2988C53.1992 31.2988 52.4668 31.2871 51.5059 31.2637C50.5449 31.2402 49.8242 31.2285 49.3438 31.2285C49.2734 31.2051 49.2178 31.1582 49.1768 31.0879C49.1357 31.0176 49.1064 30.9414 49.0889 30.8594C49.0771 30.7773 49.0537 30.6895 49.0186 30.5957C48.9893 30.502 48.9482 30.4199 48.8955 30.3496C48.8486 30.2734 48.7607 30.2119 48.6318 30.165C48.5088 30.1123 48.3535 30.0859 48.166 30.0859C47.9199 30.0859 47.7002 30.1299 47.5068 30.2178C47.3135 30.2998 47.1553 30.4023 47.0322 30.5254C46.9092 30.6484 46.8037 30.8154 46.7158 31.0264C46.6279 31.2373 46.5605 31.4307 46.5137 31.6064C46.4727 31.7764 46.4404 31.9961 46.417 32.2656C46.3936 32.5293 46.3789 32.7373 46.373 32.8896C46.373 33.042 46.373 33.2441 46.373 33.4961C46.373 33.5723 46.376 33.666 46.3818 33.7773C46.3877 33.8887 46.3906 33.9648 46.3906 34.0059V34.2695C46.3906 34.457 46.3936 34.6123 46.3994 34.7354C46.4053 34.8584 46.4199 35.0166 46.4434 35.21C46.4727 35.4033 46.5107 35.5674 46.5576 35.7021C46.6045 35.8311 46.6719 35.9717 46.7598 36.124C46.8535 36.2705 46.9648 36.3906 47.0938 36.4844C47.2285 36.5723 47.3955 36.6484 47.5947 36.7129C47.7939 36.7715 48.0195 36.8008 48.2715 36.8008C48.9219 36.8008 49.4551 36.7363 49.8711 36.6074V35.5352H49.4844V35.5527H48.8516C48.8047 35.5527 48.7197 35.5557 48.5967 35.5615C48.4795 35.5674 48.3828 35.5703 48.3066 35.5703L47.9902 35.2188V32.793C47.9902 32.6406 48.0957 32.4766 48.3066 32.3008H48.9395C49.3789 32.3008 49.9121 32.3066 50.5391 32.3184C51.166 32.3301 51.6465 32.3359 51.9805 32.3359H52.6836C53.0234 32.3359 53.2871 32.3389 53.4746 32.3447C53.668 32.3506 53.8818 32.3799 54.1162 32.4326C54.3506 32.4795 54.5059 32.5527 54.582 32.6523C54.582 33.4199 54.5645 34.5391 54.5293 36.0098C54.4941 37.4805 54.4766 38.5469 54.4766 39.209C54.4766 39.2266 54.4795 39.2559 54.4854 39.2969C54.4912 39.332 54.4941 39.3613 54.4941 39.3848V39.5781C54.2949 39.8125 53.6445 40.0176 52.543 40.1934C51.4414 40.3691 50.5156 40.457 49.7656 40.457H49.5371C49.373 40.457 49.1299 40.4688 48.8076 40.4922C48.4854 40.5156 48.2422 40.5273 48.0781 40.5273C45.7168 40.5273 43.9092 39.8975 42.6553 38.6377C41.4072 37.3721 40.7832 35.6348 40.7832 33.4258ZM55.3555 33.6367L55.3379 33.4434C55.4492 32.4883 55.5547 31.8232 55.6543 31.4482C55.8828 30.5693 56.293 29.834 56.8848 29.2422L57.0957 29.0312C57.377 28.7031 57.8047 28.4219 58.3789 28.1875H58.7129C59.2871 27.9473 60.2305 27.7246 61.543 27.5195C61.8711 27.5195 62.2139 27.5459 62.5713 27.5986C62.9346 27.6455 63.3359 27.7275 63.7754 27.8447C64.2148 27.9561 64.6367 28.1377 65.041 28.3896C65.4512 28.6357 65.791 28.9316 66.0605 29.2773V29.5234C67.0215 30.7246 67.502 32.0723 67.502 33.5664C67.502 35.248 67.1152 36.6191 66.3418 37.6797L65.9902 38.1191C65.7207 38.4531 65.3838 38.7402 64.9795 38.9805C64.5811 39.2207 64.1562 39.4053 63.7051 39.5342C63.2539 39.6572 62.8203 39.7451 62.4043 39.7979C61.9941 39.8506 61.584 39.877 61.1738 39.877C60.5703 39.877 59.9932 39.8066 59.4424 39.666C58.8975 39.5195 58.3848 39.2939 57.9043 38.9893C57.4297 38.6846 57.0107 38.3096 56.6475 37.8643C56.2842 37.4189 55.9883 36.8828 55.7598 36.2559C55.5371 35.623 55.4023 34.9258 55.3555 34.1641V33.6367ZM60.1895 33.707C60.1895 35.7695 60.582 36.8008 61.3672 36.8008C61.584 36.8008 61.7715 36.7598 61.9297 36.6777C62.0938 36.5957 62.2256 36.4697 62.3252 36.2998C62.4248 36.1299 62.5068 35.957 62.5713 35.7812C62.6357 35.6055 62.6797 35.3857 62.7031 35.1221C62.7324 34.8584 62.75 34.627 62.7559 34.4277C62.7676 34.2285 62.7734 33.9883 62.7734 33.707V33.3906C62.7734 33.0859 62.7559 32.793 62.7207 32.5117C62.6855 32.2305 62.624 31.9492 62.5361 31.668C62.4541 31.3809 62.3252 31.1523 62.1494 30.9824C61.9736 30.8066 61.7598 30.7188 61.5078 30.7188C60.6289 30.7188 60.1895 31.5859 60.1895 33.3203V33.707ZM68.1348 33.6367L68.1172 33.4434C68.2285 32.4883 68.334 31.8232 68.4336 31.4482C68.6621 30.5693 69.0723 29.834 69.6641 29.2422L69.875 29.0312C70.1562 28.7031 70.584 28.4219 71.1582 28.1875H71.4922C72.0664 27.9473 73.0098 27.7246 74.3223 27.5195C74.6504 27.5195 74.9932 27.5459 75.3506 27.5986C75.7139 27.6455 76.1152 27.7275 76.5547 27.8447C76.9941 27.9561 77.416 28.1377 77.8203 28.3896C78.2305 28.6357 78.5703 28.9316 78.8398 29.2773V29.5234C79.8008 30.7246 80.2812 32.0723 80.2812 33.5664C80.2812 35.248 79.8945 36.6191 79.1211 37.6797L78.7695 38.1191C78.5 38.4531 78.1631 38.7402 77.7588 38.9805C77.3604 39.2207 76.9355 39.4053 76.4844 39.5342C76.0332 39.6572 75.5996 39.7451 75.1836 39.7979C74.7734 39.8506 74.3633 39.877 73.9531 39.877C73.3496 39.877 72.7725 39.8066 72.2217 39.666C71.6768 39.5195 71.1641 39.2939 70.6836 38.9893C70.209 38.6846 69.79 38.3096 69.4268 37.8643C69.0635 37.4189 68.7676 36.8828 68.5391 36.2559C68.3164 35.623 68.1816 34.9258 68.1348 34.1641V33.6367ZM72.9688 33.707C72.9688 35.7695 73.3613 36.8008 74.1465 36.8008C74.3633 36.8008 74.5508 36.7598 74.709 36.6777C74.873 36.5957 75.0049 36.4697 75.1045 36.2998C75.2041 36.1299 75.2861 35.957 75.3506 35.7812C75.415 35.6055 75.459 35.3857 75.4824 35.1221C75.5117 34.8584 75.5293 34.627 75.5352 34.4277C75.5469 34.2285 75.5527 33.9883 75.5527 33.707V33.3906C75.5527 33.0859 75.5352 32.793 75.5 32.5117C75.4648 32.2305 75.4033 31.9492 75.3154 31.668C75.2334 31.3809 75.1045 31.1523 74.9287 30.9824C74.7529 30.8066 74.5391 30.7188 74.2871 30.7188C73.4082 30.7188 72.9688 31.5859 72.9688 33.3203V33.707ZM93.2188 38.8398C93.1719 39.0566 92.7734 39.2529 92.0234 39.4287C91.2793 39.5986 90.5352 39.7188 89.791 39.7891C89.0527 39.8594 88.4668 39.8945 88.0332 39.8945C87.5762 39.8945 87.1777 39.8828 86.8379 39.8594C86.5039 39.8359 86.1025 39.7861 85.6338 39.71C85.1709 39.6279 84.7256 39.4932 84.2979 39.3057C83.8701 39.1123 83.4688 38.8691 83.0938 38.5762L82.7246 38.2598C82.625 38.1895 82.5254 38.084 82.4258 37.9434L82.1445 37.5742C81.4414 36.4668 81.0898 35.1777 81.0898 33.707C81.0898 32.248 81.459 31.0059 82.1973 29.9805L82.4434 29.6816V29.5586V29.5762C83.498 28.2285 85.2383 27.5547 87.6641 27.5547C88.0156 27.5547 88.3965 27.5869 88.8066 27.6514C89.2227 27.71 89.6621 27.8066 90.125 27.9414C90.5938 28.0703 91.0361 28.2637 91.4521 28.5215C91.8682 28.7793 92.1992 29.0781 92.4453 29.418C92.5684 29.582 92.6621 29.7666 92.7266 29.9717C92.791 30.1709 92.8496 30.4316 92.9023 30.7539C92.9609 31.0703 93.0078 31.3047 93.043 31.457C93.043 31.6562 92.8555 31.7559 92.4805 31.7559H91.7598C91.5957 31.7559 91.2588 31.7471 90.749 31.7295C90.2451 31.7119 89.8438 31.7031 89.5449 31.7031H88.5781C88.4961 31.6738 88.4199 31.583 88.3496 31.4307C88.2852 31.2725 88.2441 31.1816 88.2266 31.1582V31.1758C88.1211 30.9414 87.8867 30.8242 87.5234 30.8242C87.2832 30.8242 87.0723 30.877 86.8906 30.9824C86.7148 31.082 86.5801 31.208 86.4863 31.3604C86.3926 31.5068 86.3164 31.6943 86.2578 31.9229C86.2051 32.1455 86.1699 32.3506 86.1523 32.5381C86.1406 32.7256 86.1348 32.9395 86.1348 33.1797C86.1348 33.2617 86.1377 33.376 86.1436 33.5225C86.1494 33.6689 86.1523 33.7656 86.1523 33.8125V34.4805C86.1523 34.6914 86.1582 34.876 86.1699 35.0342C86.1875 35.1924 86.2256 35.3711 86.2842 35.5703C86.3428 35.7695 86.4248 35.9336 86.5303 36.0625C86.6357 36.1914 86.7881 36.2998 86.9873 36.3877C87.1865 36.4756 87.4238 36.5195 87.6992 36.5195C88.2734 36.5195 88.7246 36.4668 89.0527 36.3613V35.9746C89.0527 35.9277 89.0498 35.8662 89.0439 35.79C89.0381 35.7139 89.0352 35.6523 89.0352 35.6055C89.0352 35.5938 89.0381 35.5645 89.0439 35.5176C89.0498 35.4707 89.0527 35.4297 89.0527 35.3945H88.7188C88.6719 35.3945 88.6133 35.3975 88.543 35.4033C88.4727 35.4092 88.4258 35.4121 88.4023 35.4121H87.6641L87.3652 35.0781C87.3535 35.0195 87.3477 34.9316 87.3477 34.8145V34.2695C87.3477 34.1992 87.3506 34.0908 87.3564 33.9443C87.3623 33.7979 87.3652 33.6777 87.3652 33.584V33.3379C87.3652 33.3262 87.3682 33.2998 87.374 33.2588C87.3799 33.2178 87.3828 33.1797 87.3828 33.1445V33.0742C87.3828 32.9688 87.4033 32.8838 87.4443 32.8193C87.4854 32.7549 87.5645 32.6875 87.6816 32.6172H88.5078C88.5664 32.6172 88.6543 32.6289 88.7715 32.6523H89.5625C90.1484 32.6758 90.582 32.6875 90.8633 32.6875H91.707C92.5977 32.6875 93.125 32.7695 93.2891 32.9336C93.2891 33.4961 93.2773 34.3516 93.2539 35.5C93.2305 36.6484 93.2188 37.5039 93.2188 38.0664V38.8398ZM94.8711 39.6484C94.8535 39.625 94.8242 39.5986 94.7832 39.5693C94.748 39.54 94.707 39.4844 94.6602 39.4023V35.6055C94.6602 35.1074 94.6807 34.3428 94.7217 33.3115C94.7627 32.2803 94.7832 31.498 94.7832 30.9648C94.7832 30.8477 94.7715 30.5986 94.748 30.2178C94.7246 29.8369 94.7129 29.5352 94.7129 29.3125C94.7129 28.4863 94.8125 27.9824 95.0117 27.8008C96.2305 27.8242 97.1387 27.8359 97.7363 27.8359H98.5801C98.7793 27.8359 98.9316 27.8418 99.0371 27.8535C99.0488 27.8418 99.0781 27.8359 99.125 27.8359C99.1367 27.8359 99.1865 27.8418 99.2744 27.8535C99.3682 27.8652 99.4414 27.8711 99.4941 27.8711C99.6406 27.8887 99.7637 28.0117 99.8633 28.2402V28.3633C99.8633 28.4277 99.8604 28.5215 99.8545 28.6445C99.8486 28.7676 99.8457 28.8613 99.8457 28.9258V29.3125C99.8398 29.3418 99.8018 29.3945 99.7314 29.4707C99.667 29.541 99.6348 29.5996 99.6348 29.6465V36.0625H103.361C103.455 36.0625 103.525 36.0654 103.572 36.0713C103.619 36.0771 103.666 36.1035 103.713 36.1504C103.76 36.1973 103.783 36.2676 103.783 36.3613V39.2969C103.736 39.5312 103.455 39.6484 102.939 39.6484H94.8711ZM104.574 28.6445C104.574 28.293 104.589 28.0879 104.618 28.0293C104.671 27.9473 104.756 27.9062 104.873 27.9062H105.084C105.178 27.9062 105.242 27.9121 105.277 27.9238H105.734C106.326 27.9238 107.22 27.9092 108.415 27.8799C109.616 27.8506 110.516 27.8359 111.113 27.8359H113.451C113.604 27.8535 113.68 27.9297 113.68 28.0645V31C113.674 31.0352 113.662 31.0674 113.645 31.0967C113.633 31.1201 113.621 31.1377 113.609 31.1494C113.604 31.1553 113.577 31.1758 113.53 31.2109C113.483 31.2402 113.451 31.2637 113.434 31.2812H109.355V32.3711H109.742C110.082 32.3711 110.601 32.3594 111.298 32.3359C111.995 32.3125 112.531 32.3008 112.906 32.3008C113.07 32.3008 113.182 32.333 113.24 32.3975C113.299 32.4619 113.328 32.5527 113.328 32.6699C113.328 32.6992 113.322 32.749 113.311 32.8193C113.299 32.8896 113.293 32.9395 113.293 32.9688V33.3027C113.293 33.3262 113.296 33.376 113.302 33.4521C113.308 33.5225 113.311 33.584 113.311 33.6367V33.8828C113.311 34.0117 113.316 34.1406 113.328 34.2695C113.34 34.3984 113.346 34.5098 113.346 34.6035V34.832C113.316 34.9023 113.293 34.9492 113.275 34.9727C113.258 34.9961 113.229 35.0078 113.188 35.0078V34.9902C112.971 34.9902 112.596 35.0049 112.062 35.0342C111.535 35.0635 111.113 35.0781 110.797 35.0781H109.391V36.2031C109.438 36.2031 109.508 36.2061 109.602 36.2119C109.695 36.2178 109.766 36.2207 109.812 36.2207C110.076 36.2207 110.466 36.2119 110.981 36.1943C111.497 36.1768 111.869 36.168 112.098 36.168H113.223C113.527 36.168 113.721 36.2031 113.803 36.2734C113.832 36.3086 113.855 36.3438 113.873 36.3789V39.1914C113.873 39.3145 113.85 39.4082 113.803 39.4727C113.756 39.5371 113.668 39.5723 113.539 39.5781H104.838L104.574 39.3496V28.6445ZM120.412 38.8047V27.0977C120.412 27.0566 120.43 27.0215 120.465 26.9922C120.506 26.9629 120.567 26.9424 120.649 26.9307C120.731 26.9189 120.802 26.9102 120.86 26.9043C120.925 26.8984 121.013 26.8955 121.124 26.8955C121.241 26.8896 121.32 26.8867 121.361 26.8867H128.498C129.084 26.8867 129.638 26.9805 130.159 27.168C130.681 27.3496 131.144 27.6162 131.548 27.9678C131.952 28.3193 132.271 28.7734 132.506 29.3301C132.74 29.8867 132.857 30.5137 132.857 31.2109C132.857 31.7266 132.796 32.1982 132.673 32.626C132.556 33.0537 132.397 33.4199 132.198 33.7246C132.005 34.0234 131.765 34.293 131.478 34.5332C131.196 34.7734 130.906 34.9668 130.607 35.1133C130.314 35.2598 129.989 35.3857 129.632 35.4912C129.274 35.5908 128.943 35.6641 128.639 35.7109C128.34 35.7578 128.023 35.793 127.689 35.8164H126.002C125.955 36.7363 125.932 37.7676 125.932 38.9102V39.8945C125.914 40.1055 125.814 40.2109 125.633 40.2109H120.641C120.488 39.8066 120.412 39.3379 120.412 38.8047ZM125.369 32.6523L125.65 33.0391C125.891 33.0391 126.119 33.0215 126.336 32.9863C126.559 32.9512 126.775 32.8896 126.986 32.8018C127.197 32.7139 127.379 32.6025 127.531 32.4678C127.684 32.3271 127.807 32.1514 127.9 31.9404C127.994 31.7236 128.041 31.4805 128.041 31.2109C128.041 31.0059 128.012 30.8242 127.953 30.666C127.9 30.502 127.833 30.3701 127.751 30.2705C127.675 30.165 127.566 30.0742 127.426 29.998C127.291 29.9219 127.162 29.8662 127.039 29.8311C126.922 29.79 126.77 29.7607 126.582 29.7432C126.4 29.7197 126.248 29.708 126.125 29.708C126.008 29.7021 125.855 29.6992 125.668 29.6992C125.469 29.793 125.369 30.7773 125.369 32.6523ZM133.842 39.6484C133.824 39.625 133.795 39.5986 133.754 39.5693C133.719 39.54 133.678 39.4844 133.631 39.4023V35.6055C133.631 35.1074 133.651 34.3428 133.692 33.3115C133.733 32.2803 133.754 31.498 133.754 30.9648C133.754 30.8477 133.742 30.5986 133.719 30.2178C133.695 29.8369 133.684 29.5352 133.684 29.3125C133.684 28.4863 133.783 27.9824 133.982 27.8008C135.201 27.8242 136.109 27.8359 136.707 27.8359H137.551C137.75 27.8359 137.902 27.8418 138.008 27.8535C138.02 27.8418 138.049 27.8359 138.096 27.8359C138.107 27.8359 138.157 27.8418 138.245 27.8535C138.339 27.8652 138.412 27.8711 138.465 27.8711C138.611 27.8887 138.734 28.0117 138.834 28.2402V28.3633C138.834 28.4277 138.831 28.5215 138.825 28.6445C138.819 28.7676 138.816 28.8613 138.816 28.9258V29.3125C138.811 29.3418 138.772 29.3945 138.702 29.4707C138.638 29.541 138.605 29.5996 138.605 29.6465V36.0625H142.332C142.426 36.0625 142.496 36.0654 142.543 36.0713C142.59 36.0771 142.637 36.1035 142.684 36.1504C142.73 36.1973 142.754 36.2676 142.754 36.3613V39.2969C142.707 39.5312 142.426 39.6484 141.91 39.6484H133.842ZM147.658 37.8203C147.617 37.9551 147.576 38.1338 147.535 38.3564C147.5 38.5732 147.465 38.7461 147.43 38.875C147.4 38.998 147.348 39.1299 147.271 39.2705C147.195 39.4053 147.078 39.5049 146.92 39.5693C146.768 39.6338 146.568 39.666 146.322 39.666H142.525V39.3672C142.836 38.4355 143.287 37.0059 143.879 35.0781C144.477 33.1504 144.939 31.6914 145.268 30.7012V30.7188C145.467 30.1504 145.76 29.2598 146.146 28.0469C146.152 28.0352 146.161 28.0205 146.173 28.0029C146.226 27.915 146.275 27.8477 146.322 27.8008L151.068 27.8359C151.877 27.8359 152.322 27.9062 152.404 28.0469V28.2754C152.416 28.3281 152.48 28.4629 152.598 28.6797C153.166 30.4199 153.582 31.6855 153.846 32.4766V32.582C153.869 32.752 153.922 32.9453 154.004 33.1621C154.086 33.3789 154.183 33.6133 154.294 33.8652C154.411 34.1113 154.493 34.3047 154.54 34.4453L154.892 35.7109C155.097 36.3906 155.398 37.2988 155.797 38.4355V38.418V38.5938C155.814 38.6758 155.858 38.7871 155.929 38.9277C155.999 39.0684 156.043 39.168 156.061 39.2266C156.061 39.3906 156.025 39.4961 155.955 39.543C155.891 39.5898 155.762 39.6133 155.568 39.6133H151.49C151.391 39.6016 151.326 39.5928 151.297 39.5869C151.268 39.5811 151.221 39.5693 151.156 39.5518C151.098 39.5342 151.054 39.5107 151.024 39.4814C151.001 39.4521 150.986 39.4141 150.98 39.3672L150.646 38.0312C150.623 37.9199 150.6 37.8584 150.576 37.8467C150.553 37.8291 150.482 37.8203 150.365 37.8203H147.658ZM148.08 34.6914V34.7266V34.6914ZM150.014 33.6367C149.979 33.4727 149.926 33.209 149.855 32.8457C149.791 32.4766 149.727 32.1572 149.662 31.8877C149.598 31.6123 149.527 31.3574 149.451 31.123V30.7012C149.404 30.5781 149.322 30.4902 149.205 30.4375V30.4551C149.064 30.4844 148.924 30.877 148.783 31.6328V32.0547C148.771 32.0957 148.745 32.1338 148.704 32.1689C148.663 32.2041 148.643 32.2246 148.643 32.2305C148.449 33.0859 148.291 33.7773 148.168 34.3047C148.168 34.3633 148.153 34.4658 148.124 34.6123C148.095 34.7588 148.08 34.8438 148.08 34.8672H150.26C150.26 34.7148 150.207 34.4395 150.102 34.041V33.8477C150.096 33.8301 150.078 33.7979 150.049 33.751C150.025 33.6982 150.014 33.6602 150.014 33.6367ZM160.622 27.8711L162.002 32.2129C162.447 31.0234 162.863 29.834 163.25 28.6445C163.262 28.5977 163.297 28.5098 163.355 28.3809C163.414 28.252 163.449 28.1465 163.461 28.0645C163.508 27.9238 163.824 27.8535 164.41 27.8535C164.451 27.8535 164.507 27.8564 164.577 27.8623C164.653 27.8682 164.715 27.8711 164.762 27.8711C165.717 27.8594 166.748 27.8477 167.855 27.8359C167.996 27.8535 168.096 27.9971 168.154 28.2666L164.164 35.4912L164.305 36.0801C164.305 36.4199 164.311 36.9385 164.322 37.6357C164.334 38.333 164.34 38.8164 164.34 39.0859V39.3496C164.316 39.4316 164.27 39.499 164.199 39.5518C164.135 39.6045 164.041 39.6396 163.918 39.6572C163.801 39.6689 163.695 39.6777 163.602 39.6836C163.514 39.6836 163.385 39.6807 163.215 39.6748C163.051 39.6689 162.939 39.666 162.881 39.666H159.523L159.242 39.2969V35.623L157.212 31.29L156.271 29.9717C155.791 29.0107 155.551 28.3926 155.551 28.1172C155.551 27.9531 155.691 27.8711 155.973 27.8711H160.622Z" fill="white"/>
<path d="M39.6211 4.39844C39.6211 4.35547 39.6445 4.31836 39.6914 4.28711C39.7422 4.25195 39.8145 4.22656 39.9082 4.21094C40.002 4.19141 40.0957 4.17578 40.1895 4.16406C40.2832 4.15234 40.3945 4.14453 40.5234 4.14062C40.6562 4.13672 40.7656 4.13477 40.8516 4.13477C40.9375 4.13477 41.0352 4.13672 41.1445 4.14062C41.2578 4.14062 41.3242 4.14062 41.3438 4.14062H42C42.1289 4.14062 42.3086 4.13672 42.5391 4.12891C42.7734 4.12109 42.9453 4.11719 43.0547 4.11719C44.918 4.11719 46.25 4.4375 47.0508 5.07812L47.2617 5.26562C47.3281 5.32812 47.4023 5.41016 47.4844 5.51172C47.5664 5.60938 47.666 5.75977 47.7832 5.96289C47.9043 6.16211 48.0117 6.37891 48.1055 6.61328C48.1992 6.84766 48.2793 7.13672 48.3457 7.48047C48.4121 7.82422 48.4453 8.17969 48.4453 8.54688C48.4453 9.11719 48.3672 9.65039 48.2109 10.1465C48.0547 10.6426 47.8398 11.0723 47.5664 11.4355C47.2969 11.7988 46.9785 12.1133 46.6113 12.3789C46.248 12.6406 45.8535 12.8379 45.4277 12.9707C45.002 13.0996 44.5625 13.1641 44.1094 13.1641H43.9219C43.7539 13.1641 43.5039 13.1602 43.1719 13.1523C42.8398 13.1445 42.5898 13.1406 42.4219 13.1406C41.4414 13.1406 40.5547 13.1562 39.7617 13.1875C39.668 13 39.6211 12.8281 39.6211 12.6719V4.39844ZM43.0664 11.125C43.3008 11.125 43.5117 11.0996 43.6992 11.0488C43.8867 10.9941 44.0449 10.9238 44.1738 10.8379C44.3027 10.752 44.416 10.6426 44.5137 10.5098C44.6113 10.377 44.6875 10.2402 44.7422 10.0996C44.8008 9.95898 44.8457 9.79883 44.877 9.61914C44.9121 9.43555 44.9355 9.26367 44.9473 9.10352C44.959 8.93945 44.9648 8.75781 44.9648 8.55859V8.19531C44.9648 7.47656 44.8223 6.94727 44.5371 6.60742C44.252 6.26367 43.7539 6.08203 43.043 6.0625C43.0234 6.10547 42.9922 6.16406 42.9492 6.23828C42.9062 6.3125 42.875 6.37109 42.8555 6.41406V6.69531C42.8555 6.75391 42.8535 6.90625 42.8496 7.15234C42.7988 9.76953 42.8711 11.0938 43.0664 11.125ZM48.7734 8.75781L48.7617 8.62891C48.8359 7.99219 48.9062 7.54883 48.9727 7.29883C49.125 6.71289 49.3984 6.22266 49.793 5.82812L49.9336 5.6875C50.1211 5.46875 50.4062 5.28125 50.7891 5.125H51.0117C51.3945 4.96484 52.0234 4.81641 52.8984 4.67969C53.1172 4.67969 53.3457 4.69727 53.584 4.73242C53.8262 4.76367 54.0938 4.81836 54.3867 4.89648C54.6797 4.9707 54.9609 5.0918 55.2305 5.25977C55.5039 5.42383 55.7305 5.62109 55.9102 5.85156V6.01562C56.5508 6.81641 56.8711 7.71484 56.8711 8.71094C56.8711 9.83203 56.6133 10.7461 56.0977 11.4531L55.8633 11.7461C55.6836 11.9688 55.459 12.1602 55.1895 12.3203C54.9238 12.4805 54.6406 12.6035 54.3398 12.6895C54.0391 12.7715 53.75 12.8301 53.4727 12.8652C53.1992 12.9004 52.9258 12.918 52.6523 12.918C52.25 12.918 51.8652 12.8711 51.498 12.7773C51.1348 12.6797 50.793 12.5293 50.4727 12.3262C50.1562 12.123 49.877 11.873 49.6348 11.5762C49.3926 11.2793 49.1953 10.9219 49.043 10.5039C48.8945 10.082 48.8047 9.61719 48.7734 9.10938V8.75781ZM51.9961 8.80469C51.9961 10.1797 52.2578 10.8672 52.7812 10.8672C52.9258 10.8672 53.0508 10.8398 53.1562 10.7852C53.2656 10.7305 53.3535 10.6465 53.4199 10.5332C53.4863 10.4199 53.541 10.3047 53.584 10.1875C53.627 10.0703 53.6562 9.92383 53.6719 9.74805C53.6914 9.57227 53.7031 9.41797 53.707 9.28516C53.7148 9.15234 53.7188 8.99219 53.7188 8.80469V8.59375C53.7188 8.39062 53.707 8.19531 53.6836 8.00781C53.6602 7.82031 53.6191 7.63281 53.5605 7.44531C53.5059 7.25391 53.4199 7.10156 53.3027 6.98828C53.1855 6.87109 53.043 6.8125 52.875 6.8125C52.2891 6.8125 51.9961 7.39062 51.9961 8.54688V8.80469ZM60.457 8.86914C60.5273 8.58398 60.5918 8.26172 60.6504 7.90234C60.7129 7.54297 60.7637 7.22266 60.8027 6.94141C60.8418 6.66016 60.8867 6.31641 60.9375 5.91016C60.9922 5.5 61.0371 5.17578 61.0723 4.9375H64.4473C64.459 5.03125 64.4707 5.13281 64.4824 5.24219C64.498 5.34766 64.5117 5.44922 64.5234 5.54688C64.5352 5.64453 64.5469 5.74805 64.5586 5.85742C64.5742 5.9668 64.5879 6.07227 64.5996 6.17383C64.6113 6.27148 64.623 6.375 64.6348 6.48438C64.6465 6.59375 64.6582 6.69727 64.6699 6.79492C64.6855 6.89258 64.6992 6.99414 64.7109 7.09961C64.7266 7.20508 64.7402 7.30469 64.752 7.39844L65.0039 9.05664L65.4785 5.02539C65.4863 5.00195 65.5 4.98242 65.5195 4.9668C65.543 4.95117 65.5742 4.93945 65.6133 4.93164C65.6523 4.91992 65.6895 4.91211 65.7246 4.9082C65.7598 4.90039 65.8066 4.89648 65.8652 4.89648C65.9277 4.89258 65.9766 4.89062 66.0117 4.89062C66.0469 4.89062 66.0977 4.89062 66.1641 4.89062C66.2305 4.89062 66.2754 4.89062 66.2988 4.89062C66.4238 4.89062 66.6035 4.89453 66.8379 4.90234C67.0723 4.91016 67.252 4.91406 67.377 4.91406C67.3926 4.91406 67.4336 4.91211 67.5 4.9082C67.5664 4.9043 67.6191 4.90234 67.6582 4.90234C67.8066 4.90234 67.8926 4.91406 67.916 4.9375C67.9355 4.9375 67.9688 4.93555 68.0156 4.93164C68.0664 4.92773 68.1035 4.92578 68.127 4.92578C68.1621 4.92578 68.1914 4.92773 68.2148 4.93164C68.2422 4.93555 68.2695 4.94531 68.2969 4.96094C68.3242 4.97266 68.3477 4.98828 68.3672 5.00781C68.3906 5.02734 68.4102 5.05469 68.4258 5.08984C68.4453 5.125 68.459 5.16797 68.4668 5.21875L66.7617 12.6953H63.334L62.6836 8.93359L62.2793 12.0391C62.2754 12.0625 62.2637 12.127 62.2441 12.2324C62.2285 12.3379 62.2148 12.4102 62.2031 12.4492C62.1953 12.4883 62.1797 12.541 62.1562 12.6074C62.1328 12.6738 62.1035 12.7207 62.0684 12.748C62.0332 12.7754 61.9902 12.7891 61.9395 12.7891C61.7949 12.7891 61.5801 12.7832 61.2949 12.7715C61.0098 12.7598 60.7949 12.7539 60.6504 12.7539C60.4004 12.7539 60.0723 12.7598 59.666 12.7715C59.2598 12.7832 58.9629 12.7891 58.7754 12.7891H58.5879L57.0293 5.50586L57.0645 5.08984C57.0645 5.08203 57.0645 5.06641 57.0645 5.04297C57.0645 5.01953 57.0645 5.00586 57.0645 5.00195C57.0645 4.99414 57.0664 4.98242 57.0703 4.9668C57.0742 4.94727 57.0801 4.93359 57.0879 4.92578C57.0957 4.91797 57.1074 4.9082 57.123 4.89648C57.1387 4.88477 57.1582 4.875 57.1816 4.86719C57.291 4.88281 57.373 4.89062 57.4277 4.89062H57.8145C57.8926 4.89062 57.9316 4.88281 57.9316 4.86719H58.1309C58.1465 4.86719 58.1738 4.86523 58.2129 4.86133C58.2559 4.85742 58.2949 4.85547 58.3301 4.85547H58.4941C58.5371 4.85547 58.5996 4.85352 58.6816 4.84961C58.7637 4.8457 58.8262 4.84375 58.8691 4.84375H59.2559V4.86719H59.6426C59.7676 4.86719 59.8613 4.88672 59.9238 4.92578C59.9902 4.96094 60.0254 5.03516 60.0293 5.14844L60.457 8.86914ZM76.6406 4.9375C76.6875 4.95312 76.7227 5.02148 76.7461 5.14258C76.7734 5.25977 76.7891 5.4082 76.793 5.58789C76.7969 5.76758 76.7969 5.93945 76.793 6.10352C76.7891 6.26758 76.7832 6.43555 76.7754 6.60742C76.7715 6.7793 76.7695 6.88672 76.7695 6.92969C76.7617 7.08594 76.7578 7.30469 76.7578 7.58594V8.20703C76.7578 8.48047 76.7617 8.85547 76.7695 9.33203C76.7773 9.80859 76.7812 10.1602 76.7812 10.3867V12.5195C76.7656 12.6523 76.6562 12.7188 76.4531 12.7188H73.1719C73.1016 12.7031 73.0117 12.5391 72.9023 12.2266C72.8281 12.0195 72.7031 11.6797 72.5273 11.207C72.3555 10.7344 72.207 10.3203 72.082 9.96484C71.957 9.60547 71.8438 9.25781 71.7422 8.92188V8.88672V8.92188C71.7305 9.17969 71.7188 9.56445 71.707 10.0762C71.6953 10.584 71.6836 10.9648 71.6719 11.2188V12.4141C71.6719 12.5312 71.6582 12.6133 71.6309 12.6602C71.6035 12.7031 71.5312 12.7383 71.4141 12.7656H69L68.7422 12.5078C68.7617 11.8594 68.7773 10.8438 68.7891 9.46094C68.8008 8.07812 68.8164 7.05469 68.8359 6.39062V5.125C68.875 4.98438 68.9219 4.91406 68.9766 4.91406V4.9375C69.2422 4.9375 69.6582 4.92969 70.2246 4.91406C70.7949 4.89844 71.2227 4.89062 71.5078 4.89062H72.4922C72.4961 4.89062 72.502 4.89258 72.5098 4.89648C72.5801 4.92383 72.6191 4.95508 72.627 4.99023L72.6328 5.03125C72.7734 5.41016 72.916 5.80273 73.0605 6.20898C73.2051 6.61523 73.377 7.10742 73.5762 7.68555C73.7754 8.25977 73.9141 8.65625 73.9922 8.875V8.00781C74.0703 6.63281 74.1094 5.65625 74.1094 5.07812C74.1094 5.01562 74.1523 4.97656 74.2383 4.96094C74.3242 4.94531 74.457 4.9375 74.6367 4.9375H76.6406ZM78.0352 12.7656C78.0234 12.75 78.0039 12.7324 77.9766 12.7129C77.9531 12.6934 77.9258 12.6562 77.8945 12.6016V10.0703C77.8945 9.73828 77.9082 9.22852 77.9355 8.54102C77.9629 7.85352 77.9766 7.33203 77.9766 6.97656C77.9766 6.89844 77.9688 6.73242 77.9531 6.47852C77.9375 6.22461 77.9297 6.02344 77.9297 5.875C77.9297 5.32422 77.9961 4.98828 78.1289 4.86719C78.9414 4.88281 79.5469 4.89062 79.9453 4.89062H80.5078C80.6406 4.89062 80.7422 4.89453 80.8125 4.90234C80.8203 4.89453 80.8398 4.89062 80.8711 4.89062C80.8789 4.89062 80.9121 4.89453 80.9707 4.90234C81.0332 4.91016 81.082 4.91406 81.1172 4.91406C81.2148 4.92578 81.2969 5.00781 81.3633 5.16016V5.24219C81.3633 5.28516 81.3613 5.34766 81.3574 5.42969C81.3535 5.51172 81.3516 5.57422 81.3516 5.61719V5.875C81.3477 5.89453 81.3223 5.92969 81.2754 5.98047C81.2324 6.02734 81.2109 6.06641 81.2109 6.09766V10.375H83.6953C83.7578 10.375 83.8047 10.377 83.8359 10.3809C83.8672 10.3848 83.8984 10.4023 83.9297 10.4336C83.9609 10.4648 83.9766 10.5117 83.9766 10.5742V12.5312C83.9453 12.6875 83.7578 12.7656 83.4141 12.7656H78.0352ZM84.1289 8.75781L84.1172 8.62891C84.1914 7.99219 84.2617 7.54883 84.3281 7.29883C84.4805 6.71289 84.7539 6.22266 85.1484 5.82812L85.2891 5.6875C85.4766 5.46875 85.7617 5.28125 86.1445 5.125H86.3672C86.75 4.96484 87.3789 4.81641 88.2539 4.67969C88.4727 4.67969 88.7012 4.69727 88.9395 4.73242C89.1816 4.76367 89.4492 4.81836 89.7422 4.89648C90.0352 4.9707 90.3164 5.0918 90.5859 5.25977C90.8594 5.42383 91.0859 5.62109 91.2656 5.85156V6.01562C91.9062 6.81641 92.2266 7.71484 92.2266 8.71094C92.2266 9.83203 91.9688 10.7461 91.4531 11.4531L91.2188 11.7461C91.0391 11.9688 90.8145 12.1602 90.5449 12.3203C90.2793 12.4805 89.9961 12.6035 89.6953 12.6895C89.3945 12.7715 89.1055 12.8301 88.8281 12.8652C88.5547 12.9004 88.2812 12.918 88.0078 12.918C87.6055 12.918 87.2207 12.8711 86.8535 12.7773C86.4902 12.6797 86.1484 12.5293 85.8281 12.3262C85.5117 12.123 85.2324 11.873 84.9902 11.5762C84.748 11.2793 84.5508 10.9219 84.3984 10.5039C84.25 10.082 84.1602 9.61719 84.1289 9.10938V8.75781ZM87.3516 8.80469C87.3516 10.1797 87.6133 10.8672 88.1367 10.8672C88.2812 10.8672 88.4062 10.8398 88.5117 10.7852C88.6211 10.7305 88.709 10.6465 88.7754 10.5332C88.8418 10.4199 88.8965 10.3047 88.9395 10.1875C88.9824 10.0703 89.0117 9.92383 89.0273 9.74805C89.0469 9.57227 89.0586 9.41797 89.0625 9.28516C89.0703 9.15234 89.0742 8.99219 89.0742 8.80469V8.59375C89.0742 8.39062 89.0625 8.19531 89.0391 8.00781C89.0156 7.82031 88.9746 7.63281 88.916 7.44531C88.8613 7.25391 88.7754 7.10156 88.6582 6.98828C88.541 6.87109 88.3984 6.8125 88.2305 6.8125C87.6445 6.8125 87.3516 7.39062 87.3516 8.54688V8.80469ZM95.7656 11.5469C95.7383 11.6367 95.7109 11.7559 95.6836 11.9043C95.6602 12.0488 95.6367 12.1641 95.6133 12.25C95.5938 12.332 95.5586 12.4199 95.5078 12.5137C95.457 12.6035 95.3789 12.6699 95.2734 12.7129C95.1719 12.7559 95.0391 12.7773 94.875 12.7773H92.3438V12.5781C92.5508 11.957 92.8516 11.0039 93.2461 9.71875C93.6445 8.43359 93.9531 7.46094 94.1719 6.80078V6.8125C94.3047 6.43359 94.5 5.83984 94.7578 5.03125C94.7617 5.02344 94.7676 5.01367 94.7754 5.00195C94.8105 4.94336 94.8438 4.89844 94.875 4.86719L98.0391 4.89062C98.5781 4.89062 98.875 4.9375 98.9297 5.03125V5.18359C98.9375 5.21875 98.9805 5.30859 99.0586 5.45312C99.4375 6.61328 99.7148 7.45703 99.8906 7.98438V8.05469C99.9062 8.16797 99.9414 8.29688 99.9961 8.44141C100.051 8.58594 100.115 8.74219 100.189 8.91016C100.268 9.07422 100.322 9.20312 100.354 9.29688L100.588 10.1406C100.725 10.5938 100.926 11.1992 101.191 11.957V11.9453V12.0625C101.203 12.1172 101.232 12.1914 101.279 12.2852C101.326 12.3789 101.355 12.4453 101.367 12.4844C101.367 12.5938 101.344 12.6641 101.297 12.6953C101.254 12.7266 101.168 12.7422 101.039 12.7422H98.3203C98.2539 12.7344 98.2109 12.7285 98.1914 12.7246C98.1719 12.7207 98.1406 12.7129 98.0977 12.7012C98.0586 12.6895 98.0293 12.6738 98.0098 12.6543C97.9941 12.6348 97.9844 12.6094 97.9805 12.5781L97.7578 11.6875C97.7422 11.6133 97.7266 11.5723 97.7109 11.5645C97.6953 11.5527 97.6484 11.5469 97.5703 11.5469H95.7656ZM96.0469 9.46094V9.48438V9.46094ZM97.3359 8.75781C97.3125 8.64844 97.2773 8.47266 97.2305 8.23047C97.1875 7.98438 97.1445 7.77148 97.1016 7.5918C97.0586 7.4082 97.0117 7.23828 96.9609 7.08203V6.80078C96.9297 6.71875 96.875 6.66016 96.7969 6.625V6.63672C96.7031 6.65625 96.6094 6.91797 96.5156 7.42188V7.70312C96.5078 7.73047 96.4902 7.75586 96.4629 7.7793C96.4355 7.80273 96.4219 7.81641 96.4219 7.82031C96.293 8.39062 96.1875 8.85156 96.1055 9.20312C96.1055 9.24219 96.0957 9.31055 96.0762 9.4082C96.0566 9.50586 96.0469 9.5625 96.0469 9.57812H97.5C97.5 9.47656 97.4648 9.29297 97.3945 9.02734V8.89844C97.3906 8.88672 97.3789 8.86523 97.3594 8.83398C97.3438 8.79883 97.3359 8.77344 97.3359 8.75781ZM104.977 4.86719C105.512 4.86719 105.992 4.90234 106.418 4.97266C106.848 5.04297 107.258 5.16797 107.648 5.34766C108.043 5.52734 108.371 5.76172 108.633 6.05078C108.895 6.33984 109.102 6.71484 109.254 7.17578C109.41 7.63672 109.488 8.17188 109.488 8.78125C109.488 9.22656 109.436 9.64258 109.33 10.0293C109.225 10.4121 109.08 10.7422 108.896 11.0195C108.713 11.2969 108.502 11.5449 108.264 11.7637C108.029 11.9785 107.773 12.1543 107.496 12.291C107.219 12.4277 106.941 12.5332 106.664 12.6074C106.387 12.6816 106.109 12.7266 105.832 12.7422H101.812V4.96094C101.824 4.96094 101.846 4.96289 101.877 4.9668C101.908 4.9707 101.93 4.97266 101.941 4.97266C102.109 4.97266 102.363 4.95508 102.703 4.91992C103.047 4.88477 103.305 4.86719 103.477 4.86719H104.977ZM105.047 10.9141C105.246 10.9141 105.422 10.8828 105.574 10.8203C105.727 10.7539 105.848 10.6602 105.938 10.5391C106.031 10.418 106.107 10.291 106.166 10.1582C106.229 10.0254 106.273 9.86914 106.301 9.68945C106.328 9.50977 106.346 9.35352 106.354 9.2207C106.365 9.08398 106.371 8.92969 106.371 8.75781V8.33594C106.367 8.30859 106.355 8.17578 106.336 7.9375C106.316 7.69922 106.273 7.49609 106.207 7.32812C106.145 7.20703 106.074 7.10352 105.996 7.01758C105.922 6.92773 105.848 6.85938 105.773 6.8125C105.699 6.76172 105.611 6.72461 105.51 6.70117C105.412 6.67383 105.322 6.65625 105.24 6.64844C105.158 6.64062 105.059 6.63672 104.941 6.63672V6.76562H104.766V10.9141H105.047ZM113.941 12.1797V4.35156C113.941 4.21875 114.246 4.15234 114.855 4.15234C114.922 4.15234 115.016 4.1543 115.137 4.1582C115.262 4.16211 115.348 4.16406 115.395 4.16406C115.703 4.16406 116.162 4.1582 116.771 4.14648C117.385 4.13477 117.848 4.12891 118.16 4.12891C118.375 4.12891 118.693 4.13281 119.115 4.14062C119.541 4.14844 119.871 4.15234 120.105 4.15234C120.137 4.15234 120.184 4.15039 120.246 4.14648C120.309 4.14258 120.355 4.14062 120.387 4.14062C120.527 4.14062 120.625 4.16797 120.68 4.22266C120.734 4.27344 120.762 4.375 120.762 4.52734V6.57812C120.535 6.59766 120.299 6.61133 120.053 6.61914C119.807 6.62305 119.494 6.62695 119.115 6.63086C118.736 6.63477 118.5 6.63672 118.406 6.63672H117.598C117.598 6.71094 117.596 6.81836 117.592 6.95898C117.588 7.09961 117.586 7.20703 117.586 7.28125V7.36328C117.594 7.37891 117.598 7.40625 117.598 7.44531C118.484 7.38281 119.234 7.35156 119.848 7.35156C120.031 7.35156 120.193 7.36523 120.334 7.39258C120.479 7.41992 120.551 7.46094 120.551 7.51562V9.47266C120.551 9.64453 120.518 9.75977 120.451 9.81836C120.385 9.87695 120.281 9.90625 120.141 9.90625C120.109 9.90625 120.053 9.90234 119.971 9.89453C119.889 9.88672 119.824 9.88281 119.777 9.88281C118.984 9.93359 118.262 9.96484 117.609 9.97656C117.609 10.2148 117.615 10.5742 117.627 11.0547C117.639 11.5352 117.645 11.8945 117.645 12.1328V12.8594C117.645 12.9727 117.633 13.0469 117.609 13.082C117.586 13.1211 117.527 13.1484 117.434 13.1641C117.059 13.1641 116.504 13.168 115.77 13.1758C115.035 13.1836 114.48 13.1875 114.105 13.1875C114.074 13.1406 114.047 13.0898 114.023 13.0352C114.004 12.9805 113.988 12.9316 113.977 12.8887C113.965 12.8457 113.955 12.7871 113.947 12.7129C113.943 12.6348 113.939 12.5801 113.936 12.5488C113.936 12.5137 113.936 12.4492 113.936 12.3555C113.939 12.2617 113.941 12.2031 113.941 12.1797ZM121.301 4.9375H122.391C122.727 4.9375 123.264 4.92969 124.002 4.91406C124.74 4.89844 125.293 4.89062 125.66 4.89062C125.977 4.89062 126.271 4.9082 126.545 4.94336C126.822 4.97852 127.094 5.04297 127.359 5.13672C127.629 5.23047 127.857 5.34961 128.045 5.49414C128.236 5.63867 128.391 5.83008 128.508 6.06836C128.625 6.30273 128.684 6.57422 128.684 6.88281C128.684 7.30859 128.584 7.67188 128.385 7.97266C128.186 8.27344 127.879 8.52734 127.465 8.73438C127.629 8.80469 127.771 8.89648 127.893 9.00977C128.014 9.12305 128.105 9.2207 128.168 9.30273C128.234 9.38477 128.297 9.52344 128.355 9.71875C128.418 9.91016 128.455 10.0371 128.467 10.0996C128.479 10.1582 128.504 10.3066 128.543 10.5449C128.555 10.5996 128.562 10.6406 128.566 10.668C128.582 10.8242 128.648 11.1113 128.766 11.5293C128.883 11.9434 128.941 12.2617 128.941 12.4844C128.941 12.625 128.898 12.6953 128.812 12.6953C128.578 12.6953 128.223 12.6973 127.746 12.7012C127.273 12.7051 126.922 12.707 126.691 12.707C126.598 12.6992 126.457 12.6953 126.27 12.6953H125.871C125.793 12.6719 125.717 12.5508 125.643 12.332C125.568 12.1133 125.516 11.8672 125.484 11.5938L125.355 10.5508C125.332 10.4648 125.312 10.4043 125.297 10.3691C125.285 10.3301 125.262 10.2852 125.227 10.2344C125.191 10.1797 125.143 10.1426 125.08 10.123C125.021 10.1035 124.945 10.0938 124.852 10.0938H124.582V12.4375C124.582 12.4492 124.582 12.4688 124.582 12.4961C124.582 12.5195 124.582 12.5371 124.582 12.5488C124.582 12.5566 124.582 12.5703 124.582 12.5898C124.582 12.6094 124.58 12.625 124.576 12.6367C124.572 12.6445 124.568 12.6562 124.564 12.6719C124.561 12.6875 124.555 12.6992 124.547 12.707C124.543 12.7109 124.535 12.7188 124.523 12.7305C124.516 12.7383 124.504 12.7441 124.488 12.748C124.477 12.752 124.461 12.7559 124.441 12.7598C124.426 12.7637 124.406 12.7656 124.383 12.7656H121.301V4.9375ZM124.617 8.03125C124.625 8.03906 124.637 8.05664 124.652 8.08398C124.668 8.10742 124.684 8.12695 124.699 8.14258C124.715 8.1582 124.73 8.16797 124.746 8.17188C124.863 8.17188 124.98 8.16016 125.098 8.13672C125.215 8.10938 125.334 8.06641 125.455 8.00781C125.58 7.94922 125.68 7.85938 125.754 7.73828C125.832 7.61719 125.871 7.47266 125.871 7.30469C125.871 6.89844 125.48 6.69531 124.699 6.69531C124.621 6.71484 124.582 6.74609 124.582 6.78906V7.01172C124.582 7.125 124.588 7.29492 124.6 7.52148C124.611 7.74805 124.617 7.91797 124.617 8.03125ZM129.094 8.75781L129.082 8.62891C129.156 7.99219 129.227 7.54883 129.293 7.29883C129.445 6.71289 129.719 6.22266 130.113 5.82812L130.254 5.6875C130.441 5.46875 130.727 5.28125 131.109 5.125H131.332C131.715 4.96484 132.344 4.81641 133.219 4.67969C133.438 4.67969 133.666 4.69727 133.904 4.73242C134.146 4.76367 134.414 4.81836 134.707 4.89648C135 4.9707 135.281 5.0918 135.551 5.25977C135.824 5.42383 136.051 5.62109 136.23 5.85156V6.01562C136.871 6.81641 137.191 7.71484 137.191 8.71094C137.191 9.83203 136.934 10.7461 136.418 11.4531L136.184 11.7461C136.004 11.9688 135.779 12.1602 135.51 12.3203C135.244 12.4805 134.961 12.6035 134.66 12.6895C134.359 12.7715 134.07 12.8301 133.793 12.8652C133.52 12.9004 133.246 12.918 132.973 12.918C132.57 12.918 132.186 12.8711 131.818 12.7773C131.455 12.6797 131.113 12.5293 130.793 12.3262C130.477 12.123 130.197 11.873 129.955 11.5762C129.713 11.2793 129.516 10.9219 129.363 10.5039C129.215 10.082 129.125 9.61719 129.094 9.10938V8.75781ZM132.316 8.80469C132.316 10.1797 132.578 10.8672 133.102 10.8672C133.246 10.8672 133.371 10.8398 133.477 10.7852C133.586 10.7305 133.674 10.6465 133.74 10.5332C133.807 10.4199 133.861 10.3047 133.904 10.1875C133.947 10.0703 133.977 9.92383 133.992 9.74805C134.012 9.57227 134.023 9.41797 134.027 9.28516C134.035 9.15234 134.039 8.99219 134.039 8.80469V8.59375C134.039 8.39062 134.027 8.19531 134.004 8.00781C133.98 7.82031 133.939 7.63281 133.881 7.44531C133.826 7.25391 133.74 7.10156 133.623 6.98828C133.506 6.87109 133.363 6.8125 133.195 6.8125C132.609 6.8125 132.316 7.39062 132.316 8.54688V8.80469ZM142.301 4.96094C142.328 4.95312 142.371 4.94727 142.43 4.94336C142.492 4.93555 142.531 4.92969 142.547 4.92578L143.244 8.49414L144.158 4.91406H148.277C148.387 4.91406 148.441 5.14453 148.441 5.60547V12.5078C148.434 12.5703 148.416 12.6211 148.389 12.6602C148.361 12.6992 148.32 12.7266 148.266 12.7422C148.215 12.7539 148.174 12.7617 148.143 12.7656C148.115 12.7656 148.066 12.7656 147.996 12.7656C147.75 12.7656 147.375 12.7695 146.871 12.7773C146.371 12.7852 145.996 12.7891 145.746 12.7891C145.551 12.668 145.453 12.2188 145.453 11.4414C145.453 11.2461 145.457 10.9922 145.465 10.6797C145.473 10.3633 145.477 10.1289 145.477 9.97656V9.46094C145.477 9.43359 145.475 9.39062 145.471 9.33203C145.467 9.26953 145.465 9.22266 145.465 9.19141C145.465 9.05859 145.473 8.84375 145.488 8.54688V8.99219C145.434 9.22266 145.328 9.57422 145.172 10.0469C145.016 10.5195 144.91 10.8711 144.855 11.1016L144.504 12.6016C144.441 12.7109 144.246 12.7656 143.918 12.7656C143.758 12.7656 143.549 12.7617 143.291 12.7539C143.037 12.7461 142.844 12.7422 142.711 12.7422C142.672 12.7422 142.605 12.7441 142.512 12.748C142.418 12.752 142.359 12.7539 142.336 12.7539C142.211 12.7539 142.121 12.7383 142.066 12.707C142.012 12.6758 141.973 12.6133 141.949 12.5195C141.582 10.8906 141.328 9.73828 141.188 9.0625L140.977 8.05469C140.922 9.19141 140.895 10.3945 140.895 11.6641V12.6953H138.129C138.129 12.6719 138.135 12.6211 138.146 12.543C138.158 12.4648 138.164 12.4219 138.164 12.4141C138.133 11.6641 138.117 10.7383 138.117 9.63672C138.117 9.30469 138.115 8.86328 138.111 8.3125C138.107 7.75781 138.105 7.375 138.105 7.16406V5.08984C138.105 5.03906 138.113 5.00195 138.129 4.97852C138.145 4.95117 138.184 4.91406 138.246 4.86719H138.785C138.98 4.86719 139.121 4.86328 139.207 4.85547C139.602 4.85547 140.08 4.87305 140.643 4.9082C141.209 4.94336 141.562 4.96094 141.703 4.96094H142.301ZM145.488 8.51172V8.5V8.51172Z" fill="white"/>
<path d="M6.98445 6.51177C5.73252 5.81981 4.26261 5.83581 3.01868 6.52177L17.5979 19.971L22.4956 15.0733L6.98445 6.51177Z" fill="white"/>
<path d="M1.56082 7.89746C1.20484 8.47943 1.00085 9.14539 1.00085 9.85135V34.142C1.00085 34.8259 1.18684 35.4779 1.52282 36.0479L16.184 21.3867L1.56082 7.89746Z" fill="white"/>
<path d="M28.9892 18.657L24.3175 16.0791L19.0677 21.3268L25.5014 27.2605L28.9912 25.3346C30.2471 24.6386 30.9991 23.3907 30.9991 21.9948C30.9971 20.5988 30.2471 19.3509 28.9892 18.657Z" fill="white"/>
<path d="M17.6539 22.7427L2.95276 37.4438C3.59072 37.8078 4.29068 37.9998 4.99464 37.9998C5.6746 37.9998 6.35857 37.8278 6.98453 37.4818L23.6576 28.2804L17.6539 22.7427Z" fill="white"/>
</svg>
